<svg width="351" height="46" viewBox="0 0 351 46" fill="none" xmlns="http://www.w3.org/2000/svg">
  <path opacity="0.7" d="M60.9141 42.3281H64.6992V24.5635H65.5156V42.3281H66.5234V46H65.7412V43.4619H60.1318V24.5635H60.9141V42.3281ZM285.356 42.3281H289.143V24.5635H289.959V42.3281H290.966V46H290.185V43.4619H284.575V24.5635H285.356V42.3281ZM2.62207 24.4014C3.51347 24.4014 4.17319 24.8428 4.60156 25.7246C5.02993 26.5885 5.24414 27.7408 5.24414 29.1807V30.7461H4.48047V29.0996C4.48047 28.0199 4.33021 27.1557 4.0293 26.5078C3.73986 25.8599 3.27641 25.5352 2.63965 25.5352C2.00289 25.5352 1.53441 25.8599 1.2334 26.5078C0.943981 27.1558 0.798828 28.0197 0.798828 29.0996V38.9268C0.798862 41.2844 1.41248 42.4629 2.63965 42.4629C3.86683 42.4629 4.48044 41.2844 4.48047 38.9268V36.6855H5.24414V38.8457C5.24413 40.2855 5.02992 41.4462 4.60156 42.3281C4.1732 43.192 3.51352 43.624 2.62207 43.624C1.73072 43.624 1.07091 43.192 0.642578 42.3281C0.214265 41.4462 1.29679e-05 40.2855 0 38.8457V29.1807C0 27.7408 0.214212 26.5885 0.642578 25.7246C1.07091 24.8428 1.73073 24.4014 2.62207 24.4014ZM26.7705 24.4014C27.662 24.4014 28.3226 24.8427 28.751 25.7246C29.1793 26.5885 29.3936 27.7409 29.3936 29.1807V30.7461H28.6289V29.0996C28.6289 28.0199 28.4787 27.1557 28.1777 26.5078C27.8883 25.8599 27.4248 25.5352 26.7881 25.5352C26.1514 25.5352 25.6828 25.8599 25.3818 26.5078C25.0924 27.1558 24.9473 28.0197 24.9473 29.0996V38.9268C24.9473 41.2844 25.561 42.4628 26.7881 42.4629C28.0153 42.4629 28.6289 41.2844 28.6289 38.9268V36.6855H29.3936V38.8457C29.3935 40.2854 29.1792 41.4463 28.751 42.3281C28.3226 43.1921 27.662 43.624 26.7705 43.624C25.8792 43.6239 25.2193 43.192 24.791 42.3281C24.3627 41.4462 24.1485 40.2854 24.1484 38.8457V29.1807C24.1484 27.7408 24.3627 26.5885 24.791 25.7246C25.2193 24.8428 25.8792 24.4015 26.7705 24.4014ZM118.499 24.4014C119.402 24.4014 120.074 24.8335 120.514 25.6973C120.965 26.5612 121.19 27.7228 121.19 29.1807V38.8457C121.19 40.3034 120.965 41.4642 120.514 42.3281C120.074 43.1921 119.402 43.624 118.499 43.624C117.619 43.624 116.953 43.192 116.502 42.3281C116.062 41.4462 115.842 40.2854 115.842 38.8457V29.1807C115.842 27.7408 116.062 26.5885 116.502 25.7246C116.953 24.8427 117.619 24.4014 118.499 24.4014ZM132.829 24.4014C133.732 24.4014 134.404 24.8335 134.844 25.6973C135.295 26.5612 135.521 27.7228 135.521 29.1807V38.8457C135.52 40.3034 135.295 41.4642 134.844 42.3281C134.404 43.192 133.732 43.624 132.829 43.624C131.949 43.624 131.284 43.1921 130.832 42.3281C130.392 41.4462 130.172 40.2855 130.172 38.8457V29.1807C130.172 27.7408 130.392 26.5885 130.832 25.7246C131.284 24.8427 131.949 24.4014 132.829 24.4014ZM146.887 24.4014C147.778 24.4014 148.438 24.8428 148.866 25.7246C149.295 26.5885 149.509 27.7408 149.509 29.1807V30.7461H148.745V29.0996C148.745 28.0197 148.594 27.1558 148.293 26.5078C148.004 25.86 147.541 25.5353 146.904 25.5352C146.268 25.5352 145.798 25.8599 145.497 26.5078C145.208 27.1557 145.063 28.0199 145.063 29.0996V38.9268C145.064 41.2844 145.677 42.4629 146.904 42.4629C148.131 42.4627 148.745 41.2842 148.745 38.9268V36.6855H149.509V38.8457C149.509 40.2855 149.295 41.4462 148.866 42.3281C148.438 43.192 147.778 43.624 146.887 43.624C145.995 43.624 145.336 43.192 144.907 42.3281C144.479 41.4462 144.265 40.2855 144.265 38.8457V29.1807C144.265 27.7408 144.479 26.5885 144.907 25.7246C145.336 24.8428 145.995 24.4014 146.887 24.4014ZM197.127 24.4014C198.03 24.4015 198.701 24.8338 199.141 25.6973C199.592 26.5612 199.818 27.7228 199.818 29.1807V38.8457C199.818 40.3035 199.592 41.4642 199.141 42.3281C198.701 43.1919 198.03 43.6239 197.127 43.624C196.247 43.624 195.581 43.192 195.13 42.3281C194.69 41.4462 194.47 40.2855 194.47 38.8457V29.1807C194.47 27.7408 194.69 26.5885 195.13 25.7246C195.581 24.8428 196.247 24.4014 197.127 24.4014ZM232.729 24.4014C233.621 24.4014 234.282 24.8427 234.71 25.7246C235.138 26.5885 235.353 27.7408 235.353 29.1807V30.7461H234.588V29.0996C234.588 28.0198 234.438 27.1557 234.137 26.5078C233.847 25.8599 233.384 25.5352 232.747 25.5352C232.11 25.5352 231.642 25.8599 231.341 26.5078C231.051 27.1557 230.906 28.0198 230.906 29.0996V38.9268C230.906 41.2843 231.52 42.4628 232.747 42.4629C233.974 42.4629 234.588 41.2844 234.588 38.9268V36.6855H235.353V38.8457C235.353 40.2854 235.138 41.4463 234.71 42.3281C234.282 43.1921 233.621 43.624 232.729 43.624C231.838 43.6239 231.178 43.1919 230.75 42.3281C230.322 41.4462 230.107 40.2854 230.107 38.8457V29.1807C230.107 27.7408 230.322 26.5885 230.75 25.7246C231.178 24.8428 231.838 24.4015 232.729 24.4014ZM249.663 24.4014C250.554 24.4015 251.214 24.8428 251.643 25.7246C252.071 26.5885 252.285 27.7408 252.285 29.1807V30.7461H251.521V29.0996C251.521 28.0198 251.37 27.1557 251.069 26.5078C250.78 25.8599 250.316 25.5352 249.68 25.5352C249.043 25.5353 248.574 25.86 248.273 26.5078C247.984 27.1557 247.839 28.0198 247.839 29.0996V38.9268C247.839 41.2842 248.453 42.4627 249.68 42.4629C250.907 42.4629 251.52 41.2844 251.521 38.9268V36.6855H252.285V38.8457C252.285 40.2854 252.071 41.4462 251.643 42.3281C251.214 43.1919 250.554 43.6239 249.663 43.624C248.772 43.624 248.111 43.1921 247.683 42.3281C247.254 41.4463 247.04 40.2854 247.04 38.8457V29.1807C247.04 27.7408 247.254 26.5885 247.683 25.7246C248.111 24.8427 248.772 24.4014 249.663 24.4014ZM256.54 24.4014C257.443 24.4014 258.115 24.8335 258.555 25.6973C259.006 26.5612 259.231 27.7228 259.231 29.1807V38.8457C259.231 40.3034 259.006 41.4642 258.555 42.3281C258.115 43.1921 257.443 43.624 256.54 43.624C255.66 43.624 254.994 43.192 254.543 42.3281C254.103 41.4462 253.883 40.2855 253.883 38.8457V29.1807C253.883 27.7408 254.103 26.5885 254.543 25.7246C254.994 24.8427 255.66 24.4014 256.54 24.4014ZM266.511 24.4014C267.402 24.4014 268.062 24.8428 268.49 25.7246C268.919 26.5885 269.133 27.7408 269.133 29.1807V30.7461H268.369V29.0996C268.369 28.0198 268.218 27.1557 267.917 26.5078C267.628 25.86 267.165 25.5353 266.528 25.5352C265.892 25.5352 265.422 25.8599 265.121 26.5078C264.832 27.1557 264.688 28.0198 264.688 29.0996V38.9268C264.688 41.2844 265.301 42.4629 266.528 42.4629C267.755 42.4626 268.369 41.2842 268.369 38.9268V36.6855H269.133V38.8457C269.133 40.2855 268.919 41.4462 268.49 42.3281C268.062 43.192 267.402 43.624 266.511 43.624C265.619 43.624 264.96 43.192 264.531 42.3281C264.103 41.4462 263.889 40.2855 263.889 38.8457V29.1807C263.889 27.7408 264.103 26.5885 264.531 25.7246C264.96 24.8428 265.619 24.4014 266.511 24.4014ZM325.306 24.4014C326.197 24.4015 326.857 24.8428 327.285 25.7246C327.714 26.5885 327.928 27.7408 327.928 29.1807V30.7461H327.163V29.0996C327.163 28.0198 327.013 27.1557 326.712 26.5078C326.422 25.8599 325.959 25.5352 325.322 25.5352C324.686 25.5353 324.217 25.86 323.916 26.5078C323.627 27.1557 323.481 28.0198 323.481 29.0996V38.9268C323.481 41.2842 324.095 42.4626 325.322 42.4629C326.549 42.4629 327.163 41.2844 327.163 38.9268V36.6855H327.928V38.8457C327.928 40.2854 327.713 41.4462 327.285 42.3281C326.857 43.1919 326.197 43.6239 325.306 43.624C324.414 43.624 323.754 43.1921 323.325 42.3281C322.897 41.4463 322.683 40.2854 322.683 38.8457V29.1807C322.683 27.7409 322.897 26.5885 323.325 25.7246C323.754 24.8427 324.414 24.4014 325.306 24.4014ZM339.263 24.4014C340.166 24.4014 340.837 24.8335 341.277 25.6973C341.729 26.5612 341.955 27.7228 341.955 29.1807V38.8457C341.955 40.3035 341.729 41.4642 341.277 42.3281C340.837 43.1921 340.166 43.624 339.263 43.624C338.383 43.624 337.717 43.192 337.266 42.3281C336.826 41.4462 336.605 40.2854 336.605 38.8457V29.1807C336.605 27.7408 336.826 26.5885 337.266 25.7246C337.717 24.8427 338.383 24.4014 339.263 24.4014ZM165.101 43.4619H164.284V25.6973H161.314L161.002 38.8457C160.979 39.5656 160.938 40.1777 160.88 40.6816C160.822 41.1675 160.718 41.6444 160.567 42.1123C160.428 42.5622 160.214 42.9047 159.925 43.1387C159.647 43.3544 159.294 43.4712 158.866 43.4893H158.71V42.3555C159.034 42.3554 159.3 42.2742 159.509 42.1123C159.717 41.9324 159.867 41.6624 159.96 41.3027C160.053 40.9248 160.111 40.573 160.134 40.249C160.168 39.9072 160.192 39.4485 160.203 38.873L160.567 24.5635H165.101V43.4619ZM313.842 43.4619H313.025V25.6973H310.056L309.743 38.8457C309.72 39.5656 309.68 40.1777 309.622 40.6816C309.564 41.1675 309.46 41.6444 309.31 42.1123C309.171 42.5623 308.956 42.9047 308.667 43.1387C308.389 43.3546 308.036 43.4713 307.607 43.4893H307.451V42.3555C307.775 42.3555 308.042 42.2743 308.25 42.1123C308.458 41.9324 308.609 41.6625 308.701 41.3027C308.794 40.9248 308.852 40.573 308.875 40.249C308.91 39.9072 308.933 39.4485 308.944 38.873L309.31 24.5635H313.842V43.4619ZM46.8281 31.2324L47.8877 36.2812L48.8604 31.2051L50.1797 24.5635H51.0137L47.8701 39.9521C47.6501 41.212 47.3549 42.1301 46.9844 42.7061C46.6139 43.2639 46.0181 43.5158 45.1963 43.4619V42.3555C45.7287 42.3734 46.1223 42.211 46.377 41.8691C46.6316 41.5092 46.8399 40.9333 47.002 40.1416L47.5059 37.8467L44.5879 24.5635H45.4043L46.8281 31.2324ZM153.191 31.2324L154.25 36.2812L155.223 31.2051L156.543 24.5635H157.376L154.232 39.9521C154.012 41.2118 153.718 42.1301 153.348 42.7061C152.977 43.264 152.381 43.5159 151.559 43.4619V42.3555C152.091 42.3734 152.485 42.2111 152.739 41.8691C152.994 41.5092 153.202 40.9334 153.364 40.1416L153.868 37.8467L150.951 24.5635H151.767L153.191 31.2324ZM10.668 40.7354L12.4395 33.0137L14.4014 24.5635H15.3564V43.4619H14.6279V26.751L12.8037 34.5801L10.8066 43.4619H9.93848V24.5635H10.668V40.7354ZM17.8682 33.4463H21.6543V24.5635H22.4707V43.4619H21.6543V34.5801H17.8682V43.4619H17.0693V24.5635H17.8682V33.4463ZM36.6006 25.6973H34.1172V43.4619H33.3184V25.6973H30.835V24.5635H36.6006V25.6973ZM40.6416 24.5635C42.3782 24.5635 43.2461 26.0936 43.2461 29.1533V31.2051C43.2461 34.1926 42.3088 35.6863 40.4336 35.6865H38.9219V43.4619H38.123V24.5635H40.6416ZM53.3369 34.5527L57.2969 24.5635H58.1299L54.6562 33.3652L58.3555 43.4619H57.5225L54.1709 34.5801L53.3369 36.6318V43.4619H52.5381V24.5635H53.3369V34.5527ZM68.8857 40.7354L70.6572 33.0137L72.6201 24.5635H73.5752V43.4619H72.8457V26.751L71.0225 34.5801L69.0254 43.4619H68.1572V24.5635H68.8857V40.7354ZM80.0811 25.6973H76.0869V33.3105H79.4033V34.4453H76.0869V42.3281H80.0811V43.4619H75.2881V24.5635H80.0811V25.6973ZM82.4531 40.7354L84.0332 33.8506L86.1865 24.5635H87.1416V43.4619H86.4121V26.751L84.6758 34.2559L82.5918 43.4619H81.7236V24.5635H82.4531V40.7354ZM92.6445 40.7354L94.416 33.0137L96.3779 24.5635H97.334V43.4619H96.6045V26.751L94.7803 34.5801L92.7832 43.4619H91.915V24.5635H92.6445V40.7354ZM107.491 43.4619H106.675V25.6973H102.889V43.4619H102.09V24.5635H107.491V43.4619ZM111.739 24.5635C113.476 24.5635 114.344 26.0936 114.344 29.1533V31.2051C114.344 34.1926 113.406 35.6863 111.531 35.6865H110.02V43.4619H109.221V24.5635H111.739ZM123.654 34.5527L127.614 24.5635H128.447L124.975 33.3652L128.673 43.4619H127.84L124.488 34.5801L123.654 36.6318V43.4619H122.855V24.5635H123.654V34.5527ZM137.984 33.4463H141.771V24.5635H142.586V43.4619H141.771V34.5801H137.984V43.4619H137.186V24.5635H137.984V33.4463ZM167.661 32.3389H169.155C170.116 32.3389 170.828 32.7084 171.291 33.4463C171.754 34.1842 171.985 35.3088 171.985 36.8203V38.873C171.985 41.9325 171.111 43.4619 169.363 43.4619H166.862V24.5635H167.661V32.3389ZM179.194 25.6973H176.711V43.4619H175.912V25.6973H173.429V24.5635H179.194V25.6973ZM181.447 40.7354L183.219 33.0137L185.181 24.5635H186.136V43.4619H185.406V26.751L183.583 34.5801L181.586 43.4619H180.718V24.5635H181.447V40.7354ZM190.366 24.5635C192.103 24.5635 192.972 26.0936 192.972 29.1533V31.2051C192.972 34.1928 192.034 35.6865 190.158 35.6865H188.647V43.4619H187.849V24.5635H190.366ZM204.036 24.5635C204.927 24.5635 205.564 24.8967 205.946 25.5625C206.328 26.2284 206.519 27.2363 206.52 28.5859V29.666C206.52 30.7459 206.397 31.5922 206.154 32.2041C205.923 32.7979 205.512 33.1936 204.922 33.3916C206.137 33.7696 206.745 35.1198 206.745 37.4414V39.0889C206.745 42.0044 205.859 43.4619 204.088 43.4619H201.483V24.5635H204.036ZM214.75 43.4619H213.951L213.343 39.2773H209.558L208.949 43.4619H208.22L210.877 24.5371H212.04L214.75 43.4619ZM221.862 25.6973H219.379V43.4619H218.58V25.6973H216.097V24.5635H221.862V25.6973ZM224.184 32.3389H225.677C226.638 32.3389 227.35 32.7083 227.813 33.4463C228.276 34.1842 228.508 35.3089 228.508 36.8203V38.873C228.508 41.9324 227.634 43.4618 225.886 43.4619H223.385V24.5635H224.184V32.3389ZM242.316 43.4619H241.518V35.0117H240.25C239.497 35.0117 238.93 35.2552 238.548 35.7412C238.166 36.2092 237.975 37.037 237.975 38.2246V41.1943C237.975 42.238 237.888 42.9939 237.715 43.4619H236.881C237.078 42.9939 237.176 42.2381 237.176 41.1943V38.252C237.176 36.0743 237.761 34.7867 238.93 34.3906C237.761 33.9765 237.176 32.6719 237.176 30.4766V28.8291C237.176 25.9855 238.045 24.5635 239.781 24.5635H242.316V43.4619ZM276.184 43.4619H275.368V25.6973H271.582V43.4619H270.783V24.5635H276.184V43.4619ZM282.707 25.6973H278.713V33.3105H282.03V34.4453H278.713V42.3281H282.707V43.4619H277.914V24.5635H282.707V25.6973ZM293.329 40.7354L295.101 33.0137L297.063 24.5635H298.019V43.4619H297.289V26.751L295.466 34.5801L293.469 43.4619H292.6V24.5635H293.329V40.7354ZM306.087 43.4619H305.288L304.681 39.2773H300.895L300.287 43.4619H299.558L302.215 24.5371H303.378L306.087 43.4619ZM316.334 40.7354L318.104 33.0137L320.067 24.5635H321.022V43.4619H320.293V26.751L318.47 34.5801L316.473 43.4619H315.604V24.5635H316.334V40.7354ZM335.135 25.6973H332.651V43.4619H331.853V25.6973H329.369V24.5635H335.135V25.6973ZM347.318 41.2754L349.854 24.5635H351V43.4619H350.236V26.6699L347.7 43.4355H346.901L344.331 26.7236V43.4619H343.619V24.5635H344.766L347.318 41.2754ZM118.499 25.5352C117.862 25.5352 117.394 25.8599 117.093 26.5078C116.792 27.1378 116.641 28.0017 116.641 29.0996V38.9268C116.641 40.0244 116.792 40.897 117.093 41.5449C117.394 42.1748 117.862 42.4902 118.499 42.4902C119.147 42.4902 119.622 42.1749 119.923 41.5449C120.235 40.897 120.392 40.0244 120.392 38.9268V29.0996C120.392 28.0018 120.235 27.1378 119.923 26.5078C119.622 25.8599 119.147 25.5352 118.499 25.5352ZM132.829 25.5352C132.192 25.5352 131.723 25.8599 131.422 26.5078C131.121 27.1377 130.971 28.0019 130.971 29.0996V38.9268C130.971 40.0243 131.121 40.8971 131.422 41.5449C131.723 42.1749 132.192 42.4902 132.829 42.4902C133.477 42.4902 133.952 42.1748 134.253 41.5449C134.565 40.897 134.722 40.0244 134.722 38.9268V29.0996C134.722 28.0018 134.565 27.1377 134.253 26.5078C133.952 25.8599 133.477 25.5352 132.829 25.5352ZM197.127 25.5352C196.49 25.5352 196.021 25.8599 195.72 26.5078C195.419 27.1377 195.269 28.0019 195.269 29.0996V38.9268C195.269 40.0243 195.419 40.8971 195.72 41.5449C196.021 42.1749 196.49 42.4902 197.127 42.4902C197.775 42.4901 198.25 42.1748 198.551 41.5449C198.863 40.8971 199.02 40.0244 199.02 38.9268V29.0996C199.02 28.0018 198.863 27.1377 198.551 26.5078C198.25 25.86 197.775 25.5353 197.127 25.5352ZM256.54 25.5352C255.903 25.5352 255.435 25.8599 255.134 26.5078C254.833 27.1378 254.682 28.0017 254.682 29.0996V38.9268C254.682 40.0245 254.833 40.897 255.134 41.5449C255.435 42.1749 255.903 42.4902 256.54 42.4902C257.188 42.4902 257.663 42.1749 257.964 41.5449C258.276 40.897 258.433 40.0244 258.433 38.9268V29.0996C258.433 28.0018 258.276 27.1378 257.964 26.5078C257.663 25.8599 257.188 25.5352 256.54 25.5352ZM339.263 25.5352C338.626 25.5352 338.157 25.8599 337.856 26.5078C337.555 27.1378 337.404 28.0018 337.404 29.0996V38.9268C337.404 40.0244 337.556 40.897 337.856 41.5449C338.157 42.1748 338.626 42.4902 339.263 42.4902C339.911 42.4902 340.386 42.1749 340.687 41.5449C340.999 40.897 341.156 40.0245 341.156 38.9268V29.0996C341.156 28.0017 340.999 27.1378 340.687 26.5078C340.386 25.8599 339.911 25.5352 339.263 25.5352ZM167.661 42.3281H169.363C170.579 42.3281 171.187 41.2029 171.187 38.9531V36.7393C171.186 35.5876 171.024 34.7597 170.7 34.2559C170.376 33.7341 169.861 33.4727 169.155 33.4727H167.661V42.3281ZM202.282 42.3281H204.088C205.327 42.3281 205.946 41.2393 205.946 39.0615V37.3604C205.946 36.1546 205.772 35.2998 205.425 34.7959C205.078 34.2921 204.534 34.0401 203.793 34.04H202.282V42.3281ZM224.184 42.3281H225.886C227.101 42.328 227.709 41.2029 227.709 38.9531V36.7393C227.709 35.5876 227.547 34.7597 227.223 34.2559C226.898 33.734 226.383 33.4727 225.677 33.4727H224.184V42.3281ZM209.679 38.1973H213.222L211.433 25.9678L209.679 38.1973ZM301.016 38.1973H304.559L302.771 25.9678L301.016 38.1973ZM38.9219 34.5527H40.4336C41.1395 34.5526 41.6484 34.3006 41.9609 33.7969C42.2851 33.2749 42.4473 32.438 42.4473 31.2861V29.0723C42.4473 26.8225 41.8456 25.6973 40.6416 25.6973H38.9219V34.5527ZM110.02 34.5527H111.531C112.237 34.5526 112.746 34.3007 113.059 33.7969C113.383 33.2749 113.545 32.438 113.545 31.2861V29.0723C113.545 26.8226 112.943 25.6973 111.739 25.6973H110.02V34.5527ZM188.647 34.5527H190.158C190.864 34.5527 191.374 34.3008 191.687 33.7969C192.011 33.2749 192.173 32.438 192.173 31.2861V29.0723C192.173 26.8225 191.57 25.6973 190.366 25.6973H188.647V34.5527ZM239.799 25.6973C238.583 25.6973 237.975 26.7777 237.975 28.9375V30.7188C237.975 31.9245 238.16 32.7531 238.53 33.2031C238.901 33.6531 239.468 33.8779 240.232 33.8779H241.518V25.6973H239.799ZM202.282 32.9062H203.637C204.378 32.9062 204.91 32.6991 205.234 32.2852C205.559 31.8532 205.721 31.061 205.721 29.9092V28.6943C205.721 27.6687 205.593 26.9127 205.339 26.4268C205.084 25.9408 204.644 25.6973 204.019 25.6973H202.282V32.9062ZM83.3389 21C83.3504 21.5038 83.4657 21.8818 83.6855 22.1338C83.9055 22.3678 84.1838 22.4854 84.5195 22.4854C85.2951 22.4853 85.7006 21.9899 85.7354 21H86.2734C86.2619 21.7019 86.0937 22.2599 85.7695 22.6738C85.4454 23.0877 85.0288 23.2949 84.5195 23.2949C84.0101 23.2949 83.5927 23.0971 83.2686 22.7012C82.956 22.2872 82.7948 21.7199 82.7832 21H83.3389ZM231.926 17.3652H232.975V21H232.144V18.4629H226.104V21H225.291V17.3652H226.159C226.533 16.7899 226.744 15.8129 226.792 14.4355L227.298 0.157227H231.926V17.3652ZM29.416 0C30.3439 7.33972e-06 31.0371 0.418222 31.4951 1.25488C31.9652 2.09175 32.2002 3.2167 32.2002 4.62891V13.9912C32.2002 15.4034 31.9652 16.5284 31.4951 17.3652C31.0371 18.2019 30.344 18.6201 29.416 18.6201C28.4759 18.6201 27.7764 18.2021 27.3184 17.3652C26.8604 16.5284 26.6318 15.4034 26.6318 13.9912V9.85938H24.4443V18.4629H23.6123V0.157227H24.4443V8.76074H26.6318V4.62891C26.6318 3.2167 26.8604 2.09175 27.3184 1.25488C27.7764 0.418095 28.476 0 29.416 0ZM43.9961 0C44.9239 0.000107785 45.6107 0.427188 46.0566 1.28125C46.5026 2.11811 46.7256 3.23414 46.7256 4.62891V6.14551H45.9307V4.55078C45.9307 3.50475 45.7733 2.66768 45.46 2.04004C45.1586 1.41239 44.6766 1.09863 44.0137 1.09863C43.3509 1.09868 42.8631 1.41244 42.5498 2.04004C42.2485 2.66768 42.0977 3.50471 42.0977 4.55078V14.0693C42.0977 16.3532 42.7362 17.496 44.0137 17.4961C45.2912 17.4961 45.9307 16.3533 45.9307 14.0693V11.8994H46.7256V13.9912C46.7256 15.386 46.5026 16.5109 46.0566 17.3652C45.6107 18.2018 44.9238 18.62 43.9961 18.6201C43.0681 18.6201 42.3805 18.202 41.9346 17.3652C41.4886 16.5109 41.2656 15.386 41.2656 13.9912V4.62891C41.2656 3.23414 41.4886 2.11811 41.9346 1.28125C42.3805 0.427007 43.0681 0 43.9961 0ZM76.0303 0C76.9701 6.2902e-05 77.669 0.418366 78.127 1.25488C78.597 2.09175 78.832 3.2167 78.832 4.62891V13.9912C78.832 15.4034 78.597 16.5284 78.127 17.3652C77.669 18.2018 76.9701 18.6201 76.0303 18.6201C75.1144 18.6201 74.4212 18.2019 73.9512 17.3652C73.4932 16.5109 73.2637 15.386 73.2637 13.9912V4.62891C73.2637 3.23414 73.4932 2.11811 73.9512 1.28125C74.4212 0.427105 75.1144 0 76.0303 0ZM105.266 0C106.206 2.17304e-05 106.904 0.418366 107.362 1.25488C107.832 2.09175 108.067 3.2167 108.067 4.62891V13.9912C108.067 15.4034 107.832 16.5284 107.362 17.3652C106.904 18.2018 106.206 18.6201 105.266 18.6201C104.35 18.6201 103.657 18.2019 103.187 17.3652C102.729 16.5109 102.499 15.386 102.499 13.9912V4.62891C102.499 3.23414 102.729 2.11811 103.187 1.28125C103.657 0.427066 104.35 0 105.266 0ZM119.937 0C120.876 7.638e-05 121.575 0.418364 122.033 1.25488C122.503 2.09175 122.738 3.2167 122.738 4.62891V13.9912C122.738 15.4034 122.503 16.5284 122.033 17.3652C121.575 18.2018 120.876 18.62 119.937 18.6201C119.021 18.6201 118.327 18.2019 117.857 17.3652C117.399 16.5109 117.17 15.386 117.17 13.9912V4.62891C117.17 3.23414 117.399 2.11811 117.857 1.28125C118.327 0.42712 119.021 0 119.937 0ZM143.072 0C144 0.000135978 144.687 0.418366 145.133 1.25488C145.579 2.09175 145.802 3.2167 145.802 4.62891V5.09961C145.802 6.00621 145.651 6.79954 145.35 7.47949C145.048 8.14196 144.626 8.60373 144.084 8.86523C144.65 9.09188 145.079 9.5367 145.368 10.1992C145.657 10.8617 145.802 11.6551 145.802 12.5791V13.9912C145.802 15.4034 145.579 16.5284 145.133 17.3652C144.687 18.2018 144 18.62 143.072 18.6201C142.144 18.6201 141.457 18.2019 141.011 17.3652C140.565 16.5284 140.342 15.4034 140.342 13.9912V12.4746H141.138V14.0693C141.138 15.1154 141.289 15.9524 141.59 16.5801C141.903 17.2077 142.391 17.5215 143.054 17.5215C144.331 17.5215 144.97 16.336 144.97 13.9648V12.5527C144.97 11.6114 144.796 10.8616 144.446 10.3037C144.097 9.7458 143.62 9.4668 143.018 9.4668H142.312V8.36816H143.072C143.626 8.36801 144.078 8.08092 144.428 7.50586C144.789 6.91308 144.97 6.18926 144.97 5.33496V4.65527C144.97 2.28416 144.331 1.09863 143.054 1.09863C142.391 1.09864 141.903 1.41243 141.59 2.04004C141.276 2.65025 141.119 3.48727 141.119 4.55078V5.54395H140.36V4.60254C140.36 3.19043 140.577 2.07427 141.011 1.25488C141.457 0.418206 142.144 0 143.072 0ZM197.994 0C198.934 0 199.634 0.418199 200.092 1.25488C200.562 2.09175 200.797 3.2167 200.797 4.62891V13.9912C200.797 15.4034 200.562 16.5284 200.092 17.3652C199.634 18.2019 198.934 18.6201 197.994 18.6201C197.078 18.62 196.385 18.2019 195.915 17.3652C195.457 16.5109 195.229 15.386 195.229 13.9912V4.62891C195.229 3.23415 195.457 2.11811 195.915 1.28125C196.385 0.427081 197.078 0.000128245 197.994 0ZM220.919 0C221.859 8.31157e-05 222.558 0.418367 223.016 1.25488C223.486 2.09175 223.721 3.2167 223.721 4.62891V13.9912C223.721 15.4034 223.486 16.5284 223.016 17.3652C222.558 18.2018 221.859 18.62 220.919 18.6201C220.003 18.6201 219.31 18.2019 218.84 17.3652C218.382 16.5109 218.152 15.386 218.152 13.9912V4.62891C218.152 3.23414 218.382 2.11811 218.84 1.28125C219.31 0.42712 220.003 0 220.919 0ZM254.285 0C255.225 0 255.925 0.418171 256.383 1.25488C256.853 2.09175 257.088 3.2167 257.088 4.62891V13.9912C257.088 15.4034 256.853 16.5284 256.383 17.3652C255.925 18.202 255.225 18.6201 254.285 18.6201C253.369 18.62 252.676 18.2019 252.206 17.3652C251.748 16.5109 251.52 15.386 251.52 13.9912V4.62891C251.52 3.23414 251.748 2.11811 252.206 1.28125C252.676 0.427054 253.369 9.20937e-05 254.285 0ZM264.701 0C265.641 0 266.341 0.418115 266.799 1.25488C267.269 2.09175 267.504 3.2167 267.504 4.62891V13.9912C267.504 15.4034 267.269 16.5284 266.799 17.3652C266.341 18.202 265.641 18.6201 264.701 18.6201C263.785 18.6201 263.092 18.2019 262.622 17.3652C262.164 16.5109 261.936 15.386 261.936 13.9912V4.62891C261.936 3.23414 262.164 2.11811 262.622 1.28125C263.092 0.427049 263.785 3.50474e-05 264.701 0ZM271.931 0C272.858 0.00011942 273.545 0.418369 273.991 1.25488C274.437 2.09175 274.66 3.2167 274.66 4.62891V5.09961C274.66 6.00621 274.509 6.79954 274.208 7.47949C273.907 8.14195 273.485 8.60373 272.942 8.86523C273.509 9.09188 273.937 9.5367 274.227 10.1992C274.516 10.8617 274.66 11.6551 274.66 12.5791V13.9912C274.66 15.4034 274.437 16.5284 273.991 17.3652C273.545 18.2018 272.858 18.62 271.931 18.6201C271.003 18.6201 270.315 18.202 269.869 17.3652C269.423 16.5284 269.2 15.4034 269.2 13.9912V12.4746H269.996V14.0693C269.996 15.1154 270.147 15.9524 270.448 16.5801C270.762 17.2077 271.249 17.5215 271.912 17.5215C273.19 17.5215 273.828 16.336 273.828 13.9648V12.5527C273.828 11.6114 273.654 10.8616 273.305 10.3037C272.955 9.7458 272.479 9.4668 271.876 9.4668H271.171V8.36816H271.931C272.485 8.36803 272.937 8.08092 273.286 7.50586C273.648 6.91308 273.828 6.18926 273.828 5.33496V4.65527C273.828 2.28416 273.19 1.09863 271.912 1.09863C271.249 1.09866 270.762 1.41244 270.448 2.04004C270.135 2.65025 269.978 3.48727 269.978 4.55078V5.54395H269.219V4.60254C269.219 3.19043 269.435 2.07427 269.869 1.25488C270.315 0.418191 271.003 0 271.931 0ZM302.473 0C303.413 0 304.111 0.418357 304.569 1.25488C305.039 2.09175 305.274 3.2167 305.274 4.62891V13.9912C305.274 15.4034 305.039 16.5284 304.569 17.3652C304.111 18.2018 303.413 18.6201 302.473 18.6201C301.557 18.6201 300.864 18.2019 300.394 17.3652C299.936 16.5109 299.707 15.386 299.707 13.9912V4.62891C299.707 3.23414 299.936 2.11811 300.394 1.28125C300.864 0.427041 301.557 3.94155e-06 302.473 0ZM341.021 0C341.948 0.000148452 342.635 0.427187 343.081 1.28125C343.527 2.11811 343.75 3.23414 343.75 4.62891V6.14551H342.954V4.55078C342.954 3.50478 342.798 2.66767 342.484 2.04004C342.183 1.41239 341.701 1.09863 341.038 1.09863C340.375 1.09863 339.887 1.41239 339.573 2.04004C339.272 2.66765 339.122 3.50489 339.122 4.55078V14.0693C339.122 16.3533 339.761 17.4961 341.038 17.4961C342.316 17.4961 342.954 16.3533 342.954 14.0693V11.8994H343.75V13.9912C343.75 15.386 343.527 16.5109 343.081 17.3652C342.635 18.2018 341.948 18.62 341.021 18.6201C340.093 18.6201 339.405 18.2019 338.959 17.3652C338.513 16.5109 338.29 15.386 338.29 13.9912V4.62891C338.29 3.23414 338.513 2.11811 338.959 1.28125C339.405 0.427045 340.093 0 341.021 0ZM0.759766 15.8223L2.60352 8.34277L4.64648 0.157227H5.64062V18.4629H4.88086V2.27539L2.9834 9.85938L0.904297 18.4629H0V0.157227H0.759766V15.8223ZM11.2744 16.3447L13.9141 0.157227H15.1074V18.4629H14.3115V2.19629L11.6719 18.4375H10.8408L8.16504 2.24902V18.4629H7.42383V0.157227H8.61719L11.2744 16.3447ZM21.9023 1.25488H17.7441V8.62988H21.1973V9.72852H17.7441V17.3652H21.9023V18.4629H16.9131V0.157227H21.9023V1.25488ZM39.7344 1.25488H37.1494V18.4629H36.3174V1.25488H33.7324V0.157227H39.7344V1.25488ZM53.9756 18.4629H53.1445V10.2773H51.8242C51.041 10.2774 50.4505 10.5129 50.0527 10.9834C49.655 11.4367 49.4561 12.239 49.4561 13.3896V16.2666C49.456 17.2776 49.3653 18.0096 49.1846 18.4629H48.3174C48.5221 18.0096 48.624 17.2774 48.624 16.2666V13.416C48.624 11.3064 49.2329 10.0593 50.4502 9.67578C49.233 9.2747 48.624 8.01067 48.624 5.88379V4.28906C48.624 1.53452 49.5282 0.157349 51.3359 0.157227H53.9756V18.4629ZM64.5703 18.4629H63.7207V1.25488H59.7793V18.4629H58.9473V0.157227H64.5703V18.4629ZM68.9932 0.157227C70.8007 0.15747 71.7041 1.63903 71.7041 4.60254V6.58984C71.7041 9.48399 70.7279 10.9316 68.7754 10.9316H67.2031V18.4629H66.3711V0.157227H68.9932ZM86.3506 1.25488H83.7656V18.4629H82.9336V1.25488H80.3486V0.157227H86.3506V1.25488ZM88.6953 15.8223L90.5391 8.34277L92.582 0.157227H93.5762V18.4629H92.8174V2.27539L90.9189 9.85938L88.8398 18.4629H87.9355V0.157227H88.6953V15.8223ZM98.0176 0.157227C98.9454 0.157314 99.6082 0.480007 100.006 1.125C100.403 1.77008 100.603 2.74634 100.603 4.05371V5.09961C100.603 6.14557 100.476 6.96485 100.223 7.55762C99.9816 8.13293 99.5541 8.51719 98.9395 8.70898C100.205 9.07524 100.838 10.383 100.838 12.6318V14.2266C100.838 17.051 99.9153 18.4629 98.0713 18.4629H95.3594V0.157227H98.0176ZM115.423 18.4629H114.573V1.25488H110.633V18.4629H109.801V0.157227H115.423V18.4629ZM125.303 9.83301L129.425 0.157227H130.293L126.677 8.68262L130.528 18.4629H129.66L126.171 9.85938L125.303 11.8467V18.4629H124.472V0.157227H125.303V9.83301ZM138.759 18.4629H137.928L137.295 14.4102H133.354L132.721 18.4629H131.962L134.728 0.130859H135.938L138.759 18.4629ZM154.189 18.4629H153.357L152.725 14.4102H148.783L148.15 18.4629H147.392L150.157 0.130859H151.369L154.189 18.4629ZM156.64 8.76074H160.581V0.157227H161.431V18.4629H160.581V9.85938H156.64V18.4629H155.808V0.157227H156.64V8.76074ZM163.991 15.8223L165.835 8.34277L167.878 0.157227H168.872V18.4629H168.113V2.27539L166.215 9.85938L164.136 18.4629H163.231V0.157227H163.991V15.8223ZM176.188 18.4629H175.355V10.2773H174.036C173.253 10.2773 172.662 10.513 172.265 10.9834C171.867 11.4367 171.668 12.239 171.668 13.3896V16.2666C171.668 17.2775 171.577 18.0096 171.396 18.4629H170.528C170.733 18.0096 170.836 17.2776 170.836 16.2666V13.416C170.836 11.3064 171.445 10.0593 172.662 9.67578C171.445 9.27478 170.836 8.01081 170.836 5.88379V4.28906C170.836 1.53439 171.74 0.157227 173.548 0.157227H176.188V18.4629ZM181.991 8.76074H185.933V0.157227H186.782V18.4629H185.933V9.85938H181.991V18.4629H181.159V0.157227H181.991V8.76074ZM193.572 1.25488H189.415V8.62988H192.867V9.72852H189.415V17.3652H193.572V18.4629H188.583V0.157227H193.572V1.25488ZM207.646 1.25488H203.361V7.9502H205.169C206.169 7.9502 206.91 8.27295 207.393 8.91797C207.875 9.56305 208.116 10.6006 208.116 12.0303V14.0957C208.116 17.0073 207.182 18.4629 205.313 18.4629H202.529V0.157227H207.646V1.25488ZM213.173 8.02832L215.578 0.157227H216.373L213.716 8.96973L216.554 18.4629H215.668L213.101 9.9375L210.533 18.4629H209.72L212.576 8.96973L209.919 0.157227H210.787L213.173 8.02832ZM235.42 15.8223L237.264 8.34277L239.307 0.157227H240.302V18.4629H239.542V2.27539L237.644 9.85938L235.564 18.4629H234.661V0.157227H235.42V15.8223ZM245.936 16.3447L248.574 0.157227H249.768V18.4629H248.973V2.19629L246.333 18.4375H245.501L242.825 2.24902V18.4629H242.084V0.157227H243.277L245.936 16.3447ZM277.263 8.76074H281.203V0.157227H282.053V18.4629H281.203V9.85938H277.263V18.4629H276.431V0.157227H277.263V8.76074ZM290.471 18.4629H289.64L289.007 14.4102H285.065L284.433 18.4629H283.674L286.439 0.130859H287.65L290.471 18.4629ZM292.922 9.83301L297.044 0.157227H297.911L294.296 8.68262L298.146 18.4629H297.278L293.789 9.85938L292.922 11.8467V18.4629H292.09V0.157227H292.922V9.83301ZM310.858 16.3447L313.498 0.157227H314.691V18.4629H313.896V2.19629L311.257 18.4375H310.425L307.749 2.24902V18.4629H307.008V0.157227H308.201L310.858 16.3447ZM317.257 15.8223L319.101 8.34277L321.144 0.157227H322.138V18.4629H321.379V2.27539L319.48 9.85938L317.401 18.4629H316.497V0.157227H317.257V15.8223ZM329.706 1.25488H327.121V18.4629H326.289V1.25488H323.704V0.157227H329.706V1.25488ZM332.123 7.68848H333.678C334.678 7.68848 335.419 8.04607 335.901 8.76074C336.383 9.47556 336.625 10.5658 336.625 12.0303V14.0176C336.625 16.9814 335.714 18.4629 333.895 18.4629H331.292V0.157227H332.123V7.68848ZM351 18.4629H350.168V10.2773H348.849C348.065 10.2773 347.475 10.5129 347.077 10.9834C346.679 11.4367 346.48 12.239 346.48 13.3896V16.2666C346.48 17.2775 346.39 18.0096 346.209 18.4629H345.342C345.547 18.0096 345.648 17.2774 345.648 16.2666V13.416C345.648 11.3064 346.257 10.0593 347.475 9.67578C346.257 9.27474 345.648 8.01074 345.648 5.88379V4.28906C345.648 1.53447 346.553 0.157302 348.36 0.157227H351V18.4629ZM29.416 1.09863C28.1143 1.09863 27.4639 2.24941 27.4639 4.55078V14.0693C27.4639 16.3707 28.1143 17.5215 29.416 17.5215C30.0789 17.5215 30.5675 17.2166 30.8809 16.6064C31.2062 15.9788 31.3682 15.1327 31.3682 14.0693V4.55078C31.3682 3.48747 31.2062 2.65022 30.8809 2.04004C30.5675 1.4124 30.0789 1.09864 29.416 1.09863ZM76.0303 1.09863C75.3674 1.09863 74.8788 1.41239 74.5654 2.04004C74.2521 2.65023 74.0957 3.48741 74.0957 4.55078V14.0693C74.0957 15.1328 74.2521 15.9788 74.5654 16.6064C74.8788 17.2167 75.3674 17.5215 76.0303 17.5215C76.7051 17.5214 77.1994 17.2166 77.5127 16.6064C77.8381 15.9788 78.001 15.1328 78.001 14.0693V4.55078C78.001 3.4874 77.838 2.65023 77.5127 2.04004C77.1994 1.41246 76.7051 1.0987 76.0303 1.09863ZM105.266 1.09863C104.603 1.09863 104.114 1.41239 103.801 2.04004C103.488 2.65022 103.331 3.48745 103.331 4.55078V14.0693C103.331 15.1327 103.487 15.9788 103.801 16.6064C104.114 17.2167 104.603 17.5215 105.266 17.5215C105.941 17.5215 106.435 17.2166 106.748 16.6064C107.073 15.9788 107.236 15.1328 107.236 14.0693V4.55078C107.236 3.48736 107.073 2.65024 106.748 2.04004C106.435 1.41242 105.941 1.09866 105.266 1.09863ZM119.937 1.09863C119.274 1.09863 118.785 1.41239 118.472 2.04004C118.158 2.65023 118.002 3.4874 118.002 4.55078V14.0693C118.002 15.1328 118.158 15.9788 118.472 16.6064C118.785 17.2167 119.274 17.5215 119.937 17.5215C120.611 17.5214 121.106 17.2166 121.419 16.6064C121.744 15.9788 121.907 15.1328 121.907 14.0693V4.55078C121.907 3.48741 121.744 2.65023 121.419 2.04004C121.106 1.41247 120.611 1.09871 119.937 1.09863ZM197.994 1.09863C197.331 1.09876 196.844 1.41252 196.53 2.04004C196.217 2.65024 196.061 3.48733 196.061 4.55078V14.0693C196.061 15.1328 196.217 15.9788 196.53 16.6064C196.844 17.2165 197.331 17.5214 197.994 17.5215C198.669 17.5215 199.163 17.2166 199.477 16.6064C199.802 15.9788 199.965 15.1328 199.965 14.0693V4.55078C199.965 3.48727 199.802 2.65025 199.477 2.04004C199.163 1.41241 198.669 1.09863 197.994 1.09863ZM220.919 1.09863C220.256 1.09863 219.767 1.41239 219.454 2.04004C219.141 2.65023 218.984 3.4874 218.984 4.55078V14.0693C218.984 15.1328 219.141 15.9788 219.454 16.6064C219.767 17.2167 220.256 17.5215 220.919 17.5215C221.594 17.5214 222.088 17.2166 222.401 16.6064C222.727 15.9788 222.89 15.1328 222.89 14.0693V4.55078C222.89 3.48741 222.727 2.65023 222.401 2.04004C222.088 1.41248 221.594 1.09872 220.919 1.09863ZM254.285 1.09863C253.622 1.09873 253.135 1.41249 252.821 2.04004C252.508 2.65025 252.351 3.4873 252.351 4.55078V14.0693C252.351 15.1328 252.508 15.9788 252.821 16.6064C253.135 17.2165 253.622 17.5214 254.285 17.5215C254.96 17.5215 255.454 17.2166 255.768 16.6064C256.093 15.9788 256.256 15.1328 256.256 14.0693V4.55078C256.256 3.48727 256.093 2.65025 255.768 2.04004C255.454 1.41239 254.96 1.09863 254.285 1.09863ZM264.701 1.09863C264.038 1.09867 263.551 1.41244 263.237 2.04004C262.924 2.65025 262.767 3.48727 262.767 4.55078V14.0693C262.767 15.1328 262.924 15.9788 263.237 16.6064C263.551 17.2165 264.038 17.5214 264.701 17.5215C265.376 17.5215 265.87 17.2166 266.184 16.6064C266.509 15.9788 266.672 15.1328 266.672 14.0693V4.55078C266.672 3.48732 266.509 2.65024 266.184 2.04004C265.87 1.41239 265.376 1.09863 264.701 1.09863ZM302.473 1.09863C301.81 1.09864 301.321 1.4124 301.008 2.04004C300.695 2.65022 300.538 3.48747 300.538 4.55078V14.0693C300.538 15.1327 300.695 15.9788 301.008 16.6064C301.321 17.2167 301.81 17.5215 302.473 17.5215C303.148 17.5215 303.642 17.2167 303.955 16.6064C304.28 15.9788 304.443 15.1328 304.443 14.0693V4.55078C304.443 3.48735 304.28 2.65024 303.955 2.04004C303.642 1.41239 303.148 1.09863 302.473 1.09863ZM96.1914 17.3652H98.0713C99.3609 17.3652 100.006 16.3098 100.006 14.2002V12.5527C100.006 11.3848 99.8254 10.5565 99.4639 10.0684C99.1023 9.58019 98.535 9.33594 97.7637 9.33594H96.1914V17.3652ZM203.361 17.3652H205.313C206.627 17.3652 207.284 16.3015 207.284 14.1748V11.9512C207.284 10.8704 207.116 10.1205 206.778 9.70215C206.441 9.2838 205.904 9.0752 205.169 9.0752H203.361V17.3652ZM227.605 14.4355C227.545 15.8652 227.346 16.8422 227.009 17.3652H231.076V1.25488H228.075L227.605 14.4355ZM332.123 17.3652H333.895C335.16 17.3652 335.793 16.275 335.793 14.0957V11.9512C335.793 10.8358 335.624 10.0341 335.287 9.5459C334.95 9.04029 334.413 8.78711 333.678 8.78711H332.123V17.3652ZM133.48 13.3633H137.168L135.306 1.5166L133.48 13.3633ZM148.91 13.3633H152.598L150.736 1.5166L148.91 13.3633ZM285.192 13.3633H288.88L287.019 1.5166L285.192 13.3633ZM67.2031 9.83301H68.7754C69.5106 9.83301 70.0418 9.58876 70.3672 9.10059C70.7045 8.59498 70.873 7.78435 70.873 6.66895V4.52441C70.873 2.34534 70.2463 1.25514 68.9932 1.25488H67.2031V9.83301ZM51.3545 1.25488C50.089 1.25488 49.4561 2.3014 49.4561 4.39355V6.11914C49.4561 7.28705 49.6486 8.08947 50.0342 8.52539C50.4199 8.96126 51.0112 9.17969 51.8066 9.17969H53.1445V1.25488H51.3545ZM173.565 1.25488C172.3 1.25515 171.668 2.30167 171.668 4.39355V6.11914C171.668 7.28717 171.86 8.0895 172.246 8.52539C172.632 8.9612 173.222 9.17963 174.018 9.17969H175.355V1.25488H173.565ZM348.379 1.25488C347.113 1.25488 346.48 2.3014 346.48 4.39355V6.11914C346.48 7.2871 346.673 8.08948 347.059 8.52539C347.444 8.96117 348.035 9.1796 348.83 9.17969H350.168V1.25488H348.379ZM96.1914 8.23828H97.6016C98.3727 8.23825 98.9272 8.03755 99.2646 7.63672C99.6021 7.21829 99.7705 6.45078 99.7705 5.33496V4.1582C99.7705 3.16443 99.6382 2.43167 99.373 1.96094C99.1079 1.49045 98.6497 1.25488 97.999 1.25488H96.1914V8.23828Z" fill="#686868" />
</svg>