<svg width="1858" height="66" viewBox="0 0 1858 66" fill="none" xmlns="http://www.w3.org/2000/svg">
  <g clip-path="url(#clip0_6106_1317)">
    <g opacity="0.7">
      <path d="M12.6597 16.8077L7.73648 36.4939L2.34439 58.8276H0L0 11.3092H1.96929L1.96929 51.9713L6.75184 32.5567L12.0502 11.3092H14.629L14.629 58.8276H12.6597L12.6597 16.8077Z" fill="#686868" />
      <path d="M37.1175 16.6041L30.2719 58.7597H28.1151L21.1757 16.7398L21.1757 58.8276H19.2533L19.2533 11.3092H22.3479L29.2404 53.329L36.086 11.3092L39.1806 11.3092L39.1806 58.8276H37.1175L37.1175 16.6041Z" fill="#686868" />
      <path d="M46.0207 33.3034H54.9763V36.1545H46.0207V55.9765H56.8049V58.8276H43.8639L43.8639 11.3092L56.8049 11.3092V14.1603L46.0207 14.1603L46.0207 33.3034Z" fill="#686868" />
      <path d="M76.2908 10.9019C78.6977 10.9019 80.4951 11.988 81.6829 14.1603C82.902 16.3325 83.5115 19.2515 83.5115 22.9172V47.2195C83.5115 50.8852 82.902 53.8042 81.6829 55.9765C80.4951 58.1487 78.6977 59.2349 76.2908 59.2349C73.8526 59.2349 72.0396 58.1487 70.8518 55.9765C69.664 53.8042 69.0701 50.8852 69.0701 47.2195V36.4939H63.3967V58.8276H61.2398L61.2398 11.3092H63.3967L63.3967 33.6428H69.0701V22.9172C69.0701 19.2515 69.664 16.3325 70.8518 14.1603C72.0396 11.988 73.8526 10.9019 76.2908 10.9019ZM76.2908 13.753C72.9149 13.753 71.2269 16.7398 71.2269 22.7136V47.4231C71.2269 53.3969 72.9149 56.3838 76.2908 56.3838C78.01 56.3838 79.276 55.5918 80.0887 54.0078C80.9327 52.3786 81.3547 50.1837 81.3547 47.4231V22.7136C81.3547 19.953 80.9327 17.7807 80.0887 16.1968C79.276 14.5676 78.01 13.753 76.2908 13.753Z" fill="#686868" />
      <path d="M96.3474 58.8276H94.1906L94.1906 14.1603H87.4856V11.3092L103.052 11.3092V14.1603H96.3474L96.3474 58.8276Z" fill="#686868" />
      <path d="M108.758 14.2281C109.915 12.0106 111.697 10.9019 114.104 10.9019C116.51 10.9019 118.292 12.0106 119.449 14.2281C120.605 16.4004 121.184 19.2968 121.184 22.9172V26.8545H119.121V22.7136C119.121 19.9982 118.714 17.826 117.901 16.1968C117.12 14.5676 115.87 13.753 114.15 13.753C112.431 13.753 111.165 14.5676 110.353 16.1968C109.571 17.826 109.18 19.9982 109.18 22.7136V47.4231C109.18 53.3516 110.837 56.3159 114.15 56.3159C117.464 56.3159 119.121 53.3516 119.121 47.4231V41.7888H121.184V47.2195C121.184 50.8399 120.605 53.7589 119.449 55.9765C118.292 58.1487 116.51 59.2349 114.104 59.2349C111.697 59.2349 109.915 58.1487 108.758 55.9765C107.602 53.7589 107.024 50.8399 107.024 47.2195V22.9172C107.024 19.2968 107.602 16.4004 108.758 14.2281Z" fill="#686868" />
      <path d="M137.83 37.58H134.407C132.375 37.58 130.844 38.191 129.812 39.4129C128.781 40.5895 128.265 42.6713 128.265 45.6582V53.1254C128.265 55.7502 128.03 57.6509 127.561 58.8276H125.311C125.842 57.6509 126.108 55.7502 126.108 53.1254V45.7261C126.108 40.2501 127.687 37.0144 130.844 36.0187C127.687 34.9778 126.108 31.6968 126.108 26.1756V22.0347C126.108 14.8843 128.452 11.3092 133.141 11.3092L139.987 11.3092V58.8276H137.83V37.58ZM137.83 14.1603H133.188C129.906 14.1603 128.265 16.8756 128.265 22.3063V26.7866C128.265 29.8187 128.765 31.9005 129.765 33.0319C130.765 34.1632 132.297 34.7289 134.36 34.7289H137.83V14.1603Z" fill="#686868" />
      <path d="M165.26 14.1603L155.038 14.1603V58.8276L152.882 58.8276V11.3092L167.464 11.3092V58.8276H165.26V14.1603Z" fill="#686868" />
      <path d="M172.135 11.3092H178.934C183.622 11.3092 185.967 15.1559 185.967 22.8493V28.0085C185.967 35.5209 183.435 39.2771 178.371 39.2771H174.292V58.8276H172.135V11.3092ZM174.292 36.426H178.371C180.278 36.426 181.653 35.7924 182.497 34.5253C183.372 33.2129 183.81 31.1085 183.81 28.2121V22.6457C183.81 16.9887 182.184 14.1603 178.934 14.1603H174.292V36.426Z" fill="#686868" />
      <path d="M190.011 47.2195V22.9172C190.011 19.2968 190.605 16.4004 191.793 14.2281C193.012 12.0106 194.809 10.9019 197.185 10.9019C199.623 10.9019 201.436 11.988 202.624 14.1603C203.843 16.3325 204.453 19.2515 204.453 22.9172V47.2195C204.453 50.8852 203.843 53.8042 202.624 55.9765C201.436 58.1487 199.623 59.2349 197.185 59.2349C194.809 59.2349 193.012 58.1487 191.793 55.9765C190.605 53.7589 190.011 50.8399 190.011 47.2195ZM192.168 22.7136V47.4231C192.168 50.1837 192.574 52.3786 193.387 54.0078C194.2 55.5918 195.466 56.3838 197.185 56.3838C198.936 56.3838 200.217 55.5918 201.03 54.0078C201.874 52.3786 202.296 50.1837 202.296 47.4231V22.7136C202.296 19.953 201.874 17.7807 201.03 16.1968C200.217 14.5676 198.936 13.753 197.185 13.753C195.466 13.753 194.2 14.5676 193.387 16.1968C192.574 17.7807 192.168 19.953 192.168 22.7136Z" fill="#686868" />
      <path d="M217.246 58.8276H215.09V14.1603L208.385 14.1603V11.3092L223.951 11.3092V14.1603H217.246V58.8276Z" fill="#686868" />
      <path d="M240.723 16.8077L235.8 36.4939L230.408 58.8276H228.063V11.3092H230.033V51.9713L234.815 32.5567L240.113 11.3092H242.692V58.8276H240.723V16.8077Z" fill="#686868" />
      <path d="M247.317 11.3092L254.209 11.3092C256.616 11.3092 258.335 12.1464 259.367 13.8208C260.398 15.4953 260.914 18.0296 260.914 21.4238V24.1391C260.914 26.8545 260.586 28.9815 259.929 30.5202C259.304 32.0136 258.194 33.0092 256.6 33.507C259.882 34.4574 261.523 37.8516 261.523 43.6896V47.8304C261.523 55.1619 259.132 58.8276 254.35 58.8276H247.317V11.3092ZM249.473 32.2851H253.131C255.131 32.2851 256.569 31.7647 257.444 30.7238C258.32 29.6377 258.757 27.6464 258.757 24.7501V21.6953C258.757 19.1158 258.413 17.215 257.726 15.9931C257.038 14.7712 255.85 14.1603 254.162 14.1603L249.473 14.1603V32.2851ZM249.473 55.9765H254.35C257.694 55.9765 259.367 53.2385 259.367 47.7626V43.4859C259.367 40.4538 258.898 38.3041 257.96 37.037C257.022 35.7698 255.553 35.1362 253.553 35.1362H249.473V55.9765Z" fill="#686868" />
      <path d="M265.834 47.2195V22.9172C265.834 19.2968 266.428 16.4004 267.616 14.2281C268.835 12.0106 270.632 10.9019 273.008 10.9019C275.446 10.9019 277.259 11.988 278.447 14.1603C279.666 16.3325 280.275 19.2515 280.275 22.9172V47.2195C280.275 50.8852 279.666 53.8042 278.447 55.9765C277.259 58.1487 275.446 59.2349 273.008 59.2349C270.632 59.2349 268.835 58.1487 267.616 55.9765C266.428 53.7589 265.834 50.8399 265.834 47.2195ZM267.991 22.7136V47.4231C267.991 50.1837 268.397 52.3786 269.21 54.0078C270.023 55.5918 271.289 56.3838 273.008 56.3838C274.758 56.3838 276.04 55.5918 276.853 54.0078C277.697 52.3786 278.118 50.1837 278.118 47.4231V22.7136C278.118 19.953 277.697 17.7807 276.853 16.1968C276.04 14.5676 274.758 13.753 273.008 13.753C271.289 13.753 270.023 14.5676 269.21 16.1968C268.397 17.7807 267.991 19.953 267.991 22.7136Z" fill="#686868" />
      <path d="M297.148 14.1603L286.927 14.1603V58.8276H284.77V11.3092L299.352 11.3092V58.8276H297.148V14.1603Z" fill="#686868" />
      <path d="M303.883 47.2195V22.9172C303.883 19.2968 304.476 16.4004 305.664 14.2281C306.883 12.0106 308.681 10.9019 311.056 10.9019C313.495 10.9019 315.308 11.988 316.495 14.1603C317.714 16.3325 318.324 19.2515 318.324 22.9172V47.2195C318.324 50.8852 317.714 53.8042 316.495 55.9765C315.308 58.1487 313.495 59.2349 311.056 59.2349C308.681 59.2349 306.883 58.1487 305.664 55.9765C304.476 53.7589 303.883 50.8399 303.883 47.2195ZM306.039 22.7136V47.4231C306.039 50.1837 306.446 52.3786 307.259 54.0078C308.071 55.5918 309.337 56.3838 311.056 56.3838C312.807 56.3838 314.089 55.5918 314.901 54.0078C315.745 52.3786 316.167 50.1837 316.167 47.4231V22.7136C316.167 19.953 315.745 17.7807 314.901 16.1968C314.089 14.5676 312.807 13.753 311.056 13.753C309.337 13.753 308.071 14.5676 307.259 16.1968C306.446 17.7807 306.039 19.953 306.039 22.7136Z" fill="#686868" />
      <path d="M336.275 58.8276L327.226 36.4939L324.975 41.6531V58.8276H322.819V11.3092H324.975V36.426L335.666 11.3092L337.917 11.3092L328.539 33.4392L338.526 58.8276H336.275Z" fill="#686868" />
      <path d="M356.076 48.3056H345.854L344.213 58.8276H342.244L349.418 11.2413H352.559L359.874 58.8276H357.717L356.076 48.3056ZM350.918 14.8391L346.183 45.5903H355.748L350.918 14.8391Z" fill="#686868" />
      <path d="M365.714 14.1603C366.87 11.988 368.652 10.9019 371.059 10.9019C373.466 10.9019 375.247 11.988 376.404 14.1603C377.561 16.3325 378.139 19.2515 378.139 22.9172V24.1391C378.139 26.4924 377.748 28.5515 376.967 30.3165C376.185 32.0362 375.091 33.2355 373.685 33.9143C375.154 34.5027 376.263 35.6567 377.014 37.3764C377.764 39.0961 378.139 41.1552 378.139 43.5538V47.2195C378.139 50.8852 377.561 53.8042 376.404 55.9765C375.247 58.1487 373.466 59.2349 371.059 59.2349C368.652 59.2349 366.87 58.1487 365.714 55.9765C364.557 53.8042 363.979 50.8852 363.979 47.2195V43.2823H366.042V47.4231C366.042 50.1385 366.433 52.3107 367.214 53.94C368.027 55.5692 369.293 56.3838 371.012 56.3838C374.325 56.3838 375.982 53.3064 375.982 47.1516V43.4859C375.982 41.0421 375.529 39.0961 374.622 37.6479C373.716 36.1998 372.481 35.4757 370.918 35.4757H369.09V32.6246H371.059C372.497 32.6246 373.669 31.8778 374.575 30.3844C375.513 28.8457 375.982 26.9676 375.982 24.7501V22.9851C375.982 16.8303 374.325 13.753 371.012 13.753C369.293 13.753 368.027 14.5676 367.214 16.1968C366.401 17.7807 365.995 19.953 365.995 22.7136V25.2931H364.026V22.8493C364.026 19.1836 364.588 16.2873 365.714 14.1603Z" fill="#686868" />
      <path d="M396.094 48.3056H385.872L384.231 58.8276H382.262L389.436 11.2413L392.577 11.2413L399.891 58.8276H397.735L396.094 48.3056ZM390.936 14.8391L386.2 45.5903H395.765L390.936 14.8391Z" fill="#686868" />
      <path d="M416.469 36.4939L406.247 36.4939V58.8276H404.09V11.3092H406.247V33.6428L416.469 33.6428V11.3092H418.672V58.8276H416.469V36.4939Z" fill="#686868" />
      <path d="M436.003 16.8077L431.08 36.4939L425.688 58.8276H423.344V11.3092H425.313V51.9713L430.095 32.5567L435.394 11.3092L437.973 11.3092V58.8276H436.003V16.8077Z" fill="#686868" />
      <path d="M454.788 37.58H451.365C449.333 37.58 447.801 38.191 446.77 39.4129C445.738 40.5895 445.223 42.6713 445.223 45.6582V53.1254C445.223 55.7502 444.988 57.6509 444.519 58.8276H442.269C442.8 57.6509 443.066 55.7502 443.066 53.1254V45.7261C443.066 40.2501 444.644 37.0144 447.801 36.0187C444.644 34.9778 443.066 31.6968 443.066 26.1756V22.0347C443.066 14.8843 445.41 11.3092 450.099 11.3092H456.944V58.8276H454.788V37.58ZM454.788 14.1603H450.146C446.864 14.1603 445.223 16.8756 445.223 22.3063V26.7866C445.223 29.8187 445.723 31.9005 446.723 33.0319C447.723 34.1632 449.255 34.7289 451.318 34.7289H454.788V14.1603Z" fill="#686868" />
      <path d="M482.218 36.4939L471.996 36.4939V58.8276H469.839V11.3092H471.996V33.6428L482.218 33.6428V11.3092H484.421V58.8276H482.218V36.4939Z" fill="#686868" />
      <path d="M491.249 33.3034L500.205 33.3034V36.1545L491.249 36.1545V55.9765H502.034V58.8276H489.093V11.3092L502.034 11.3092V14.1603L491.249 14.1603V33.3034Z" fill="#686868" />
      <path d="M506.328 47.2195V22.9172C506.328 19.2968 506.922 16.4004 508.11 14.2281C509.329 12.0106 511.126 10.9019 513.502 10.9019C515.94 10.9019 517.753 11.988 518.941 14.1603C520.16 16.3325 520.769 19.2515 520.769 22.9172V47.2195C520.769 50.8852 520.16 53.8042 518.941 55.9765C517.753 58.1487 515.94 59.2349 513.502 59.2349C511.126 59.2349 509.329 58.1487 508.11 55.9765C506.922 53.7589 506.328 50.8399 506.328 47.2195ZM508.485 22.7136V47.4231C508.485 50.1837 508.891 52.3786 509.704 54.0078C510.517 55.5918 511.783 56.3838 513.502 56.3838C515.252 56.3838 516.534 55.5918 517.346 54.0078C518.19 52.3786 518.612 50.1837 518.612 47.4231V22.7136C518.612 19.953 518.19 17.7807 517.346 16.1968C516.534 14.5676 515.252 13.753 513.502 13.753C511.783 13.753 510.517 14.5676 509.704 16.1968C508.891 17.7807 508.485 19.953 508.485 22.7136Z" fill="#686868" />
      <path d="M527.421 31.5384H532.11C534.704 31.5384 536.626 32.3756 537.877 34.0501C539.127 35.7246 539.752 38.4173 539.752 42.1282V47.491C539.752 55.0487 537.33 58.8276 532.485 58.8276H525.264V11.3092L538.533 11.3092V14.1603L527.421 14.1603V31.5384ZM527.421 55.9765H532.485C535.892 55.9765 537.595 53.2159 537.595 47.6947V41.9246C537.595 39.1187 537.158 37.1727 536.283 36.0866C535.407 35.0005 534.016 34.4574 532.11 34.4574H527.421V55.9765Z" fill="#686868" />
      <path d="M559.338 58.8276L552.68 36.6976L546.022 58.8276H543.912L551.32 34.1859L544.428 11.3092L546.678 11.3092L552.868 31.7421L559.104 11.3092H561.167L554.274 34.1859L561.636 58.8276H559.338Z" fill="#686868" />
      <path d="M565.782 47.2195V22.9172C565.782 19.2968 566.376 16.4004 567.564 14.2281C568.783 12.0106 570.58 10.9019 572.956 10.9019C575.394 10.9019 577.207 11.988 578.395 14.1603C579.614 16.3325 580.223 19.2515 580.223 22.9172V47.2195C580.223 50.8852 579.614 53.8042 578.395 55.9765C577.207 58.1487 575.394 59.2349 572.956 59.2349C570.58 59.2349 568.783 58.1487 567.564 55.9765C566.376 53.7589 565.782 50.8399 565.782 47.2195ZM567.939 22.7136V47.4231C567.939 50.1837 568.345 52.3786 569.158 54.0078C569.971 55.5918 571.237 56.3838 572.956 56.3838C574.706 56.3838 575.988 55.5918 576.801 54.0078C577.645 52.3786 578.067 50.1837 578.067 47.4231V22.7136C578.067 19.953 577.645 17.7807 576.801 16.1968C575.988 14.5676 574.706 13.753 572.956 13.753C571.237 13.753 569.971 14.5676 569.158 16.1968C568.345 17.7807 567.939 19.953 567.939 22.7136Z" fill="#686868" />
      <path d="M604.223 65.4122H602.066V58.8276L586.406 58.8276V65.4122H584.296V55.9765H586.547C587.516 54.483 588.063 51.9487 588.188 48.3735L589.501 11.3092L601.504 11.3092V55.9765H604.223V65.4122ZM591.517 14.1603L590.298 48.3735C590.141 52.0845 589.626 54.6188 588.75 55.9765L599.3 55.9765V14.1603H591.517Z" fill="#686868" />
      <path d="M621.256 16.8077L616.333 36.4939L610.94 58.8276H608.596V11.3092H610.565V51.9713L615.348 32.5567L620.646 11.3092H623.225V58.8276H621.256V16.8077Z" fill="#686868" />
      <path d="M645.714 16.6041L638.868 58.7597H636.711L629.772 16.7398V58.8276H627.849V11.3092H630.944L637.836 53.329L644.682 11.3092L647.777 11.3092V58.8276H645.714V16.6041Z" fill="#686868" />
      <path d="M652.319 47.2195V22.9172C652.319 19.2968 652.913 16.4004 654.101 14.2281C655.32 12.0106 657.117 10.9019 659.493 10.9019C661.931 10.9019 663.744 11.988 664.932 14.1603C666.151 16.3325 666.761 19.2515 666.761 22.9172V47.2195C666.761 50.8852 666.151 53.8042 664.932 55.9765C663.744 58.1487 661.931 59.2349 659.493 59.2349C657.117 59.2349 655.32 58.1487 654.101 55.9765C652.913 53.7589 652.319 50.8399 652.319 47.2195ZM654.476 22.7136V47.4231C654.476 50.1837 654.882 52.3786 655.695 54.0078C656.508 55.5918 657.774 56.3838 659.493 56.3838C661.243 56.3838 662.525 55.5918 663.338 54.0078C664.182 52.3786 664.604 50.1837 664.604 47.4231V22.7136C664.604 19.953 664.182 17.7807 663.338 16.1968C662.525 14.5676 661.243 13.753 659.493 13.753C657.774 13.753 656.508 14.5676 655.695 16.1968C654.882 17.7807 654.476 19.953 654.476 22.7136Z" fill="#686868" />
      <path d="M679.333 47.2195V22.9172C679.333 19.2968 679.927 16.4004 681.115 14.2281C682.334 12.0106 684.131 10.9019 686.507 10.9019C688.945 10.9019 690.758 11.988 691.946 14.1603C693.165 16.3325 693.774 19.2515 693.774 22.9172V47.2195C693.774 50.8852 693.165 53.8042 691.946 55.9765C690.758 58.1487 688.945 59.2349 686.507 59.2349C684.131 59.2349 682.334 58.1487 681.115 55.9765C679.927 53.7589 679.333 50.8399 679.333 47.2195ZM681.49 22.7136V47.4231C681.49 50.1837 681.896 52.3786 682.709 54.0078C683.521 55.5918 684.787 56.3838 686.507 56.3838C688.257 56.3838 689.539 55.5918 690.351 54.0078C691.195 52.3786 691.617 50.1837 691.617 47.4231V22.7136C691.617 19.953 691.195 17.7807 690.351 16.1968C689.539 14.5676 688.257 13.753 686.507 13.753C684.787 13.753 683.521 14.5676 682.709 16.1968C681.896 17.7807 681.49 19.953 681.49 22.7136Z" fill="#686868" />
      <path d="M699.91 14.1603C701.066 11.988 702.848 10.9019 705.255 10.9019C707.662 10.9019 709.444 11.988 710.6 14.1603C711.757 16.3325 712.335 19.2515 712.335 22.9172V24.1391C712.335 26.4924 711.944 28.5515 711.163 30.3165C710.382 32.0362 709.287 33.2355 707.881 33.9143C709.35 34.5027 710.46 35.6567 711.21 37.3764C711.96 39.0961 712.335 41.1552 712.335 43.5538V47.2195C712.335 50.8852 711.757 53.8042 710.6 55.9765C709.444 58.1487 707.662 59.2349 705.255 59.2349C702.848 59.2349 701.066 58.1487 699.91 55.9765C698.753 53.8042 698.175 50.8852 698.175 47.2195V43.2823H700.238V47.4231C700.238 50.1385 700.629 52.3107 701.41 53.94C702.223 55.5692 703.489 56.3838 705.208 56.3838C708.522 56.3838 710.178 53.3064 710.178 47.1516V43.4859C710.178 41.0421 709.725 39.0961 708.819 37.6479C707.912 36.1998 706.677 35.4757 705.114 35.4757H703.286V32.6246H705.255C706.693 32.6246 707.865 31.8778 708.772 30.3844C709.709 28.8457 710.178 26.9676 710.178 24.7501V22.9851C710.178 16.8303 708.522 13.753 705.208 13.753C703.489 13.753 702.223 14.5676 701.41 16.1968C700.598 17.7807 700.191 19.953 700.191 22.7136V25.2931H698.222V22.8493C698.222 19.1836 698.785 16.2873 699.91 14.1603Z" fill="#686868" />
      <path d="M729.305 36.4939H719.084V58.8276H716.927V11.3092H719.084V33.6428H729.305V11.3092H731.509V58.8276H729.305V36.4939Z" fill="#686868" />
      <path d="M749.543 48.3056H739.322L737.68 58.8276H735.711L742.885 11.2413L746.027 11.2413L753.341 58.8276H751.184L749.543 48.3056ZM744.386 14.8391L739.65 45.5903H749.215L744.386 14.8391Z" fill="#686868" />
      <path d="M770.997 58.8276L761.947 36.4939L759.697 41.6531V58.8276H757.54V11.3092H759.697V36.426L770.387 11.3092H772.638L763.26 33.4392L773.247 58.8276L770.997 58.8276Z" fill="#686868" />
      <path d="M777.293 47.2195V22.9172C777.293 19.2968 777.887 16.4004 779.075 14.2281C780.294 12.0106 782.092 10.9019 784.467 10.9019C786.905 10.9019 788.718 11.988 789.906 14.1603C791.125 16.3325 791.735 19.2515 791.735 22.9172V47.2195C791.735 50.8852 791.125 53.8042 789.906 55.9765C788.718 58.1487 786.905 59.2349 784.467 59.2349C782.092 59.2349 780.294 58.1487 779.075 55.9765C777.887 53.7589 777.293 50.8399 777.293 47.2195ZM779.45 22.7136V47.4231C779.45 50.1837 779.857 52.3786 780.669 54.0078C781.482 55.5918 782.748 56.3838 784.467 56.3838C786.218 56.3838 787.499 55.5918 788.312 54.0078C789.156 52.3786 789.578 50.1837 789.578 47.4231V22.7136C789.578 19.953 789.156 17.7807 788.312 16.1968C787.499 14.5676 786.218 13.753 784.467 13.753C782.748 13.753 781.482 14.5676 780.669 16.1968C779.857 17.7807 779.45 19.953 779.45 22.7136Z" fill="#686868" />
      <path d="M814.094 16.6041L807.248 58.7597H805.091L798.152 16.7398V58.8276H796.229V11.3092H799.324L806.217 53.329L813.062 11.3092H816.157V58.8276H814.094V16.6041Z" fill="#686868" />
      <path d="M833.5 16.8077L828.577 36.4939L823.184 58.8276H820.84V11.3092H822.809V51.9713L827.592 32.5567L832.89 11.3092L835.469 11.3092V58.8276H833.5V16.8077Z" fill="#686868" />
      <path d="M848.392 58.8276H846.236V14.1603H839.531V11.3092L855.097 11.3092V14.1603L848.392 14.1603V58.8276Z" fill="#686868" />
      <path d="M861.366 30.8596H865.398C867.993 30.8596 869.915 31.7873 871.166 33.6428C872.416 35.4983 873.041 38.3268 873.041 42.1282V47.2874C873.041 54.9808 870.681 58.8276 865.961 58.8276L859.209 58.8276V11.3092H861.366V30.8596ZM861.366 55.9765L865.961 55.9765C869.243 55.9765 870.884 53.148 870.884 47.491V41.9246C870.884 39.0282 870.447 36.9465 869.572 35.6793C868.696 34.3669 867.305 33.7107 865.398 33.7107H861.366V55.9765Z" fill="#686868" />
      <path d="M879.095 14.2281C880.252 12.0106 882.033 10.9019 884.44 10.9019C886.847 10.9019 888.629 12.0106 889.786 14.2281C890.942 16.4004 891.52 19.2968 891.52 22.9172V26.8545H889.457V22.7136C889.457 19.9982 889.051 17.826 888.238 16.1968C887.457 14.5676 886.206 13.753 884.487 13.753C882.768 13.753 881.502 14.5676 880.689 16.1968C879.908 17.826 879.517 19.9982 879.517 22.7136V47.4231C879.517 53.3516 881.174 56.3159 884.487 56.3159C887.801 56.3159 889.457 53.3516 889.457 47.4231V41.7888H891.52V47.2195C891.52 50.8399 890.942 53.7589 889.786 55.9765C888.629 58.1487 886.847 59.2349 884.44 59.2349C882.033 59.2349 880.252 58.1487 879.095 55.9765C877.939 53.7589 877.36 50.8399 877.36 47.2195V22.9172C877.36 19.2968 877.939 16.4004 879.095 14.2281Z" fill="#686868" />
      <path d="M908.167 37.58H904.744C902.712 37.58 901.18 38.191 900.149 39.4129C899.117 40.5895 898.602 42.6713 898.602 45.6582V53.1254C898.602 55.7502 898.367 57.6509 897.898 58.8276H895.648C896.179 57.6509 896.445 55.7502 896.445 53.1254V45.7261C896.445 40.2501 898.023 37.0144 901.18 36.0187C898.023 34.9778 896.445 31.6968 896.445 26.1756V22.0347C896.445 14.8843 898.789 11.3092 903.478 11.3092H910.324V58.8276H908.167V37.58ZM908.167 14.1603H903.525C900.243 14.1603 898.602 16.8756 898.602 22.3063V26.7866C898.602 29.8187 899.102 31.9005 900.102 33.0319C901.102 34.1632 902.634 34.7289 904.697 34.7289H908.167V14.1603Z" fill="#686868" />
    </g>
    <g opacity="0.7">
      <path d="M927.987 12.362C929.098 10.0544 930.809 8.90062 933.121 8.90062C935.433 8.90062 937.145 10.0544 938.256 12.362C939.367 14.6224 939.922 17.6364 939.922 21.4039V25.501H937.941V21.1919C937.941 18.3664 937.55 16.1059 936.769 14.4105C936.019 12.7152 934.818 11.8675 933.166 11.8675C931.515 11.8675 930.299 12.7152 929.518 14.4105C928.767 16.1059 928.392 18.3664 928.392 21.1919V46.9048C928.392 53.074 929.984 56.1586 933.166 56.1586C936.349 56.1586 937.941 53.074 937.941 46.9048V41.0417H939.922V46.6929C939.922 50.4604 939.367 53.4979 938.256 55.8054C937.145 58.0659 935.433 59.1962 933.121 59.1962C930.809 59.1962 929.098 58.0659 927.987 55.8054C926.876 53.4979 926.32 50.4604 926.32 46.6929V21.4039C926.32 17.6364 926.876 14.6224 927.987 12.362Z" fill="#686868" />
      <path d="M964.257 15.0463L959.528 35.5318L954.348 58.7723H952.096V9.32445L953.988 9.32445V51.6377L958.582 31.4347L963.671 9.32445L966.149 9.32445V58.7723H964.257V15.0463Z" fill="#686868" />
      <path d="M982.481 35.5318H972.662V58.7723H970.591V9.32445H972.662V32.565H982.481V9.32445H984.598V58.7723H982.481V35.5318Z" fill="#686868" />
      <path d="M990.616 12.362C991.727 10.0544 993.439 8.90062 995.751 8.90062C998.063 8.90062 999.774 10.0544 1000.89 12.362C1002 14.6224 1002.55 17.6364 1002.55 21.4039V25.501H1000.57V21.1919C1000.57 18.3664 1000.18 16.1059 999.399 14.4105C998.648 12.7152 997.447 11.8675 995.796 11.8675C994.144 11.8675 992.928 12.7152 992.148 14.4105C991.397 16.1059 991.022 18.3664 991.022 21.1919V46.9048C991.022 53.074 992.613 56.1586 995.796 56.1586C998.979 56.1586 1000.57 53.074 1000.57 46.9048V41.0417H1002.55V46.6929C1002.55 50.4604 1002 53.4979 1000.89 55.8054C999.774 58.0659 998.063 59.1962 995.751 59.1962C993.439 59.1962 991.727 58.0659 990.616 55.8054C989.505 53.4979 988.95 50.4604 988.95 46.6929V21.4039C988.95 17.6364 989.505 14.6224 990.616 12.362Z" fill="#686868" />
      <path d="M1014.8 58.7723H1012.73V12.2913L1006.29 12.2913V9.32445L1021.24 9.32445V12.2913L1014.8 12.2913V58.7723Z" fill="#686868" />
      <path d="M1025.19 9.32445L1031.72 9.32445C1036.23 9.32445 1038.48 13.3274 1038.48 21.3332V26.7018C1038.48 34.5193 1036.05 38.4281 1031.18 38.4281H1027.27V58.7723H1025.19V9.32445ZM1027.27 35.4612H1031.18C1033.02 35.4612 1034.34 34.8019 1035.15 33.4833C1035.99 32.1176 1036.41 29.9277 1036.41 26.9138V21.1213C1036.41 15.2346 1034.85 12.2913 1031.72 12.2913L1027.27 12.2913V35.4612Z" fill="#686868" />
      <path d="M1058.62 9.32445L1050.47 49.5891C1049.9 52.8857 1049.14 55.2874 1048.18 56.7944C1047.21 58.2543 1045.67 58.9136 1043.54 58.7723V55.8761C1044.92 55.9232 1045.94 55.4993 1046.6 54.6046C1047.26 53.6627 1047.8 52.1557 1048.22 50.0836L1049.53 44.0792L1041.96 9.32445L1044.08 9.32445L1047.77 26.7725L1050.52 39.9821L1053.04 26.7018L1056.46 9.32445H1058.62Z" fill="#686868" />
      <path d="M1075.5 58.7723L1066.81 35.5318L1064.65 40.9005V58.7723H1062.58V9.32445L1064.65 9.32445V35.4612L1074.92 9.32445L1077.08 9.32445L1068.07 32.353L1077.67 58.7723H1075.5Z" fill="#686868" />
      <path d="M1098.85 65.4125H1096.82V58.7723H1082.27V9.32445H1084.3V55.8054H1094.12V9.32445H1096.24V55.8054H1098.85V65.4125Z" fill="#686868" />
      <path d="M1115.25 15.0463L1110.52 35.5318L1105.34 58.7723H1103.09V9.32445H1104.98V51.6377L1109.57 31.4347L1114.66 9.32445H1117.14V58.7723H1115.25V15.0463Z" fill="#686868" />
      <path d="M1123.65 32.2118L1132.25 32.2118V35.1786L1123.65 35.1786V55.8054L1134.01 55.8054V58.7723L1121.58 58.7723V9.32445L1134.01 9.32445V12.2913L1123.65 12.2913V32.2118Z" fill="#686868" />
      <path d="M1148.68 0L1150.07 0C1150.04 1.83663 1149.61 3.29652 1148.77 4.37967C1147.92 5.46281 1146.84 6.00438 1145.52 6.00438C1144.2 6.00438 1143.12 5.48636 1142.28 4.45031C1141.47 3.36716 1141.05 1.88373 1141.02 0L1142.46 0C1142.49 1.31861 1142.79 2.30757 1143.36 2.96687C1143.93 3.57908 1144.65 3.88519 1145.52 3.88519C1147.53 3.88519 1148.59 2.59013 1148.68 0ZM1150.43 15.0463L1145.93 34.6841L1140.52 58.7723H1138.27V9.32445H1140.16V51.6377L1144.26 33.6245L1149.85 9.32445H1152.32V58.7723H1150.43V15.0463Z" fill="#686868" />
      <path d="M1176.86 15.0463L1172.14 35.5318L1166.96 58.7723H1164.7V9.32445H1166.6V51.6377L1171.19 31.4347L1176.28 9.32445H1178.76V58.7723H1176.86V15.0463Z" fill="#686868" />
      <path d="M1202.98 12.2913L1193.16 12.2913V58.7723H1191.09V9.32445L1205.1 9.32445V58.7723H1202.98V12.2913Z" fill="#686868" />
      <path d="M1209.59 9.32445H1216.12C1220.62 9.32445 1222.87 13.3274 1222.87 21.3332V26.7018C1222.87 34.5193 1220.44 38.4281 1215.58 38.4281L1211.66 38.4281V58.7723H1209.59V9.32445ZM1211.66 35.4612L1215.58 35.4612C1217.41 35.4612 1218.73 34.8019 1219.54 33.4833C1220.38 32.1176 1220.8 29.9277 1220.8 26.9138V21.1213C1220.8 15.2346 1219.24 12.2913 1216.12 12.2913H1211.66V35.4612Z" fill="#686868" />
      <path d="M1226.76 46.6929V21.4039C1226.76 17.6364 1227.33 14.6224 1228.47 12.362C1229.64 10.0544 1231.37 8.90062 1233.65 8.90062C1235.99 8.90062 1237.73 10.0309 1238.87 12.2913C1240.05 14.5518 1240.63 17.5893 1240.63 21.4039V46.6929C1240.63 50.5075 1240.05 53.545 1238.87 55.8054C1237.73 58.0659 1235.99 59.1962 1233.65 59.1962C1231.37 59.1962 1229.64 58.0659 1228.47 55.8054C1227.33 53.4979 1226.76 50.4604 1226.76 46.6929ZM1228.83 21.1919V46.9048C1228.83 49.7775 1229.22 52.0615 1230 53.7569C1230.78 55.4052 1232 56.2293 1233.65 56.2293C1235.33 56.2293 1236.56 55.4052 1237.34 53.7569C1238.15 52.0615 1238.56 49.7775 1238.56 46.9048V21.1919C1238.56 18.3193 1238.15 16.0588 1237.34 14.4105C1236.56 12.7152 1235.33 11.8675 1233.65 11.8675C1232 11.8675 1230.78 12.7152 1230 14.4105C1229.22 16.0588 1228.83 18.3193 1228.83 21.1919Z" fill="#686868" />
      <path d="M1257.87 58.7723L1249.18 35.5318L1247.02 40.9005V58.7723H1244.95V9.32445H1247.02V35.4612L1257.29 9.32445H1259.45L1250.44 32.353L1260.04 58.7723H1257.87Z" fill="#686868" />
      <path d="M1263.92 46.6929V21.4039C1263.92 17.6364 1264.49 14.6224 1265.63 12.362C1266.81 10.0544 1268.53 8.90062 1270.81 8.90062C1273.16 8.90062 1274.9 10.0309 1276.04 12.2913C1277.21 14.5518 1277.8 17.5893 1277.8 21.4039V46.6929C1277.8 50.5075 1277.21 53.545 1276.04 55.8054C1274.9 58.0659 1273.16 59.1962 1270.81 59.1962C1268.53 59.1962 1266.81 58.0659 1265.63 55.8054C1264.49 53.4979 1263.92 50.4604 1263.92 46.6929ZM1265.99 21.1919V46.9048C1265.99 49.7775 1266.39 52.0615 1267.17 53.7569C1267.95 55.4052 1269.16 56.2293 1270.81 56.2293C1272.5 56.2293 1273.73 55.4052 1274.51 53.7569C1275.32 52.0615 1275.72 49.7775 1275.72 46.9048V21.1919C1275.72 18.3193 1275.32 16.0588 1274.51 14.4105C1273.73 12.7152 1272.5 11.8675 1270.81 11.8675C1269.16 11.8675 1267.95 12.7152 1267.17 14.4105C1266.39 16.0588 1265.99 18.3193 1265.99 21.1919Z" fill="#686868" />
      <path d="M1294 35.5318H1284.18V58.7723H1282.11V9.32445H1284.18V32.565H1294V9.32445H1296.12V58.7723H1294V35.5318Z" fill="#686868" />
      <path d="M1302.14 12.362C1303.25 10.0544 1304.96 8.90062 1307.27 8.90062C1309.58 8.90062 1311.3 10.0544 1312.41 12.362C1313.52 14.6224 1314.07 17.6364 1314.07 21.4039V25.501L1312.09 25.501V21.1919C1312.09 18.3664 1311.7 16.1059 1310.92 14.4105C1310.17 12.7152 1308.97 11.8675 1307.32 11.8675C1305.67 11.8675 1304.45 12.7152 1303.67 14.4105C1302.92 16.1059 1302.54 18.3664 1302.54 21.1919V46.9048C1302.54 53.074 1304.14 56.1586 1307.32 56.1586C1310.5 56.1586 1312.09 53.074 1312.09 46.9048V41.0417H1314.07V46.6929C1314.07 50.4604 1313.52 53.4979 1312.41 55.8054C1311.3 58.0659 1309.58 59.1962 1307.27 59.1962C1304.96 59.1962 1303.25 58.0659 1302.14 55.8054C1301.03 53.4979 1300.47 50.4604 1300.47 46.6929V21.4039C1300.47 17.6364 1301.03 14.6224 1302.14 12.362Z" fill="#686868" />
      <path d="M1334.48 9.32445L1326.33 49.5891C1325.76 52.8857 1324.99 55.2874 1324.03 56.7944C1323.07 58.2543 1321.52 58.9136 1319.39 58.7723V55.8761C1320.77 55.9232 1321.79 55.4993 1322.45 54.6046C1323.11 53.6627 1323.65 52.1557 1324.07 50.0836L1325.38 44.0792L1317.81 9.32445L1319.93 9.32445L1323.62 26.7725L1326.37 39.9821L1328.89 26.7018L1332.32 9.32445H1334.48Z" fill="#686868" />
      <path d="M1352.39 12.2913L1344.69 12.2913L1343.88 46.6929C1343.82 48.5766 1343.72 50.1778 1343.57 51.4964C1343.42 52.7679 1343.15 54.0159 1342.76 55.2403C1342.39 56.4177 1341.84 57.3124 1341.09 57.9246C1340.37 58.4898 1339.45 58.7959 1338.34 58.843H1337.94V55.8761C1338.78 55.8761 1339.47 55.6642 1340.01 55.2403C1340.55 54.7694 1340.94 54.063 1341.18 53.1211C1341.42 52.1322 1341.57 51.2139 1341.63 50.3662C1341.72 49.4714 1341.78 48.2705 1341.81 46.7636L1342.76 9.32445L1354.51 9.32445V58.7723H1352.39V12.2913Z" fill="#686868" />
      <path d="M1361.15 29.6687H1365.03C1367.52 29.6687 1369.36 30.6341 1370.57 32.565C1371.77 34.4958 1372.37 37.4391 1372.37 41.3949V46.7636C1372.37 54.7694 1370.1 58.7723 1365.57 58.7723H1359.08V9.32445H1361.15V29.6687ZM1361.15 55.8054H1365.57C1368.72 55.8054 1370.3 52.8621 1370.3 46.9755V41.183C1370.3 38.169 1369.88 36.0028 1369.03 34.6841C1368.19 33.3184 1366.86 32.6356 1365.03 32.6356H1361.15V55.8054Z" fill="#686868" />
      <path d="M1384.62 58.7723H1382.55V12.2913H1376.11V9.32445L1391.06 9.32445V12.2913L1384.62 12.2913V58.7723Z" fill="#686868" />
      <path d="M1407.17 15.0463L1402.45 35.5318L1397.27 58.7723H1395.01V9.32445L1396.91 9.32445V51.6377L1401.5 31.4347L1406.59 9.32445L1409.07 9.32445V58.7723H1407.17V15.0463Z" fill="#686868" />
      <path d="M1413.51 9.32445L1420.04 9.32445C1424.54 9.32445 1426.8 13.3274 1426.8 21.3332V26.7018C1426.8 34.5193 1424.36 38.4281 1419.5 38.4281H1415.58V58.7723H1413.51V9.32445ZM1415.58 35.4612H1419.5C1421.33 35.4612 1422.65 34.8019 1423.46 33.4833C1424.3 32.1176 1424.72 29.9277 1424.72 26.9138V21.1213C1424.72 15.2346 1423.16 12.2913 1420.04 12.2913L1415.58 12.2913V35.4612Z" fill="#686868" />
      <path d="M1430.68 46.6929V21.4039C1430.68 17.6364 1431.25 14.6224 1432.39 12.362C1433.56 10.0544 1435.29 8.90062 1437.57 8.90062C1439.91 8.90062 1441.65 10.0309 1442.8 12.2913C1443.97 14.5518 1444.55 17.5893 1444.55 21.4039V46.6929C1444.55 50.5075 1443.97 53.545 1442.8 55.8054C1441.65 58.0659 1439.91 59.1962 1437.57 59.1962C1435.29 59.1962 1433.56 58.0659 1432.39 55.8054C1431.25 53.4979 1430.68 50.4604 1430.68 46.6929ZM1432.75 21.1919V46.9048C1432.75 49.7775 1433.14 52.0615 1433.92 53.7569C1434.7 55.4052 1435.92 56.2293 1437.57 56.2293C1439.25 56.2293 1440.48 55.4052 1441.26 53.7569C1442.08 52.0615 1442.48 49.7775 1442.48 46.9048V21.1919C1442.48 18.3193 1442.08 16.0588 1441.26 14.4105C1440.48 12.7152 1439.25 11.8675 1437.57 11.8675C1435.92 11.8675 1434.7 12.7152 1433.92 14.4105C1433.14 16.0588 1432.75 18.3193 1432.75 21.1919Z" fill="#686868" />
      <path d="M1448.87 9.32445L1455.49 9.32445C1457.8 9.32445 1459.45 10.1957 1460.44 11.9381C1461.44 13.6806 1461.93 16.3178 1461.93 19.8498V22.6754C1461.93 25.501 1461.62 27.7143 1460.99 29.3155C1460.38 30.8696 1459.32 31.9056 1457.79 32.4237C1460.94 33.4126 1462.52 36.9446 1462.52 43.0196V47.3287C1462.52 54.9578 1460.22 58.7723 1455.63 58.7723H1448.87V9.32445ZM1450.94 31.1522H1454.45C1456.38 31.1522 1457.76 30.6106 1458.6 29.5274C1459.44 28.3972 1459.86 26.3251 1459.86 23.3111V20.1323C1459.86 17.448 1459.53 15.4701 1458.87 14.1986C1458.21 12.9271 1457.07 12.2913 1455.45 12.2913L1450.94 12.2913V31.1522ZM1450.94 55.8054H1455.63C1458.84 55.8054 1460.44 52.9563 1460.44 47.258V42.8077C1460.44 39.6525 1459.99 37.4156 1459.09 36.0969C1458.19 34.7783 1456.78 34.119 1454.86 34.119H1450.94V55.8054Z" fill="#686868" />
      <path d="M1479.63 47.8232L1469.81 47.8232L1468.23 58.7723H1466.34L1473.23 9.25381H1476.25L1483.28 58.7723H1481.2L1479.63 47.8232ZM1474.67 12.9977L1470.13 44.9976L1479.31 44.9976L1474.67 12.9977Z" fill="#686868" />
      <path d="M1495.28 58.7723H1493.21V12.2913H1486.77V9.32445L1501.72 9.32445V12.2913H1495.28V58.7723Z" fill="#686868" />
      <path d="M1507.74 29.6687H1511.62C1514.11 29.6687 1515.96 30.6341 1517.16 32.565C1518.36 34.4958 1518.96 37.4391 1518.96 41.3949V46.7636C1518.96 54.7694 1516.69 58.7723 1512.16 58.7723H1505.67V9.32445L1507.74 9.32445V29.6687ZM1507.74 55.8054H1512.16C1515.31 55.8054 1516.89 52.8621 1516.89 46.9755V41.183C1516.89 38.169 1516.47 36.0028 1515.63 34.6841C1514.79 33.3184 1513.45 32.6356 1511.62 32.6356H1507.74V55.8054Z" fill="#686868" />
      <path d="M1524.77 12.362C1525.89 10.0544 1527.6 8.90062 1529.91 8.90062C1532.22 8.90062 1533.93 10.0544 1535.04 12.362C1536.15 14.6224 1536.71 17.6364 1536.71 21.4039V25.501H1534.73V21.1919C1534.73 18.3664 1534.34 16.1059 1533.56 14.4105C1532.81 12.7152 1531.61 11.8675 1529.95 11.8675C1528.3 11.8675 1527.09 12.7152 1526.31 14.4105C1525.55 16.1059 1525.18 18.3664 1525.18 21.1919V46.9048C1525.18 53.074 1526.77 56.1586 1529.95 56.1586C1533.14 56.1586 1534.73 53.074 1534.73 46.9048V41.0417H1536.71V46.6929C1536.71 50.4604 1536.15 53.4979 1535.04 55.8054C1533.93 58.0659 1532.22 59.1962 1529.91 59.1962C1527.6 59.1962 1525.89 58.0659 1524.77 55.8054C1523.66 53.4979 1523.11 50.4604 1523.11 46.6929V21.4039C1523.11 17.6364 1523.66 14.6224 1524.77 12.362Z" fill="#686868" />
      <path d="M1552.7 36.6621H1549.41C1547.46 36.6621 1545.99 37.2978 1545 38.5693C1544.01 39.7938 1543.51 41.96 1543.51 45.0682V52.8386C1543.51 55.57 1543.29 57.5479 1542.84 58.7723H1540.67C1541.18 57.5479 1541.44 55.57 1541.44 52.8386V45.1388C1541.44 39.4406 1542.96 36.0734 1545.99 35.0373C1542.96 33.9542 1541.44 30.5399 1541.44 24.7946V20.4855C1541.44 13.0448 1543.69 9.32445 1548.2 9.32445L1554.77 9.32445V58.7723H1552.7V36.6621ZM1552.7 12.2913L1548.24 12.2913C1545.09 12.2913 1543.51 15.1169 1543.51 20.7681V25.4303C1543.51 28.5856 1543.99 30.7519 1544.95 31.9292C1545.91 33.1065 1547.39 33.6952 1549.37 33.6952H1552.7V12.2913Z" fill="#686868" />
      <path d="M1568.69 12.362C1569.8 10.0544 1571.51 8.90062 1573.82 8.90062C1576.14 8.90062 1577.85 10.0544 1578.96 12.362C1580.07 14.6224 1580.62 17.6364 1580.62 21.4039V25.501H1578.64V21.1919C1578.64 18.3664 1578.25 16.1059 1577.47 14.4105C1576.72 12.7152 1575.52 11.8675 1573.87 11.8675C1572.22 11.8675 1571 12.7152 1570.22 14.4105C1569.47 16.1059 1569.09 18.3664 1569.09 21.1919V46.9048C1569.09 53.074 1570.69 56.1586 1573.87 56.1586C1577.05 56.1586 1578.64 53.074 1578.64 46.9048V41.0417H1580.62V46.6929C1580.62 50.4604 1580.07 53.4979 1578.96 55.8054C1577.85 58.0659 1576.14 59.1962 1573.82 59.1962C1571.51 59.1962 1569.8 58.0659 1568.69 55.8054C1567.58 53.4979 1567.02 50.4604 1567.02 46.6929V21.4039C1567.02 17.6364 1567.58 14.6224 1568.69 12.362Z" fill="#686868" />
      <path d="M1584.77 46.6929V21.4039C1584.77 17.6364 1585.34 14.6224 1586.48 12.362C1587.65 10.0544 1589.38 8.90062 1591.66 8.90062C1594 8.90062 1595.74 10.0309 1596.89 12.2913C1598.06 14.5518 1598.64 17.5893 1598.64 21.4039V46.6929C1598.64 50.5075 1598.06 53.545 1596.89 55.8054C1595.74 58.0659 1594 59.1962 1591.66 59.1962C1589.38 59.1962 1587.65 58.0659 1586.48 55.8054C1585.34 53.4979 1584.77 50.4604 1584.77 46.6929ZM1586.84 21.1919V46.9048C1586.84 49.7775 1587.23 52.0615 1588.01 53.7569C1588.79 55.4052 1590.01 56.2293 1591.66 56.2293C1593.34 56.2293 1594.57 55.4052 1595.35 53.7569C1596.16 52.0615 1596.57 49.7775 1596.57 46.9048V21.1919C1596.57 18.3193 1596.16 16.0588 1595.35 14.4105C1594.57 12.7152 1593.34 11.8675 1591.66 11.8675C1590.01 11.8675 1588.79 12.7152 1588.01 14.4105C1587.23 16.0588 1586.84 18.3193 1586.84 21.1919Z" fill="#686868" />
      <path d="M1612.38 12.362C1613.5 10.0544 1615.21 8.90062 1617.52 8.90062C1619.83 8.90062 1621.54 10.0544 1622.65 12.362C1623.76 14.6224 1624.32 17.6364 1624.32 21.4039V25.501H1622.34V21.1919C1622.34 18.3664 1621.95 16.1059 1621.17 14.4105C1620.42 12.7152 1619.22 11.8675 1617.56 11.8675C1615.91 11.8675 1614.7 12.7152 1613.92 14.4105C1613.17 16.1059 1612.79 18.3664 1612.79 21.1919V46.9048C1612.79 53.074 1614.38 56.1586 1617.56 56.1586C1620.75 56.1586 1622.34 53.074 1622.34 46.9048V41.0417H1624.32V46.6929C1624.32 50.4604 1623.76 53.4979 1622.65 55.8054C1621.54 58.0659 1619.83 59.1962 1617.52 59.1962C1615.21 59.1962 1613.5 58.0659 1612.38 55.8054C1611.27 53.4979 1610.72 50.4604 1610.72 46.6929V21.4039C1610.72 17.6364 1611.27 14.6224 1612.38 12.362Z" fill="#686868" />
      <path d="M1640.49 12.2913L1630.67 12.2913V58.7723H1628.6V9.32445L1642.61 9.32445V58.7723H1640.49V12.2913Z" fill="#686868" />
      <path d="M1649.17 32.2118L1657.77 32.2118V35.1786L1649.17 35.1786V55.8054L1659.53 55.8054V58.7723L1647.09 58.7723V9.32445L1659.53 9.32445V12.2913L1649.17 12.2913V32.2118Z" fill="#686868" />
      <path d="M1680.95 65.4125H1678.92V58.7723H1664.37V9.32445H1666.4V55.8054H1676.22V9.32445H1678.33V55.8054H1680.95V65.4125Z" fill="#686868" />
      <path d="M1697.34 15.0463L1692.61 35.5318L1687.43 58.7723H1685.18V9.32445H1687.07V51.6377L1691.67 31.4347L1696.76 9.32445H1699.24V58.7723H1697.34V15.0463Z" fill="#686868" />
      <path d="M1716.51 47.8232H1706.69L1705.12 58.7723H1703.23L1710.12 9.25381H1713.14L1720.16 58.7723H1718.09L1716.51 47.8232ZM1711.56 12.9977L1707.01 44.9976H1716.2L1711.56 12.9977Z" fill="#686868" />
      <path d="M1738.16 12.2913H1730.46L1729.64 46.6929C1729.58 48.5766 1729.48 50.1778 1729.33 51.4964C1729.18 52.7679 1728.91 54.0159 1728.52 55.2403C1728.16 56.4177 1727.6 57.3124 1726.85 57.9246C1726.13 58.4898 1725.22 58.7959 1724.1 58.843H1723.7V55.8761C1724.54 55.8761 1725.23 55.6642 1725.77 55.2403C1726.31 54.7694 1726.7 54.063 1726.94 53.1211C1727.18 52.1322 1727.33 51.2139 1727.39 50.3662C1727.48 49.4714 1727.54 48.2705 1727.57 46.7636L1728.52 9.32445L1740.27 9.32445V58.7723H1738.16V12.2913Z" fill="#686868" />
      <path d="M1757 15.0463L1752.28 35.5318L1747.1 58.7723H1744.84V9.32445H1746.74V51.6377L1751.33 31.4347L1756.42 9.32445H1758.9V58.7723H1757V15.0463Z" fill="#686868" />
      <path d="M1764.87 12.362C1765.98 10.0544 1767.69 8.90062 1770 8.90062C1772.32 8.90062 1774.03 10.0544 1775.14 12.362C1776.25 14.6224 1776.81 17.6364 1776.81 21.4039V25.501H1774.82V21.1919C1774.82 18.3664 1774.43 16.1059 1773.65 14.4105C1772.9 12.7152 1771.7 11.8675 1770.05 11.8675C1768.4 11.8675 1767.18 12.7152 1766.4 14.4105C1765.65 16.1059 1765.28 18.3664 1765.28 21.1919V46.9048C1765.28 53.074 1766.87 56.1586 1770.05 56.1586C1773.23 56.1586 1774.82 53.074 1774.82 46.9048V41.0417H1776.81V46.6929C1776.81 50.4604 1776.25 53.4979 1775.14 55.8054C1774.03 58.0659 1772.32 59.1962 1770 59.1962C1767.69 59.1962 1765.98 58.0659 1764.87 55.8054C1763.76 53.4979 1763.2 50.4604 1763.2 46.6929V21.4039C1763.2 17.6364 1763.76 14.6224 1764.87 12.362Z" fill="#686868" />
      <path d="M1789.06 58.7723L1786.99 58.7723V12.2913L1780.54 12.2913V9.32445L1795.5 9.32445V12.2913L1789.06 12.2913V58.7723Z" fill="#686868" />
      <path d="M1799.31 46.6929V21.4039C1799.31 17.6364 1799.88 14.6224 1801.02 12.362C1802.2 10.0544 1803.92 8.90062 1806.2 8.90062C1808.55 8.90062 1810.29 10.0309 1811.43 12.2913C1812.6 14.5518 1813.18 17.5893 1813.18 21.4039V46.6929C1813.18 50.5075 1812.6 53.545 1811.43 55.8054C1810.29 58.0659 1808.55 59.1962 1806.2 59.1962C1803.92 59.1962 1802.2 58.0659 1801.02 55.8054C1799.88 53.4979 1799.31 50.4604 1799.31 46.6929ZM1801.38 21.1919V46.9048C1801.38 49.7775 1801.77 52.0615 1802.56 53.7569C1803.34 55.4052 1804.55 56.2293 1806.2 56.2293C1807.89 56.2293 1809.12 55.4052 1809.9 53.7569C1810.71 52.0615 1811.11 49.7775 1811.11 46.9048V21.1919C1811.11 18.3193 1810.71 16.0588 1809.9 14.4105C1809.12 12.7152 1807.89 11.8675 1806.2 11.8675C1804.55 11.8675 1803.34 12.7152 1802.56 14.4105C1801.77 16.0588 1801.38 18.3193 1801.38 21.1919Z" fill="#686868" />
      <path d="M1834.66 14.8344L1828.09 58.7017H1826.01L1819.35 14.9756V58.7723H1817.5V9.32445H1820.47L1827.1 53.0505L1833.67 9.32445H1836.64V58.7723H1834.66V14.8344Z" fill="#686868" />
    </g>
  </g>
  <defs>
    <clipPath id="clip0_6106_1317">
      <rect width="1858" height="65.4125" fill="white" />
    </clipPath>
  </defs>
</svg>