<svg width="320" height="49" viewBox="0 0 320 49" fill="none" xmlns="http://www.w3.org/2000/svg">
<g clip-path="url(#clip0_6106_1210)">
<mask id="mask0_6106_1210" style="mask-type:luminance" maskUnits="userSpaceOnUse" x="0" y="0" width="320" height="49">
<path d="M320 0H0V49H320V0Z" fill="white"/>
</mask>
<g mask="url(#mask0_6106_1210)">
<path d="M85.2763 39.2436V44.6639C85.9224 44.6639 86.5684 44.6639 87.2144 44.6639C89.5831 44.6639 90.8752 43.58 90.8752 41.8454C90.8752 40.3277 89.7986 39.2436 87.4298 39.2436C86.7837 39.2436 85.9224 39.2436 85.2763 39.2436ZM84.1996 33.3896H90.8752V34.2569H85.061V38.3763C85.707 38.3763 86.5684 38.3763 87.2144 38.3763C90.0138 38.3763 91.5214 39.6773 91.5214 41.8454C91.5214 44.4471 89.7986 45.7481 86.7837 45.7481C85.707 45.7481 84.8456 45.7481 83.9844 45.7481V33.3896H84.1996Z" fill="white"/>
<path d="M97.7711 44.881C99.7092 44.881 101.001 43.5801 101.001 41.6288C101.001 39.6774 99.7092 38.3766 97.7711 38.3766C96.0485 38.3766 94.5409 39.6774 94.5409 41.6288C94.7564 43.5801 96.0485 44.881 97.7711 44.881ZM97.7711 37.5093C100.14 37.5093 101.863 39.2439 101.863 41.6288C101.863 44.0137 100.14 45.7482 97.7711 45.7482C95.4023 45.7482 93.6797 44.0137 93.6797 41.6288C93.6797 39.2439 95.4023 37.5093 97.7711 37.5093Z" fill="white"/>
<path d="M105.088 41.8451V44.6637C105.519 44.6637 106.165 44.6637 106.811 44.6637C108.318 44.6637 109.179 44.23 109.179 43.1461C109.179 42.2788 108.533 41.8451 106.811 41.8451H105.088ZM105.088 38.5929V41.1946H107.241C108.318 41.1946 108.964 40.761 108.964 39.8938C108.964 38.8097 107.887 38.5929 106.811 38.5929C105.949 38.3761 105.519 38.3761 105.088 38.5929ZM104.227 37.7256C104.873 37.7256 105.734 37.7256 106.811 37.7256C108.964 37.7256 110.041 38.3761 110.041 39.677C110.041 40.5443 109.395 41.4115 108.533 41.4115C109.825 41.6283 110.471 42.2788 110.471 43.3629C110.471 44.8805 109.395 45.531 107.026 45.531C105.949 45.531 105.088 45.531 104.442 45.531V37.7256H104.227Z" fill="white"/>
<path d="M112.414 37.7256H117.152V38.5929H113.275V45.531H112.414V37.7256Z" fill="white"/>
<path d="M118.656 45.531V37.7256H119.518V44.23L124.686 37.7256H125.547V45.531H124.686V39.0265L119.518 45.531H118.656Z" fill="white"/>
<path d="M132.867 43.5801V42.2793C132.221 41.8456 131.575 41.6288 130.929 41.6288C129.852 41.6288 128.775 42.0624 128.775 43.3634C128.775 44.4474 129.637 44.881 130.498 44.881C131.79 44.881 132.436 44.0137 132.867 43.5801ZM128.345 38.1598C128.991 37.7261 129.852 37.5093 130.929 37.5093C133.082 37.5093 133.728 38.5934 133.728 40.5447V45.5315H132.867V44.2305C132.436 44.881 131.575 45.5315 130.283 45.5315C128.775 45.5315 127.914 44.6642 127.914 43.1466C127.914 41.6288 129.206 40.7615 130.929 40.7615C131.575 40.7615 132.436 40.9783 133.082 41.412C133.082 39.4607 132.867 38.3766 130.929 38.3766C130.068 38.3766 129.421 38.5934 128.775 39.0271L128.345 38.1598Z" fill="white"/>
<path d="M141.917 38.5929H138.687V40.3275C138.041 44.8805 136.749 45.531 135.672 45.531V44.6637C136.103 44.6637 137.395 44.23 137.61 40.1107L137.825 37.7256H142.778V45.531H141.917V38.5929Z" fill="white"/>
<path d="M149.019 45.531C147.942 48.3496 147.081 49 146.004 49C145.573 49 145.143 48.7832 144.712 48.5664L144.927 47.9159C145.143 48.1327 145.573 48.1327 145.789 48.1327C146.65 48.1327 147.081 47.4823 147.727 45.9646L147.942 45.531L144.281 37.7256H145.358L147.942 43.3629L148.588 44.6637C148.804 44.23 148.804 43.7964 149.019 43.3629L151.172 37.9424H152.249L149.019 45.531Z" fill="white"/>
<path d="M154.83 39.6775V44.2305C155.692 44.6642 156.338 44.881 157.198 44.881C159.137 44.881 160.429 43.5801 160.429 41.6288C160.429 39.6775 159.353 38.3766 157.414 38.3766C156.338 38.3766 155.262 39.0271 154.83 39.6775ZM153.753 37.7261H154.615V38.8102C155.262 38.1598 156.338 37.5093 157.414 37.5093C159.569 37.5093 161.075 39.2439 161.075 41.412C161.075 43.7969 159.569 45.5315 156.984 45.5315C156.122 45.5315 155.046 45.3147 154.4 44.881V49.0005H153.539V37.7261H153.753Z" fill="white"/>
<path d="M166.896 44.881C168.834 44.881 170.126 43.5801 170.126 41.6288C170.126 39.6775 168.834 38.3766 166.896 38.3766C165.173 38.3766 163.665 39.6775 163.665 41.6288C163.881 43.5801 165.173 44.881 166.896 44.881ZM166.896 37.5093C169.264 37.5093 170.987 39.2439 170.987 41.6288C170.987 44.0137 169.264 45.7483 166.896 45.7483C164.527 45.7483 162.805 44.0137 162.805 41.6288C162.805 39.2439 164.527 37.5093 166.896 37.5093Z" fill="white"/>
<path d="M179.165 42.0619H174.214V45.531H173.352V37.7256H174.214V41.1946H179.165V37.7256H180.243V45.531H179.165V42.0619Z" fill="white"/>
<path d="M182.828 45.531V37.7256H183.906V44.23L189.073 37.7256H189.936V45.531H189.073V39.0265L183.906 45.531H182.828Z" fill="white"/>
<path d="M193.384 44.6637H197.907V38.5929H194.676V40.3275C194.46 42.4956 193.814 44.23 193.384 44.6637ZM191.445 44.6637H192.522C192.953 44.0132 193.6 42.2788 193.814 39.8938L194.03 37.7256H198.983V44.6637H200.275V47.4823H199.413V45.531H192.522V47.4823H191.661V44.6637H191.445Z" fill="white"/>
<path d="M206.305 43.5801V42.2793C205.659 41.8456 205.012 41.6288 204.366 41.6288C203.29 41.6288 202.212 42.0624 202.212 43.3634C202.212 44.4474 203.074 44.881 203.936 44.881C205.228 44.881 205.873 44.0137 206.305 43.5801ZM201.782 38.1598C202.428 37.7261 203.29 37.5093 204.366 37.5093C206.519 37.5093 207.165 38.5934 207.165 40.5447V45.5315H206.305V44.2305C205.873 44.881 205.012 45.5315 203.72 45.5315C202.212 45.5315 201.352 44.6642 201.352 43.1466C201.352 41.6288 202.644 40.7615 204.366 40.7615C205.012 40.7615 205.873 40.9783 206.519 41.412C206.519 39.4607 206.519 38.3766 204.366 38.3766C203.504 38.3766 202.858 38.5934 202.212 39.0271L201.782 38.1598Z" fill="white"/>
<path d="M209.102 44.6642L209.533 44.0137C210.179 44.6642 211.256 44.881 211.902 44.881C213.409 44.881 214.271 44.2305 214.271 43.3634C214.271 42.4961 213.624 42.0624 212.548 42.0624H211.256V41.1951H212.548C213.409 41.1951 214.055 40.5447 214.055 39.6775C214.055 38.8102 213.194 38.3766 212.116 38.3766C211.04 38.3766 210.179 38.8102 209.748 39.2439L209.317 38.5934C209.964 37.9429 211.04 37.5093 212.332 37.5093C214.055 37.5093 215.131 38.3766 215.131 39.4607C215.131 40.328 214.701 40.9783 213.624 41.412C214.701 41.412 215.347 42.2793 215.347 43.3634C215.347 44.881 214.055 45.7483 212.116 45.7483C211.04 45.7483 209.533 45.3147 209.102 44.6642Z" fill="white"/>
<path d="M235.586 43.5801V42.2793C234.94 41.8456 234.294 41.6288 233.648 41.6288C232.571 41.6288 231.493 42.0624 231.493 43.3634C231.493 44.4474 232.355 44.881 233.217 44.881C234.508 44.881 235.154 44.0137 235.586 43.5801ZM231.063 38.1598C231.709 37.7261 232.571 37.5093 233.648 37.5093C235.8 37.5093 236.446 38.5934 236.446 40.5447V45.5315H235.586V44.2305C235.154 44.881 234.294 45.5315 233.001 45.5315C231.493 45.5315 230.633 44.6642 230.633 43.1466C230.633 41.6288 231.925 40.7615 233.648 40.7615C234.294 40.7615 235.154 40.9783 235.8 41.412C235.8 39.4607 235.8 38.3766 233.648 38.3766C232.786 38.3766 232.139 38.5934 231.493 39.0271L231.063 38.1598Z" fill="white"/>
<path d="M222.233 43.5801V42.2793C221.588 41.8456 220.942 41.6288 220.296 41.6288C219.218 41.6288 218.142 42.0624 218.142 43.3634C218.142 44.4474 219.004 44.881 219.864 44.881C221.156 44.881 221.803 44.0137 222.233 43.5801ZM217.711 38.1598C218.358 37.7261 219.218 37.5093 220.296 37.5093C222.449 37.5093 223.095 38.5934 223.095 40.5447V45.5315H222.233V44.2305C221.803 44.881 220.942 45.5315 219.65 45.5315C218.142 45.5315 217.281 44.6642 217.281 43.1466C217.281 41.6288 218.572 40.7615 220.296 40.7615C220.942 40.7615 221.803 40.9783 222.449 41.412C222.449 39.4607 222.233 38.3766 220.296 38.3766C219.434 38.3766 218.788 38.5934 218.142 39.0271L217.711 38.1598Z" fill="white"/>
<path d="M238.391 44.6642L238.821 44.0137C239.467 44.6642 240.543 44.881 241.189 44.881C242.698 44.881 243.558 44.2305 243.558 43.3634C243.558 42.4961 242.912 42.0624 241.836 42.0624H240.543V41.1951H241.836C242.698 41.1951 243.344 40.5447 243.344 39.6775C243.344 38.8102 242.482 38.3766 241.405 38.3766C240.329 38.3766 239.467 38.8102 239.037 39.2439L238.605 38.5934C239.251 37.9429 240.329 37.5093 241.621 37.5093C243.344 37.5093 244.42 38.3766 244.42 39.4607C244.42 40.328 243.99 40.9783 242.912 41.412C243.99 41.412 244.636 42.2793 244.636 43.3634C244.636 44.881 243.344 45.7483 241.405 45.7483C240.543 45.7483 239.037 45.3147 238.391 44.6642Z" fill="white"/>
<path d="M250.661 44.881C252.6 44.881 253.892 43.5801 253.892 41.6288C253.892 39.6775 252.6 38.3766 250.661 38.3766C248.939 38.3766 247.431 39.6775 247.431 41.6288C247.431 43.5801 248.723 44.881 250.661 44.881ZM250.661 37.5093C253.03 37.5093 254.753 39.2439 254.753 41.6288C254.753 44.0137 253.03 45.7483 250.661 45.7483C248.293 45.7483 246.57 44.0137 246.57 41.6288C246.57 39.2439 248.077 37.5093 250.661 37.5093Z" fill="white"/>
<path d="M259.489 41.412L263.582 45.5315H262.29L258.197 41.412L262.074 37.5093H263.15L259.489 41.412ZM256.906 37.7261H257.767V45.5315H256.906V37.7261Z" fill="white"/>
<path d="M271.332 44.4474C270.686 45.3147 269.61 45.7483 268.318 45.7483C265.949 45.7483 264.227 44.2305 264.227 41.6288C264.227 39.2439 265.949 37.5093 268.102 37.5093C269.394 37.5093 270.47 37.7261 271.117 38.5934L270.686 39.2439C270.04 38.5934 269.18 38.3766 268.318 38.3766C266.595 38.3766 265.303 39.6775 265.303 41.6288C265.303 43.5801 266.811 44.881 268.534 44.881C269.61 44.881 270.472 44.4474 270.902 43.7969L271.332 44.4474Z" fill="white"/>
<path d="M273.492 45.531V37.7256H274.353V44.23L279.522 37.7256H280.382V45.531H279.522V39.0265L274.353 45.531H273.492Z" fill="white"/>
<path d="M283.18 37.7256H284.042L287.272 42.0619L290.287 37.7256H291.148V45.531H290.287V39.0265L287.272 43.3627L284.042 39.0265V45.531H283.18V37.7256Z" fill="white"/>
<path d="M294.378 40.9783H299.977C299.977 39.2439 298.899 38.3766 297.176 38.3766C295.454 38.3766 294.592 39.4607 294.378 40.9783ZM300.407 44.6642C299.761 45.3147 298.469 45.7483 297.607 45.7483C295.238 45.7483 293.516 44.2305 293.516 41.6288C293.516 39.2439 294.808 37.5093 297.392 37.5093C299.331 37.5093 300.837 38.8102 300.837 40.9783C300.837 41.1951 300.837 41.412 300.837 41.6288H294.378C294.378 43.5801 295.67 44.6642 297.607 44.6642C298.685 44.6642 299.545 44.2305 300.191 43.7969L300.407 44.6642Z" fill="white"/>
<path d="M303.851 39.6775V44.2305C304.712 44.6642 305.358 44.881 306.22 44.881C308.157 44.881 309.449 43.5801 309.449 41.6288C309.449 39.6775 308.373 38.3766 306.434 38.3766C305.574 38.3766 304.496 39.0271 303.851 39.6775ZM302.989 37.7261H303.851V38.8102C304.496 38.1598 305.574 37.5093 306.65 37.5093C308.803 37.5093 310.311 39.2439 310.311 41.412C310.311 43.7969 308.803 45.5315 306.22 45.5315C305.358 45.5315 304.282 45.3147 303.635 44.881V49.0005H302.773V37.7261H302.989Z" fill="white"/>
<path d="M102.508 27.7526H105.523V1.9517H90.2338L89.8031 7.15524C88.7262 23.8499 85.4961 24.7172 83.7734 24.7172V27.7526C87.865 28.1862 91.3104 26.2348 92.8178 9.757L93.2485 4.9871H102.508V27.7526ZM110.045 14.7437C110.045 22.5491 115.644 27.9694 123.181 27.9694C130.503 27.9694 136.317 22.3323 136.317 14.7437C136.317 6.93842 130.718 1.51807 123.181 1.51807C115.429 1.51807 110.045 7.37205 110.045 14.7437ZM113.275 14.7437C113.275 8.67294 117.582 4.33665 122.966 4.33665C128.349 4.33665 132.656 8.67294 132.656 14.7437C132.656 20.5977 128.78 25.1508 122.966 25.1508C117.582 25.1508 113.275 20.5977 113.275 14.7437ZM157.851 27.7526H160.866V1.9517H157.851V13.0092H143.854V1.9517H140.839V27.7526H143.854V16.0447H157.851V27.7526ZM167.327 27.7526H170.342V4.9871H181.538V1.9517H167.327V27.7526ZM188 27.7526L203.504 7.15524V27.7526H206.734V1.9517H203.935L188.43 22.5491V1.9517H185.199V27.7526H188ZM210.395 32.5224H213.41V27.7526H233.222V32.5224H236.237V24.7172H232.791V1.9517H217.717L217.501 7.15524C216.855 17.9959 214.272 23.4162 213.194 24.7172H210.395V32.5224ZM220.301 9.54019L220.732 4.9871H229.776V24.934H216.855C217.501 23.6331 219.655 18.4296 220.301 9.54019ZM238.606 27.7526H241.835L245.065 19.9472H256.694L259.925 27.7526H263.154L252.171 1.73488H249.588L238.606 27.7526ZM250.879 6.07116L255.402 17.1286H246.142L250.879 6.07116ZM273.706 28.1862C278.443 28.1862 282.534 25.3677 282.534 20.5977C282.534 17.5623 281.028 15.1774 277.797 14.5269V14.3101C280.382 13.0092 281.458 10.6243 281.458 8.45611C281.458 4.11984 278.443 1.51807 274.136 1.51807C270.907 1.51807 267.893 3.03577 266.169 5.20391L267.893 7.37205C269.399 5.63754 271.122 4.55346 273.706 4.55346C276.291 4.55346 278.443 5.85435 278.443 8.67294C278.443 11.2747 276.291 13.0092 274.136 13.0092H271.338V16.0447H274.352C277.583 16.0447 279.305 17.7791 279.305 20.164C279.305 23.4162 276.721 25.1508 273.49 25.1508C271.338 25.1508 268.753 23.8499 267.031 21.8986L265.308 24.0667C266.815 26.018 269.829 28.1862 273.706 28.1862Z" fill="white"/>
<path d="M284.469 27.7526H287.699L290.93 19.9473H302.559L305.788 27.7526H309.018L298.036 1.73486H295.451L284.469 27.7526ZM296.744 6.07115L301.266 17.1286H292.006L296.744 6.07115Z" fill="white"/>
<path d="M308.805 7.15524C308.805 10.1906 311.173 12.7924 314.404 12.7924C317.419 12.7924 320.003 10.1906 320.003 7.15524C320.003 4.11983 317.419 1.51807 314.404 1.51807C311.389 1.73488 308.805 4.11983 308.805 7.15524ZM310.313 7.37205C310.313 4.9871 312.251 3.25257 314.404 3.25257C316.773 3.25257 318.495 5.20391 318.495 7.37205C318.495 9.757 316.558 11.4915 314.404 11.4915C312.035 11.4915 310.313 9.54019 310.313 7.37205ZM313.543 10.1906V8.0225H314.404L315.696 10.1906H316.988L315.48 7.80567C316.126 7.58886 316.773 6.93842 316.773 6.07116C316.773 4.9871 316.126 4.11983 314.404 4.11983H312.251V10.1906H313.543ZM314.188 4.9871C315.05 4.9871 315.48 5.42072 315.48 6.07116C315.48 6.72161 315.05 7.15524 314.188 7.15524H313.328V4.9871H314.188Z" fill="white"/>
<path d="M48.6719 6.93829C48.6719 6.93829 46.9491 2.16839 41.9962 0.433872C37.6893 -0.867012 29.0757 -0.216572 25.8455 7.15512C22.8306 13.8763 23.692 16.695 23.692 16.695C23.692 16.695 23.9075 7.80555 32.7365 3.9029C37.0434 2.16839 40.9195 2.3852 43.073 3.9029C45.2263 5.20379 46.5184 6.93829 48.6719 6.93829Z" fill="#F00044"/>
<path d="M5.81658 35.5583H10.1234C1.94042 26.8856 0.00232027 15.6113 0.00232027 15.6113C0.00232027 15.6113 -0.643709 26.0185 5.81658 35.5583Z" fill="#F00044"/>
<path d="M55.7753 15.3938C47.8076 15.8275 49.3151 8.88938 49.3151 8.88938C49.3151 8.88938 46.9463 8.67257 45.6542 7.8053C44.3621 6.93805 40.2706 1.08407 31.4415 5.85398C22.6126 10.6239 25.8427 24.2832 28.642 27.5354C31.4415 30.7876 40.9167 38.376 53.4065 32.7389C65.8965 27.1017 67.6193 8.67257 65.2505 2.16814C65.0351 1.5177 64.6044 0.650443 64.3891 0H58.1442C63.3124 10.8407 59.2209 15.3938 55.7753 15.3938Z" fill="#AF1837"/>
<path d="M1.50884 11.2743C2.37021 21.2478 6.89242 29.9203 13.1374 35.5575H20.4591C17.0135 31.8717 13.9987 27.1017 12.922 20.5973C11.63 12.1416 13.5681 5.20354 16.7983 0H3.66227C1.93952 3.90265 1.29349 7.8053 1.50884 11.2743Z" fill="#AF1837"/>
<path d="M14.2126 16.4779C14.2126 9.75663 17.4428 4.11948 21.5342 0H18.7349C13.7819 7.8053 14.2126 16.4779 14.2126 16.4779Z" fill="#F00044"/>
<path d="M51.2518 8.88985C51.2518 8.88985 50.6057 11.9253 52.5438 13.2261C55.9894 15.6111 58.7888 12.3589 58.7888 9.5403C58.7888 5.85446 57.712 2.81906 56.2046 0.217285H53.6206L53.8359 0.434098C57.2815 6.5049 51.2518 8.88985 51.2518 8.88985Z" fill="#F00044"/>
<path d="M62.8828 26.0182C62.8828 26.0182 69.1279 18.8633 69.7738 10.8412C69.9893 7.58896 69.7738 3.90312 68.9124 0.217285H66.113C71.4966 14.9606 62.8828 26.0182 62.8828 26.0182Z" fill="#F00044"/>
</g>
</g>
<defs>
<clipPath id="clip0_6106_1210">
<rect width="320" height="49" fill="white"/>
</clipPath>
</defs>
</svg>
