
<svg width="237" height="36" viewBox="0 0 237 36" fill="none" xmlns="http://www.w3.org/2000/svg">
  <g clip-path="url(#clip0_6106_1459)">
    <mask id="mask0_6106_1459" style="mask-type:luminance" maskUnits="userSpaceOnUse" x="0" y="0" width="237" height="36">
      <path d="M237 0H0V36H237V0Z" fill="white" />
    </mask>
    <g mask="url(#mask0_6106_1459)">
      <path d="M63.157 28.8323V32.8145C63.6356 32.8145 64.114 32.8145 64.5924 32.8145C66.3468 32.8145 67.3037 32.0182 67.3037 30.7438C67.3037 29.6288 66.5063 28.8323 64.752 28.8323C64.2734 28.8323 63.6356 28.8323 63.157 28.8323ZM62.3596 24.5314H67.3037V25.1686H62.9976V28.1951C63.476 28.1951 64.114 28.1951 64.5924 28.1951C66.6658 28.1951 67.7823 29.1509 67.7823 30.7438C67.7823 32.6552 66.5063 33.611 64.2734 33.611C63.476 33.611 62.8381 33.611 62.2002 33.611V24.5314H62.3596Z" fill="black" />
      <path d="M72.4081 32.9739C73.8435 32.9739 74.8005 32.0181 74.8005 30.5845C74.8005 29.1508 73.8435 28.1951 72.4081 28.1951C71.1323 28.1951 70.0158 29.1508 70.0158 30.5845C70.1753 32.0181 71.1323 32.9739 72.4081 32.9739ZM72.4081 27.5579C74.1625 27.5579 75.4384 28.8323 75.4384 30.5845C75.4384 32.3367 74.1625 33.611 72.4081 33.611C70.6538 33.611 69.3779 32.3367 69.3779 30.5845C69.3779 28.8323 70.6538 27.5579 72.4081 27.5579Z" fill="black" />
      <path d="M77.8298 30.7436V32.8144C78.1487 32.8144 78.6273 32.8144 79.1057 32.8144C80.2221 32.8144 80.8601 32.4958 80.8601 31.6994C80.8601 31.0622 80.3816 30.7436 79.1057 30.7436H77.8298ZM77.8298 28.3542V30.2657H79.4247C80.2221 30.2657 80.7006 29.9471 80.7006 29.31C80.7006 28.5135 79.9031 28.3542 79.1057 28.3542C78.4677 28.1949 78.1487 28.1949 77.8298 28.3542ZM77.1919 27.717C77.6703 27.717 78.3083 27.717 79.1057 27.717C80.7006 27.717 81.498 28.1949 81.498 29.1507C81.498 29.7879 81.0196 30.425 80.3816 30.425C81.3386 30.5843 81.817 31.0622 81.817 31.8587C81.817 32.9737 81.0196 33.4516 79.2652 33.4516C78.4677 33.4516 77.8298 33.4516 77.3513 33.4516V27.717H77.1919Z" fill="black" />
      <path d="M83.2539 27.717H86.7628V28.3542H83.8919V33.4516H83.2539V27.717Z" fill="black" />
      <path d="M87.8794 33.4516V27.717H88.5174V32.4958L92.3451 27.717H92.9831V33.4516H92.3451V28.6728L88.5174 33.4516H87.8794Z" fill="black" />
      <path d="M98.4041 32.0181V31.0624C97.9256 30.7438 97.4472 30.5845 96.9686 30.5845C96.1712 30.5845 95.3738 30.9031 95.3738 31.8589C95.3738 32.6553 96.0118 32.9739 96.6496 32.9739C97.6066 32.9739 98.0851 32.3367 98.4041 32.0181ZM95.0548 28.0358C95.5332 27.7172 96.1712 27.5579 96.9686 27.5579C98.5636 27.5579 99.042 28.3544 99.042 29.788V33.4518H98.4041V32.496C98.0851 32.9739 97.4472 33.4518 96.4902 33.4518C95.3738 33.4518 94.7358 32.8146 94.7358 31.6996C94.7358 30.5845 95.6928 29.9473 96.9686 29.9473C97.4472 29.9473 98.0851 30.1066 98.5636 30.4252C98.5636 28.9916 98.4041 28.1951 96.9686 28.1951C96.3308 28.1951 95.8522 28.3544 95.3738 28.673L95.0548 28.0358Z" fill="black" />
      <path d="M105.104 28.3542H102.711V29.6286C102.233 32.9737 101.276 33.4516 100.479 33.4516V32.8144C100.798 32.8144 101.754 32.4958 101.914 29.4693L102.073 27.717H105.742V33.4516H105.104V28.3542Z" fill="black" />
      <path d="M110.367 33.4516C109.569 35.5224 108.931 36.0003 108.134 36.0003C107.815 36.0003 107.496 35.841 107.177 35.6817L107.336 35.2038C107.496 35.3631 107.815 35.3631 107.974 35.3631C108.612 35.3631 108.931 34.8852 109.41 33.7702L109.569 33.4516L106.858 27.717H107.655L109.569 31.8587L110.048 32.8144C110.207 32.4958 110.207 32.1772 110.367 31.8587L111.962 27.8763H112.759L110.367 33.4516Z" fill="black" />
      <path d="M114.672 29.1509V32.496C115.31 32.8146 115.789 32.9739 116.426 32.9739C117.862 32.9739 118.819 32.0181 118.819 30.5845C118.819 29.1509 118.022 28.1951 116.586 28.1951C115.789 28.1951 114.992 28.673 114.672 29.1509ZM113.875 27.7172H114.513V28.5137C114.992 28.0358 115.789 27.5579 116.586 27.5579C118.181 27.5579 119.297 28.8323 119.297 30.4252C119.297 32.1774 118.181 33.4518 116.267 33.4518C115.629 33.4518 114.832 33.2925 114.353 32.9739V36.0005H113.716V27.7172H113.875Z" fill="black" />
      <path d="M123.604 32.9739C125.04 32.9739 125.997 32.0181 125.997 30.5845C125.997 29.1509 125.04 28.1951 123.604 28.1951C122.328 28.1951 121.212 29.1509 121.212 30.5845C121.371 32.0181 122.328 32.9739 123.604 32.9739ZM123.604 27.5579C125.358 27.5579 126.634 28.8323 126.634 30.5845C126.634 32.3367 125.358 33.6111 123.604 33.6111C121.85 33.6111 120.574 32.3367 120.574 30.5845C120.574 28.8323 121.85 27.5579 123.604 27.5579Z" fill="black" />
      <path d="M132.694 30.903H129.027V33.4517H128.389V27.7171H129.027V30.2658H132.694V27.7171H133.493V33.4517H132.694V30.903Z" fill="black" />
      <path d="M135.404 33.4516V27.717H136.203V32.4958L140.03 27.717H140.668V33.4516H140.03V28.6728L136.203 33.4516H135.404Z" fill="black" />
      <path d="M143.221 32.8144H146.571V28.3542H144.178V29.6286C144.018 31.2215 143.54 32.4958 143.221 32.8144ZM141.786 32.8144H142.583C142.903 32.3365 143.381 31.0622 143.54 29.31L143.7 27.717H147.368V32.8144H148.325V34.8852H147.687V33.4516H142.583V34.8852H141.946V32.8144H141.786Z" fill="black" />
      <path d="M152.791 32.0181V31.0624C152.312 30.7438 151.834 30.5845 151.355 30.5845C150.558 30.5845 149.76 30.9031 149.76 31.8589C149.76 32.6553 150.398 32.9739 151.037 32.9739C151.994 32.9739 152.471 32.3367 152.791 32.0181ZM149.441 28.0358C149.92 27.7172 150.558 27.5579 151.355 27.5579C152.95 27.5579 153.428 28.3544 153.428 29.788V33.4518H152.791V32.496C152.471 32.9739 151.834 33.4518 150.877 33.4518C149.76 33.4518 149.123 32.8146 149.123 31.6996C149.123 30.5845 150.08 29.9473 151.355 29.9473C151.834 29.9473 152.471 30.1066 152.95 30.4252C152.95 28.9916 152.95 28.1951 151.355 28.1951C150.717 28.1951 150.238 28.3544 149.76 28.673L149.441 28.0358Z" fill="black" />
      <path d="M154.864 32.8146L155.184 32.3367C155.662 32.8146 156.459 32.9739 156.938 32.9739C158.054 32.9739 158.692 32.496 158.692 31.8589C158.692 31.2217 158.214 30.9031 157.416 30.9031H156.459V30.2659H157.416C158.054 30.2659 158.532 29.788 158.532 29.1509C158.532 28.5137 157.895 28.1951 157.097 28.1951C156.299 28.1951 155.662 28.5137 155.342 28.8323L155.024 28.3544C155.502 27.8765 156.299 27.5579 157.256 27.5579C158.532 27.5579 159.329 28.1951 159.329 28.9916C159.329 29.6288 159.011 30.1066 158.214 30.4252C159.011 30.4252 159.489 31.0624 159.489 31.8589C159.489 32.9739 158.532 33.6111 157.097 33.6111C156.299 33.6111 155.184 33.2925 154.864 32.8146Z" fill="black" />
      <path d="M174.481 32.0181V31.0624C174.003 30.7438 173.524 30.5845 173.046 30.5845C172.249 30.5845 171.45 30.9031 171.45 31.8589C171.45 32.6553 172.089 32.9739 172.727 32.9739C173.683 32.9739 174.162 32.3367 174.481 32.0181ZM171.132 28.0358C171.61 27.7172 172.249 27.5579 173.046 27.5579C174.64 27.5579 175.119 28.3544 175.119 29.788V33.4518H174.481V32.496C174.162 32.9739 173.524 33.4518 172.567 33.4518C171.45 33.4518 170.813 32.8146 170.813 31.6996C170.813 30.5845 171.77 29.9473 173.046 29.9473C173.524 29.9473 174.162 30.1066 174.64 30.4252C174.64 28.9916 174.64 28.1951 173.046 28.1951C172.407 28.1951 171.929 28.3544 171.45 28.673L171.132 28.0358Z" fill="black" />
      <path d="M164.591 32.0181V31.0624C164.114 30.7438 163.635 30.5845 163.157 30.5845C162.358 30.5845 161.561 30.9031 161.561 31.8589C161.561 32.6553 162.2 32.9739 162.837 32.9739C163.794 32.9739 164.272 32.3367 164.591 32.0181ZM161.242 28.0358C161.721 27.7172 162.358 27.5579 163.157 27.5579C164.751 27.5579 165.23 28.3544 165.23 29.788V33.4518H164.591V32.496C164.272 32.9739 163.635 33.4518 162.678 33.4518C161.561 33.4518 160.924 32.8146 160.924 31.6996C160.924 30.5845 161.88 29.9473 163.157 29.9473C163.635 29.9473 164.272 30.1066 164.751 30.4252C164.751 28.9916 164.591 28.1951 163.157 28.1951C162.518 28.1951 162.04 28.3544 161.561 28.673L161.242 28.0358Z" fill="black" />
      <path d="M176.554 32.8146L176.872 32.3367C177.351 32.8146 178.148 32.9739 178.627 32.9739C179.744 32.9739 180.381 32.496 180.381 31.8589C180.381 31.2217 179.902 30.9031 179.105 30.9031H178.148V30.2659H179.105C179.744 30.2659 180.222 29.788 180.222 29.1509C180.222 28.5137 179.584 28.1951 178.786 28.1951C177.989 28.1951 177.351 28.5137 177.032 28.8323L176.712 28.3544C177.191 27.8765 177.989 27.5579 178.946 27.5579C180.222 27.5579 181.019 28.1951 181.019 28.9916C181.019 29.6288 180.701 30.1066 179.902 30.4252C180.701 30.4252 181.179 31.0624 181.179 31.8589C181.179 32.9739 180.222 33.6111 178.786 33.6111C178.148 33.6111 177.032 33.2925 176.554 32.8146Z" fill="black" />
      <path d="M185.644 32.9739C187.08 32.9739 188.037 32.0181 188.037 30.5845C188.037 29.1509 187.08 28.1951 185.644 28.1951C184.369 28.1951 183.252 29.1509 183.252 30.5845C183.252 32.0181 184.209 32.9739 185.644 32.9739ZM185.644 27.5579C187.398 27.5579 188.674 28.8323 188.674 30.5845C188.674 32.3367 187.398 33.6111 185.644 33.6111C183.89 33.6111 182.614 32.3367 182.614 30.5845C182.614 28.8323 183.73 27.5579 185.644 27.5579Z" fill="black" />
      <path d="M192.184 30.4252L195.215 33.4518H194.258L191.226 30.4252L194.098 27.5579H194.895L192.184 30.4252ZM190.271 27.7172H190.908V33.4518H190.271V27.7172Z" fill="black" />
      <path d="M200.957 32.6553C200.478 33.2925 199.681 33.6111 198.724 33.6111C196.97 33.6111 195.694 32.496 195.694 30.5845C195.694 28.8323 196.97 27.5579 198.564 27.5579C199.521 27.5579 200.318 27.7172 200.797 28.3544L200.478 28.8323C200 28.3544 199.362 28.1951 198.724 28.1951C197.448 28.1951 196.491 29.1509 196.491 30.5845C196.491 32.0181 197.608 32.9739 198.884 32.9739C199.681 32.9739 200.319 32.6553 200.638 32.1774L200.957 32.6553Z" fill="black" />
      <path d="M202.552 33.4516V27.717H203.19V32.4958L207.018 27.717H207.655V33.4516H207.018V28.6728L203.19 33.4516H202.552Z" fill="black" />
      <path d="M209.728 27.717H210.366L212.759 30.9029L214.991 27.717H215.629V33.4516H214.991V28.6728L212.759 31.8586L210.366 28.6728V33.4516H209.728V27.717Z" fill="black" />
      <path d="M218.021 30.1066H222.168C222.168 28.8323 221.369 28.1951 220.094 28.1951C218.818 28.1951 218.18 28.9916 218.021 30.1066ZM222.486 32.8146C222.008 33.2925 221.051 33.6111 220.412 33.6111C218.658 33.6111 217.382 32.496 217.382 30.5845C217.382 28.8323 218.339 27.5579 220.254 27.5579C221.689 27.5579 222.805 28.5137 222.805 30.1066C222.805 30.2659 222.805 30.4252 222.805 30.5845H218.021C218.021 32.0181 218.978 32.8146 220.412 32.8146C221.211 32.8146 221.848 32.496 222.326 32.1774L222.486 32.8146Z" fill="black" />
      <path d="M225.039 29.1509V32.496C225.676 32.8146 226.154 32.9739 226.793 32.9739C228.227 32.9739 229.184 32.0181 229.184 30.5845C229.184 29.1509 228.387 28.1951 226.952 28.1951C226.314 28.1951 225.516 28.673 225.039 29.1509ZM224.4 27.7172H225.039V28.5137C225.516 28.0358 226.314 27.5579 227.111 27.5579C228.706 27.5579 229.823 28.8323 229.823 30.4252C229.823 32.1774 228.706 33.4518 226.793 33.4518C226.154 33.4518 225.357 33.2925 224.879 32.9739V36.0005H224.24V27.7172H224.4Z" fill="black" />
      <path d="M75.916 20.3899H78.1488V1.43417H66.8252L66.5062 5.25718C65.7087 17.5226 63.3164 18.1598 62.0405 18.1598V20.3899C65.0708 20.7085 67.6226 19.2748 68.739 7.16867L69.058 3.66425H75.916V20.3899ZM81.4981 10.8324C81.4981 16.5669 85.6448 20.5492 91.2269 20.5492C96.6496 20.5492 100.956 16.4076 100.956 10.8324C100.956 5.09787 96.809 1.11558 91.2269 1.11558C85.4853 1.11558 81.4981 5.41646 81.4981 10.8324ZM83.8904 10.8324C83.8904 6.37222 87.0802 3.18638 91.0675 3.18638C95.0546 3.18638 98.2444 6.37222 98.2444 10.8324C98.2444 15.1332 95.3736 18.4784 91.0675 18.4784C87.0802 18.4784 83.8904 15.1332 83.8904 10.8324ZM116.904 20.3899H119.137V1.43417H116.904V9.55805H106.538V1.43417H104.305V20.3899H106.538V11.7882H116.904V20.3899ZM123.922 20.3899H126.155V3.66425H134.448V1.43417H123.922V20.3899ZM139.233 20.3899L150.716 5.25718V20.3899H153.108V1.43417H151.035L139.552 16.5669V1.43417H137.159V20.3899H139.233ZM155.82 23.8943H158.053V20.3899H172.726V23.8943H174.959V18.1598H172.406V1.43417H161.242L161.082 5.25718C160.604 13.2218 158.691 17.204 157.893 18.1598H155.82V23.8943ZM163.157 7.00939L163.475 3.66425H170.174V18.3191H160.604C161.082 17.3633 162.678 13.5404 163.157 7.00939ZM176.713 20.3899H179.105L181.497 14.6553H190.11L192.503 20.3899H194.894L186.76 1.27487H184.847L176.713 20.3899ZM185.803 4.46071L189.153 12.5846H182.295L185.803 4.46071ZM202.709 20.7085C206.218 20.7085 209.248 18.6377 209.248 15.1332C209.248 12.9032 208.132 11.151 205.739 10.6731V10.5138C207.654 9.55805 208.451 7.80584 208.451 6.21292C208.451 3.02709 206.218 1.11558 203.028 1.11558C200.637 1.11558 198.404 2.23062 197.127 3.82354L198.404 5.41646C199.52 4.14213 200.795 3.34567 202.709 3.34567C204.624 3.34567 206.218 4.30142 206.218 6.37222C206.218 8.28372 204.624 9.55805 203.028 9.55805H200.955V11.7882H203.188C205.581 11.7882 206.856 13.0625 206.856 14.8146C206.856 17.204 204.942 18.4784 202.55 18.4784C200.955 18.4784 199.041 17.5226 197.765 16.089L196.49 17.6819C197.605 19.1155 199.838 20.7085 202.709 20.7085Z" fill="black" />
      <path d="M210.684 20.3897H213.076L215.469 14.6552H224.081L226.473 20.3897H228.866L220.732 1.27466H218.818L210.684 20.3897ZM219.775 4.4605L223.124 12.5843H216.266L219.775 4.4605Z" fill="black" />
      <path d="M228.706 5.25718C228.706 7.48726 230.46 9.39876 232.853 9.39876C235.086 9.39876 237 7.48726 237 5.25718C237 3.02708 235.086 1.11558 232.853 1.11558C230.62 1.27487 228.706 3.02708 228.706 5.25718ZM229.823 5.41646C229.823 3.66425 231.259 2.38991 232.853 2.38991C234.607 2.38991 235.883 3.82354 235.883 5.41646C235.883 7.16867 234.448 8.44301 232.853 8.44301C231.099 8.44301 229.823 7.00939 229.823 5.41646ZM232.216 7.48726V5.89434H232.853L233.81 7.48726H234.767L233.65 5.73504C234.129 5.57575 234.607 5.09788 234.607 4.46071C234.607 3.66425 234.129 3.02708 232.853 3.02708H231.259V7.48726H232.216ZM232.693 3.66425C233.332 3.66425 233.65 3.98283 233.65 4.46071C233.65 4.93859 233.332 5.25718 232.693 5.25718H232.056V3.66425H232.693Z" fill="black" />
      <path d="M36.0446 5.09768C36.0446 5.09768 34.7686 1.59326 31.1003 0.318918C27.9106 -0.636834 21.5311 -0.158959 19.1388 5.25698C16.9059 10.195 17.5438 12.2659 17.5438 12.2659C17.5438 12.2659 17.7034 5.73484 24.2424 2.86759C27.4322 1.59326 30.3029 1.75255 31.8979 2.86759C33.4927 3.82334 34.4496 5.09768 36.0446 5.09768Z" fill="#E4003A" />
      <path d="M4.30629 26.1245H7.49606C1.43551 19.7527 0.00010712 11.4695 0.00010712 11.4695C0.00010712 11.4695 -0.478358 19.1156 4.30629 26.1245Z" fill="#E4003A" />
      <path d="M41.3081 11.31C35.407 11.6286 36.5235 6.53122 36.5235 6.53122C36.5235 6.53122 34.7692 6.37193 33.8122 5.73475C32.8553 5.09759 29.8249 0.796705 23.2859 4.30113C16.747 7.80555 19.1393 17.8409 21.2125 20.2303C23.2859 22.6197 30.3035 28.1949 39.5537 24.0533C48.8041 19.9117 50.08 6.37193 48.3257 1.59317C48.1661 1.11529 47.8471 0.478121 47.6877 0.000244141H43.0626C46.8903 7.96485 43.86 11.31 41.3081 11.31Z" fill="#DC034C" />
      <path d="M1.11603 8.28343C1.75398 15.6109 5.10324 21.9825 9.7284 26.1241H15.1511C12.5992 23.4162 10.3664 19.9117 9.56892 15.133C8.61198 8.92059 10.0474 3.82325 12.4397 0.000244141H2.71091C1.435 2.8675 0.956537 5.73475 1.11603 8.28343Z" fill="#DC034C" />
      <path d="M10.527 12.1065C10.527 7.16838 12.9194 3.0268 15.9496 0.000244141H13.8763C10.208 5.73475 10.527 12.1065 10.527 12.1065Z" fill="#E4003A" />
      <path d="M37.9584 6.53145C37.9584 6.53145 37.4799 8.76154 38.9153 9.71729C41.4671 11.4695 43.5405 9.08013 43.5405 7.00933C43.5405 4.30136 42.743 2.07127 41.6266 0.159767H39.7128L39.8722 0.319058C42.4241 4.77924 37.9584 6.53145 37.9584 6.53145Z" fill="#E4003A" />
      <path d="M46.5703 19.1156C46.5703 19.1156 51.1956 13.8589 51.674 7.96507C51.8335 5.5757 51.674 2.86773 51.036 0.159767H48.9627C52.9499 10.9916 46.5703 19.1156 46.5703 19.1156Z" fill="#E4003A" />
    </g>
  </g>
  <defs>
    <clipPath id="clip0_6106_1459">
      <rect width="237" height="36" fill="white" />
    </clipPath>
  </defs>
</svg>