<svg width="258" height="72" viewBox="0 0 258 72" fill="none" xmlns="http://www.w3.org/2000/svg">
<g clip-path="url(#clip0_6001_13850)">
<path d="M128.239 8.55238C120.655 8.55238 114.957 13.2495 114.957 21.2682C114.957 29.2867 120.655 33.984 128.239 33.984C135.823 33.984 141.522 29.2867 141.522 21.2682C141.522 13.2495 135.825 8.55238 128.239 8.55238ZM128.239 27.4618C124.089 27.4618 122.276 24.8814 122.276 21.2644C122.276 17.6476 124.091 15.067 128.239 15.067C132.388 15.067 134.204 17.6476 134.204 21.2644C134.204 24.8814 132.389 27.4618 128.239 27.4618ZM181.435 33.0742H157.186V27.8104L170.353 15.5769H157.488V9.45109H180.843V14.7149L167.679 26.9484H181.435V33.0742ZM144.941 0H152.258V33.0687H144.941V0ZM226.875 9.45109H231.304V12.5654H226.875C223.721 12.5654 221.9 14.5792 221.9 18.7812V33.0724H218.237V18.7738C218.237 12.558 221.861 9.45109 226.875 9.45109ZM253.406 9.45109H257.067V23.8524C257.067 29.9599 252.274 33.9802 246.322 33.9802C240.37 33.9802 235.569 29.9635 235.569 23.8524V9.45109H239.233V23.8524C239.233 27.88 242.394 30.6606 246.323 30.6606C250.253 30.6606 253.413 27.8874 253.413 23.8524V9.45109H253.406ZM197.678 8.55238C190.094 8.55238 184.397 13.2495 184.397 21.2682C184.397 29.2867 189.484 33.984 196.373 33.984C199.618 33.984 202.134 32.2525 203.163 30.7798C203.221 30.6954 203.304 30.6441 203.404 30.6441C203.558 30.6441 203.683 30.7669 203.683 30.921V33.076H210.962V21.2755C210.962 13.2587 205.265 8.55972 197.679 8.55972V8.55238H197.678ZM197.678 27.4618C193.646 27.4618 191.715 24.8814 191.715 21.2644C191.715 17.6476 193.529 15.067 197.678 15.067C201.826 15.067 203.643 17.6476 203.643 21.2644C203.643 24.8814 201.828 27.4618 197.678 27.4618ZM99.0869 8.55238C91.5031 8.55238 85.8047 13.2495 85.8047 21.2608V42.5143H93.084V30.9063C93.084 30.7522 93.2079 30.6294 93.3648 30.6294C93.4633 30.6294 93.5472 30.688 93.6073 30.7651C94.6413 32.2396 97.1522 33.9693 100.398 33.9693C107.285 33.9693 112.373 29.2722 112.373 21.2535C112.373 13.2348 106.68 8.55055 99.0906 8.55055L99.0869 8.55238ZM99.0869 27.4618C94.9367 27.4618 93.1223 24.8814 93.1223 21.2644C93.1223 17.6476 94.9367 15.067 99.0869 15.067C103.237 15.067 105.05 17.6476 105.05 21.2644C105.05 24.8814 103.117 27.4618 99.0869 27.4618Z" fill="#5D8DD4"/>
<path d="M102.235 55.1396C101.576 54.2849 100.794 53.5817 99.8745 53.0717C98.5435 52.3273 97.0615 51.9688 95.4287 51.9688C93.535 51.9688 91.861 52.3824 90.3652 53.2233C88.8832 54.0642 87.7169 55.2223 86.8524 56.7112C85.988 58.2001 85.5625 59.9509 85.5625 61.9361C85.5625 63.9214 85.988 65.6859 86.8524 67.1886C87.7169 68.6912 88.8832 69.863 90.3652 70.704C91.8473 71.5449 93.535 71.9585 95.4287 71.9585C97.1164 71.9585 98.6258 71.5863 99.957 70.8281C100.904 70.2905 101.713 69.546 102.386 68.6361V71.738H105.775V52.148H102.248V55.1396H102.235ZM101.411 65.5894C100.835 66.6371 100.053 67.4368 99.0513 68.0158C98.0633 68.581 96.9518 68.8704 95.7168 68.8704C94.4818 68.8704 93.3566 68.581 92.3686 68.0158C91.3943 67.4506 90.5986 66.6371 90.0085 65.5894C89.4185 64.5416 89.1302 63.3286 89.1302 61.9499C89.1302 60.5713 89.4185 59.3306 90.0085 58.3103C90.5986 57.2901 91.3806 56.4907 92.3686 55.9255C93.3566 55.3601 94.4681 55.0706 95.7168 55.0706C96.9655 55.0706 98.0496 55.3601 99.0513 55.9255C100.053 56.4907 100.835 57.2901 101.411 58.3103C101.988 59.3306 102.276 60.5437 102.276 61.9499C102.276 63.356 101.988 64.5416 101.411 65.5894Z" fill="#5D8DD4"/>
<path d="M109.641 71.7375H113.167V55.2631H124.172V71.7375H127.699V52.1475H109.641V71.7375Z" fill="#5D8DD4"/>
<path d="M131.102 55.2631H138.237V71.7375H141.764V55.2631H148.899V52.1475H131.102V55.2631Z" fill="#5D8DD4"/>
<path d="M164.503 53.2233C163.063 52.3824 161.388 51.9688 159.496 51.9688C157.602 51.9688 155.955 52.3961 154.473 53.2372C152.99 54.0919 151.824 55.2637 150.974 56.7664C150.123 58.2691 149.711 59.9923 149.711 61.9361C149.711 63.88 150.151 65.6031 151.014 67.1058C151.879 68.6085 153.114 69.7941 154.692 70.6488C156.27 71.5173 158.109 71.9447 160.195 71.9447C161.815 71.9447 163.282 71.669 164.585 71.1314C165.904 70.5938 167.001 69.808 167.88 68.7602L165.931 66.4717C165.218 67.2575 164.395 67.8503 163.448 68.2501C162.501 68.65 161.457 68.8428 160.305 68.8428C158.905 68.8428 157.67 68.5533 156.586 67.9881C155.502 67.4229 154.665 66.6233 154.061 65.6031C153.623 64.8449 153.333 64.0178 153.225 63.1079H169.046C169.073 62.9425 169.086 62.7496 169.101 62.5565C169.101 62.3635 169.115 62.1842 169.115 62.0326C169.115 60.0061 168.703 58.2414 167.88 56.7249C167.057 55.2084 165.917 54.0367 164.477 53.1958L164.503 53.2233ZM156.23 55.7876C157.19 55.2361 158.274 54.9603 159.509 54.9603C160.744 54.9603 161.855 55.2361 162.802 55.7876C163.749 56.339 164.49 57.1111 165.025 58.1036C165.437 58.8481 165.683 59.6752 165.767 60.5851H153.238C153.348 59.689 153.594 58.8618 153.993 58.1312C154.528 57.1385 155.283 56.3528 156.243 55.8013L156.23 55.7876Z" fill="#5D8DD4"/>
<path d="M190.178 52.1475H186.391L180.065 60.4329H175.949V52.1475H172.422V71.7375H175.949V63.4659H179.996L186.542 71.7375H190.7L182.809 61.591L190.178 52.1475Z" fill="#5D8DD4"/>
<path d="M207.351 52.148V55.1396C206.694 54.2849 205.911 53.5817 204.992 53.0717C203.66 52.3273 202.178 51.9688 200.546 51.9688C198.652 51.9688 196.978 52.3824 195.482 53.2233C194.001 54.0642 192.833 55.2223 191.97 56.7112C191.105 58.2001 190.68 59.9509 190.68 61.9361C190.68 63.9214 191.105 65.6859 191.97 67.1886C192.833 68.6912 194.001 69.8631 195.482 70.704C196.964 71.5449 198.652 71.9585 200.546 71.9585C202.233 71.9585 203.742 71.5863 205.074 70.8281C206.021 70.2905 206.831 69.546 207.503 68.6361V71.738H210.892V52.148H207.366H207.351ZM206.528 65.5894C205.952 66.6371 205.169 67.4368 204.169 68.0158C203.18 68.581 202.069 68.8704 200.834 68.8704C199.599 68.8704 198.473 68.581 197.486 68.0158C196.511 67.4506 195.716 66.6371 195.125 65.5894C194.535 64.5416 194.247 63.3286 194.247 61.9499C194.247 60.5713 194.535 59.3306 195.125 58.3103C195.716 57.2901 196.497 56.4907 197.486 55.9255C198.473 55.3601 199.584 55.0706 200.834 55.0706C202.082 55.0706 203.167 55.3601 204.169 55.9255C205.169 56.4907 205.952 57.2901 206.528 58.3103C207.105 59.3306 207.393 60.5437 207.393 61.9499C207.393 63.356 207.105 64.5416 206.528 65.5894Z" fill="#5D8DD4"/>
<path d="M71.5826 36C71.5826 39.318 70.2453 42.3222 68.0818 44.4983C65.9213 46.6744 62.9345 48.0195 59.6357 48.0195H47.7377V59.9837C47.7377 66.6197 42.3916 72 35.7906 72C29.1899 72 23.8438 66.6197 23.8438 59.9837V48.0195H35.7723C39.0713 48.0195 42.058 46.6744 44.2214 44.4983C46.3819 42.3222 47.7193 39.318 47.7193 36C47.7193 29.3638 42.3731 23.9837 35.7723 23.9837H23.8438V12.0164C23.8438 5.3803 29.193 0 35.7906 0C39.0896 0 42.0763 1.34508 44.2399 3.5212C46.4004 5.69425 47.7377 8.69836 47.7377 12.0164V23.9837H59.6357C66.2334 23.9837 71.5826 29.3638 71.5826 36Z" fill="#5D8DD4"/>
<path d="M47.7193 35.9999C47.7193 39.3179 46.3819 42.3221 44.2214 44.4981C42.058 46.6743 39.0713 48.0194 35.7723 48.0194H23.8438V23.9834H35.7723C42.3731 23.9834 47.7193 29.3637 47.7193 35.9999Z" fill="white"/>
<path d="M23.845 23.9834V48.0194H11.95C5.34921 48.0194 0 42.636 0 35.9999C0 29.3637 5.34921 23.9834 11.95 23.9834H23.845Z" fill="#5D8DD4"/>
</g>
<defs>
<clipPath id="clip0_6001_13850">
<rect width="258" height="72" fill="white"/>
</clipPath>
</defs>
</svg>
