<svg width="234" height="45" viewBox="0 0 234 45" fill="none" xmlns="http://www.w3.org/2000/svg">
  <g clip-path="url(#clip0_6106_1274)">
    <path d="M80.9309 11.7925L74.8537 37.6257H71.2834L76.6769 14.818H65.2061L59.8125 37.6257H56.2422L62.3194 11.7925H80.9309Z" fill="white" />
    <path d="M87.3865 38.0901C86.1711 38.0901 85.1076 37.9349 84.1959 37.547C83.2844 37.159 82.5248 36.6937 81.917 36.073C81.3092 35.4523 80.8535 34.6766 80.5496 33.8233C80.2457 32.9698 80.0938 32.1165 80.0938 31.1081C80.0938 29.4013 80.3217 27.6946 80.8535 26.0654C81.3852 24.4364 82.0689 23.04 83.0564 21.7988C83.968 20.5574 85.1836 19.549 86.5509 18.8509C87.9183 18.1526 89.4375 17.7646 91.1847 17.7646C92.1723 17.7646 93.008 17.9198 93.7676 18.1526C94.4513 18.3853 95.059 18.7733 95.5148 19.2386C95.9705 19.7041 96.2744 20.1697 96.5023 20.7902C96.7302 21.4109 96.8062 21.9538 96.8062 22.5745C96.8062 23.7382 96.5783 24.7466 96.1984 25.5225C95.8186 26.2982 95.2109 26.9965 94.5273 27.5394C93.8435 28.0825 93.0839 28.4705 92.1723 28.7806C91.2607 29.091 90.3492 29.3238 89.3615 29.4789C88.374 29.6341 87.3865 29.7893 86.399 29.8669C85.4113 29.9443 84.4238 30.0219 83.5123 30.0219C83.5123 30.2546 83.5123 30.4098 83.5123 30.4874C83.5123 30.565 83.5123 30.7201 83.5123 30.7977C83.5123 31.3407 83.5883 31.8838 83.7402 32.4269C83.892 32.9698 84.1199 33.3578 84.4998 33.7457C84.8797 34.1335 85.3354 34.4438 86.0191 34.6766C86.6268 34.9093 87.5384 34.9869 88.526 34.9869C88.9818 34.9869 89.4375 34.9093 89.9693 34.8318C90.5011 34.7542 90.9568 34.599 91.4127 34.5214C91.8685 34.3662 92.2482 34.2111 92.6281 34.1335C93.008 33.9785 93.2359 33.9009 93.3877 33.7457L93.6916 36.6935C93.2357 37.0039 92.4002 37.2366 91.3367 37.547C90.1213 37.9349 88.8299 38.0901 87.3865 38.0901ZM83.8921 27.3843C85.3354 27.3067 86.6268 27.2291 87.7664 27.0741C88.9058 26.9189 89.9693 26.6861 90.8049 26.3758C91.6406 26.0654 92.3242 25.6001 92.78 24.9794C93.2357 24.4363 93.4637 23.6606 93.4637 22.7297C93.4637 22.4969 93.3877 22.2642 93.3117 22.0314C93.2357 21.7987 93.0839 21.5661 92.856 21.3333C92.6281 21.1005 92.4002 20.9454 92.0203 20.7902C91.6406 20.635 91.1847 20.5574 90.6529 20.5574C89.8174 20.5574 88.9818 20.7126 88.298 21.1005C87.5384 21.4885 86.9307 21.9538 86.323 22.5745C85.7152 23.1951 85.2594 23.8933 84.8037 24.669C84.4238 25.6777 84.1199 26.531 83.8921 27.3843Z" fill="white" />
    <path d="M118.835 17.765C119.898 17.765 120.81 17.9202 121.569 18.2306C122.329 18.5409 122.937 19.0063 123.393 19.6269C123.848 20.1699 124.152 20.8682 124.38 21.6439C124.608 22.4197 124.684 23.1954 124.684 24.0489C124.684 24.5918 124.608 25.2125 124.532 25.8331C124.456 26.4538 124.304 27.0743 124.152 27.695L121.797 37.6249H118.379L120.506 28.4707C120.658 27.9277 120.734 27.2295 120.962 26.5313C121.113 25.8331 121.189 25.1349 121.189 24.4367C121.189 23.9713 121.113 23.5058 121.038 23.0403C120.962 22.5749 120.734 22.187 120.506 21.8766C120.278 21.5663 119.898 21.2561 119.442 21.1009C118.987 20.8682 118.379 20.7906 117.695 20.7906C116.935 20.7906 116.176 20.9458 115.416 21.2561C114.656 21.5663 114.049 21.8766 113.593 22.187C113.669 22.4973 113.669 22.8853 113.745 23.1954C113.745 23.5058 113.821 23.8937 113.821 24.2039C113.821 24.747 113.745 25.3677 113.669 25.9107C113.593 26.5313 113.517 27.0743 113.365 27.6174L111.01 37.5473H107.592L109.719 28.3933C109.871 27.8502 109.947 27.1519 110.099 26.4538C110.25 25.7555 110.326 24.9798 110.326 24.2815C110.326 23.8161 110.251 23.3506 110.175 22.8853C110.099 22.4197 109.947 22.1094 109.719 21.7215C109.491 21.4113 109.187 21.1785 108.807 20.9458C108.427 20.7906 107.896 20.6354 107.288 20.6354C106.68 20.6354 106.072 20.6354 105.541 20.713C104.933 20.7906 104.477 20.8682 104.097 21.0233L100.223 37.3922H96.8047L101.211 18.7735C102.274 18.4633 103.49 18.153 104.781 17.9202C106.072 17.6874 107.212 17.6099 108.275 17.6099C109.263 17.6099 110.175 17.765 110.858 18.153C111.542 18.5409 112.15 19.0063 112.529 19.5494C112.757 19.3942 113.137 19.1614 113.517 18.9287C113.973 18.6961 114.429 18.4633 114.96 18.3081C115.492 18.0754 116.1 17.9202 116.784 17.765C117.467 17.8426 118.151 17.765 118.835 17.765Z" fill="white" />
    <path d="M136.764 17.7646C137.98 17.7646 138.967 17.9198 139.879 18.3078C140.714 18.6181 141.474 19.161 142.006 19.7041C142.538 20.3248 142.994 21.023 143.297 21.8763C143.601 22.7297 143.753 23.583 143.753 24.5915C143.753 26.2982 143.525 27.9274 142.994 29.5565C142.462 31.1857 141.702 32.5821 140.639 33.8233C139.575 35.0645 138.208 36.073 136.612 36.7711C135.017 37.4694 133.118 37.8573 130.839 37.8573C130.535 37.8573 130.307 37.8573 129.928 37.8573C129.548 37.8573 129.32 37.7797 129.092 37.7797L127.496 44.4514H124.078L130.079 19.006C131.067 18.6181 132.206 18.2302 133.422 18.075C134.637 17.9198 135.777 17.7646 136.764 17.7646ZM129.776 34.8318C130.003 34.9093 130.307 34.9093 130.535 34.9093C130.839 34.9093 131.067 34.9093 131.371 34.9093C132.738 34.9093 134.03 34.599 135.093 34.0559C136.157 33.5129 137.144 32.7371 137.904 31.8062C138.663 30.8753 139.271 29.7893 139.651 28.6255C140.031 27.3842 140.259 26.143 140.259 24.8242C140.259 24.2813 140.183 23.7382 140.107 23.1951C139.955 22.6521 139.727 22.1866 139.423 21.7988C139.119 21.4109 138.663 21.1005 138.056 20.8678C137.524 20.635 136.764 20.4799 135.929 20.4799C135.321 20.4799 134.789 20.5574 134.257 20.635C133.726 20.7126 133.346 20.8678 132.966 20.9454L129.776 34.8318Z" fill="white" />
    <path d="M151.498 38.0899C149.523 38.0899 147.928 37.4693 146.788 36.3057C145.649 35.0645 145.117 33.4353 145.117 31.3406C145.117 29.8666 145.345 28.3928 145.725 26.7637C146.105 25.2121 146.788 23.7381 147.624 22.3417C148.536 21.0229 149.599 19.8593 151.042 19.0058C152.485 18.1525 154.081 17.687 156.056 17.687C158.031 17.687 159.627 18.3077 160.766 19.4713C161.906 20.7126 162.438 22.3417 162.438 24.4362C162.438 25.9102 162.21 27.3842 161.83 29.0134C161.45 30.5649 160.766 32.0389 159.931 33.4353C159.019 34.7541 157.955 35.9178 156.512 36.771C155.068 37.6245 153.473 38.0899 151.498 38.0899ZM152.105 35.142C153.169 35.142 154.157 34.8317 155.068 34.211C155.904 33.5905 156.664 32.737 157.272 31.7286C157.879 30.7201 158.335 29.634 158.639 28.3928C158.943 27.1516 159.095 25.9878 159.095 24.8242C159.095 23.5829 158.791 22.5745 158.259 21.7986C157.728 21.0229 156.816 20.7126 155.524 20.7126C154.461 20.7126 153.473 21.0229 152.561 21.6434C151.726 22.2641 150.966 23.1174 150.359 24.126C149.751 25.1345 149.295 26.2206 148.991 27.4618C148.688 28.703 148.536 29.8666 148.536 31.0304C148.536 32.2717 148.839 33.2801 149.371 34.0558C149.827 34.7541 150.739 35.142 152.105 35.142Z" fill="white" />
    <path d="M180.446 22.4194C180.446 23.8158 180.066 24.9018 179.458 25.6777C178.85 26.4534 178.014 27.0741 176.951 27.4618C177.786 27.7722 178.47 28.2377 178.926 28.8582C179.458 29.4789 179.686 30.2546 179.686 31.1855C179.686 32.5819 179.382 33.7457 178.85 34.599C178.318 35.4523 177.559 36.1506 176.723 36.6935C175.813 37.2366 174.825 37.547 173.685 37.7797C172.546 38.0123 171.33 38.0901 170.191 38.0901C168.899 38.0901 167.683 38.0123 166.392 37.8573C165.1 37.7021 164.037 37.4694 163.125 37.0814L165.86 25.057C166.164 23.583 166.696 22.4194 167.228 21.4885C167.835 20.5574 168.519 19.7817 169.279 19.2386C170.039 18.6957 170.95 18.3078 171.862 18.075C172.774 17.8422 173.837 17.7646 174.901 17.7646C175.813 17.7646 176.647 17.9198 177.407 18.1526C178.09 18.3853 178.698 18.7733 179.154 19.161C179.61 19.549 179.99 20.0921 180.218 20.635C180.37 21.1781 180.446 21.7987 180.446 22.4194ZM168.291 28.7031L166.848 34.9869C167.152 35.0645 167.683 35.0645 168.215 35.1421C168.823 35.2197 169.507 35.2197 170.418 35.2197C171.178 35.2197 171.938 35.1421 172.698 35.0645C173.381 34.9093 174.065 34.7542 174.597 34.4438C175.129 34.1335 175.585 33.7457 175.889 33.2802C176.191 32.8147 176.343 32.1941 176.343 31.4183C176.343 30.4874 176.041 29.7893 175.433 29.4013C174.825 29.0134 173.837 28.7806 172.47 28.7806H168.291V28.7031ZM168.899 26.143H171.71C172.47 26.143 173.23 26.0654 173.913 25.9879C174.597 25.9103 175.129 25.6777 175.661 25.4449C176.115 25.2121 176.495 24.8242 176.799 24.3589C177.103 23.8933 177.255 23.3502 177.255 22.6521C177.255 22.0314 177.027 21.4885 176.571 21.1005C176.115 20.7126 175.433 20.4799 174.445 20.4799C173.837 20.4799 173.306 20.5574 172.698 20.7126C172.166 20.8678 171.634 21.1005 171.102 21.4885C170.646 21.8763 170.191 22.4194 169.811 23.1175C169.431 23.8158 169.127 24.7466 168.975 25.8327L168.899 26.143Z" fill="white" />
    <path d="M194.347 37.7797C194.196 37.4693 194.12 37.2366 193.968 36.8486C193.816 36.4609 193.74 36.1505 193.664 35.7626C193.132 36.2281 192.448 36.771 191.536 37.2366C190.625 37.7021 189.561 38.0123 188.194 38.0123C187.13 38.0123 186.218 37.8573 185.459 37.4693C184.699 37.159 184.091 36.6159 183.559 35.9953C183.103 35.3746 182.723 34.6765 182.497 33.8232C182.269 32.9698 182.117 32.0389 182.117 31.0304C182.117 29.4013 182.421 27.7721 182.951 26.143C183.483 24.5138 184.319 23.1174 185.383 21.8762C186.446 20.635 187.814 19.6265 189.485 18.8508C191.157 18.0749 193.056 17.687 195.259 17.687C195.943 17.687 196.701 17.7646 197.537 17.9198C198.449 18.0749 199.132 18.3077 199.816 18.6956L197.005 30.4098C196.853 30.9529 196.777 31.4958 196.701 32.0389C196.625 32.5819 196.549 33.125 196.549 33.6681C196.549 34.211 196.625 34.8317 196.701 35.3746C196.777 35.9953 197.005 36.616 197.233 37.2366L194.347 37.7797ZM188.877 35.142C189.865 35.142 190.777 34.9093 191.536 34.4438C192.296 33.9783 192.904 33.5129 193.436 32.8922C193.436 32.5044 193.512 32.0389 193.588 31.5734C193.664 31.1079 193.74 30.6425 193.816 30.177L196.019 20.9453C195.867 20.8677 195.715 20.8677 195.411 20.8677C195.107 20.8677 194.879 20.8677 194.651 20.8677C193.284 20.8677 191.992 21.1781 190.929 21.721C189.789 22.2641 188.877 22.9623 188.042 23.8933C187.282 24.8242 186.674 25.8326 186.218 27.074C185.762 28.3152 185.61 29.5565 185.61 30.8753C185.61 31.4182 185.686 31.9613 185.762 32.4268C185.838 32.9698 186.066 33.4353 186.294 33.8232C186.522 34.211 186.902 34.5989 187.282 34.8317C187.662 34.9869 188.27 35.142 188.877 35.142Z" fill="white" />
    <path d="M203.458 37.5482H200.039L204.598 18.1538H208.016L206.193 26.0667C207.105 25.4461 208.016 24.7479 208.928 24.0497C209.84 23.3515 210.675 22.5758 211.51 21.8775C212.345 21.1794 213.105 20.4812 213.789 19.8606C214.473 19.2399 215.004 18.6193 215.46 18.1538H219.563C219.031 18.7745 218.347 19.4726 217.512 20.2485C216.676 21.0242 215.84 21.8775 214.852 22.6533C213.941 23.5066 212.953 24.2825 212.041 25.0582C211.131 25.8341 210.296 26.4546 209.536 26.9977C210.22 27.6182 210.903 28.3165 211.662 29.1698C212.345 30.0233 213.029 30.8766 213.713 31.885C214.397 32.8159 215.004 33.7469 215.536 34.7554C216.068 35.7639 216.524 36.6173 216.904 37.4706H213.181C212.269 35.5311 211.207 33.7469 209.916 32.0402C208.7 30.3334 207.333 28.9371 205.889 27.9286L203.458 37.5482Z" fill="white" />
    <path d="M218.273 30.6425C218.273 28.9358 218.501 27.3066 219.033 25.755C219.565 24.2036 220.249 22.8072 221.236 21.6434C222.224 20.4798 223.364 19.4713 224.807 18.7732C226.251 18.0749 227.846 17.687 229.67 17.687C230.504 17.687 231.263 17.7646 231.947 17.8422C232.631 17.9198 233.391 18.1525 233.999 18.4629L232.707 21.3333C232.327 21.1005 231.871 20.9453 231.339 20.7901C230.808 20.635 230.124 20.635 229.29 20.635C228.074 20.635 227.01 20.8677 226.099 21.4108C225.187 21.9538 224.351 22.6521 223.668 23.5054C222.984 24.3586 222.452 25.3673 222.148 26.5309C221.768 27.6945 221.616 28.8582 221.616 30.0994C221.616 30.7201 221.692 31.3406 221.844 31.9613C221.996 32.5043 222.224 33.0474 222.528 33.4353C222.832 33.8232 223.288 34.211 223.896 34.4438C224.503 34.6765 225.187 34.8317 226.099 34.8317C226.555 34.8317 227.01 34.7541 227.466 34.6765C227.922 34.5989 228.378 34.5214 228.834 34.3662C229.214 34.211 229.594 34.1334 229.973 33.9783C230.276 33.8232 230.504 33.7457 230.656 33.5905L230.96 36.5384C230.504 36.8486 229.746 37.159 228.834 37.3917C227.846 37.7021 226.783 37.8573 225.491 37.8573C224.351 37.8573 223.288 37.7021 222.376 37.3142C221.464 36.9262 220.705 36.4609 220.097 35.7626C219.489 35.142 219.033 34.2886 218.729 33.4353C218.425 32.582 218.273 31.7286 218.273 30.6425Z" fill="white" />
    <path d="M20.3824 26.2217C20.9902 22.8082 21.5978 19.3949 22.1296 15.9038C20.6863 16.7573 19.2429 17.7657 17.7236 18.7742C17.4198 21.2566 17.1159 23.7391 16.7361 26.2217C15.9005 32.1175 14.9129 38.091 13.7734 43.9868H16.964C18.1794 38.0134 19.3189 32.1175 20.3824 26.2217Z" fill="white" />
    <path d="M50.0107 11.7917C49.0991 6.90437 43.6296 6.82681 39.9072 7.36985C41.1987 4.88737 42.49 2.48248 43.7814 0C40.287 1.86185 35.3493 1.16366 31.0193 0.853355C29.8039 0.775778 28.6644 0.698197 27.6009 0.775774C21.5996 0.930929 19.3207 2.56005 18.8648 8.22321C18.7129 10.3178 18.4851 12.49 18.2572 14.5845C13.6992 16.8343 9.67304 19.3168 6.40652 22.1872C1.62071 26.2988 -0.506332 29.9449 0.101391 33.048C1.16491 38.6336 8.07776 37.9353 11.6481 37.2372C-18.2822 30.643 53.2011 -0.232746 22.739 12.5675C22.9669 11.1711 23.1949 9.77473 23.3468 8.30076C23.9545 4.034 27.449 3.18068 31.0953 3.10309C33.1464 3.02552 35.1974 3.25823 36.8687 3.25823C34.3618 8.53349 31.9308 13.8863 29.7279 19.2392C28.1326 23.0405 26.6132 26.8417 25.0941 30.643C26.6132 29.7121 28.3605 28.6261 30.1077 27.4624C31.3232 24.7472 32.6146 21.9544 33.906 19.2392C35.7291 15.4379 37.7042 11.559 39.6794 7.75774C65.1277 14.507 3.97565 41.8917 23.8786 33.6685C22.5871 37.082 21.3716 40.4953 20.1562 43.9088C20.84 43.9088 21.9035 43.9088 22.5871 43.9088C23.5747 43.9088 23.4988 43.2106 23.8786 42.3573C25.2459 38.8662 26.6132 35.3753 28.1326 31.8844H28.2085C34.4377 29.2467 39.6034 26.1436 43.7056 22.5749C48.4913 18.5409 50.6183 14.8948 50.0107 11.7917Z" fill="white" />
  </g>
  <defs>
    <clipPath id="clip0_6106_1274">
      <rect width="234" height="45" fill="white" />
    </clipPath>
  </defs>
</svg>