<svg width="24" height="24" viewBox="0 0 24 24" fill="none" xmlns="http://www.w3.org/2000/svg">
<mask id="mask0_6106_1297" style="mask-type:luminance" maskUnits="userSpaceOnUse" x="0" y="0" width="24" height="24">
<path d="M18.1818 0H5.81818C2.60489 0 0 2.60489 0 5.81818V18.1818C0 21.3951 2.60489 24 5.81818 24H18.1818C21.3951 24 24 21.3951 24 18.1818V5.81818C24 2.60489 21.3951 0 18.1818 0Z" fill="white"/>
</mask>
<g mask="url(#mask0_6106_1297)">
<path d="M24 0H0V24H24V0Z" fill="white"/>
<path d="M24 12C30.6275 12 36 6.62742 36 5.72205e-06C36 -6.62742 30.6275 -12 24 -12C17.3726 -12 12 -6.62742 12 5.72205e-06C12 6.62742 17.3726 12 24 12Z" fill="white"/>
<path d="M15.0975 11.4521H8.00702V8.64631H15.0975C15.5116 8.64631 15.7996 8.71851 15.9441 8.84456C16.0887 8.97064 16.1782 9.20445 16.1782 9.54602V10.5535C16.1782 10.9133 16.0887 11.1472 15.9441 11.2732C15.7996 11.3993 15.5116 11.4532 15.0975 11.4532V11.4521ZM15.5839 6.00107H5V18H8.00702V14.0963H13.5487L16.1782 18H19.5455L16.6463 14.0779C17.7151 13.9195 18.1951 13.592 18.5909 13.0522C18.9867 12.5123 19.1853 11.6493 19.1853 10.4974V9.59775C19.1853 8.9146 19.1129 8.37478 18.9867 7.96104C18.8605 7.54727 18.6449 7.1874 18.3385 6.86415C18.015 6.55815 17.6547 6.34264 17.2222 6.19825C16.7897 6.0722 16.2494 6 15.5839 6V6.00107Z" fill="#DC034C"/>
</g>
</svg>
