<svg width="32" height="32" viewBox="0 0 32 32" fill="none" xmlns="http://www.w3.org/2000/svg">
<path d="M13.8722 2.28516C7.4835 2.28516 2.28589 7.48277 2.28589 13.8715C2.28589 20.2602 7.4835 25.4579 13.8722 25.4579C20.261 25.4579 25.4586 20.2602 25.4586 13.8715C25.4586 7.48277 20.2609 2.28516 13.8722 2.28516ZM13.8722 23.4311C8.60096 23.4311 4.31268 19.1428 4.31268 13.8715C4.31268 8.60023 8.60096 4.31195 13.8722 4.31195C19.1432 4.31195 23.4318 8.60023 23.4318 13.8715C23.4318 19.1428 19.1435 23.4311 13.8722 23.4311Z" fill="black"/>
<path d="M29.4188 27.9841L22.0548 20.6202C21.6589 20.2243 21.0178 20.2243 20.6219 20.6202C20.226 21.0157 20.226 21.6575 20.6219 22.0531L27.9858 29.417C28.0798 29.5113 28.1915 29.586 28.3144 29.637C28.4374 29.6879 28.5692 29.7141 28.7023 29.7139C28.9618 29.7139 29.2208 29.615 29.4188 29.417C29.8146 29.0214 29.8146 28.3796 29.4188 27.9841Z" fill="black"/>
</svg>
