<svg width="24" height="24" viewBox="0 0 24 24" fill="none" xmlns="http://www.w3.org/2000/svg">
<path d="M0.630534 11.5727C0.685649 11.5436 0.74079 11.5159 0.794528 11.4897C1.72874 11.0322 2.67535 10.6039 3.62058 10.1756C3.67156 10.1756 3.75697 10.1129 3.80519 10.0925C3.87822 10.059 3.95126 10.027 4.02429 9.99347C4.16484 9.92937 4.30539 9.86671 4.44455 9.80261C4.72564 9.67586 5.00534 9.54914 5.28642 9.42239C5.84723 9.16889 6.40802 8.9154 6.96882 8.66045C8.09042 8.15346 9.21343 7.64498 10.335 7.13799C11.4566 6.631 12.5796 6.12255 13.7012 5.61556C14.8228 5.10857 15.9458 4.60013 17.0674 4.09314C18.189 3.58615 19.312 3.07771 20.4336 2.57072C20.683 2.45708 20.953 2.28808 21.2203 2.23854C21.4449 2.1963 21.664 2.11472 21.89 2.06956C22.3185 1.9836 22.7911 1.94863 23.2017 2.13657C23.3437 2.20213 23.4746 2.29389 23.5834 2.40899C24.1043 2.95386 24.0312 3.8484 23.921 4.61471C23.1535 9.9556 22.386 15.298 21.6172 20.6388C21.5124 21.3716 21.3691 22.1758 20.8221 22.6391C20.3591 23.031 19.7005 23.0747 19.1287 22.9086C18.5569 22.7411 18.0526 22.39 17.5579 22.0447C15.5062 20.6082 13.4532 19.1717 11.4015 17.7353C10.9137 17.3944 10.3709 16.9486 10.3764 16.3294C10.3791 15.9564 10.5899 15.6243 10.8049 15.3285C12.5879 12.8693 15.1604 11.1794 17.0743 8.83381C17.3443 8.5031 17.5565 7.90579 17.1859 7.71494C16.9654 7.6013 16.7119 7.7557 16.5107 7.90284C13.9809 9.76036 11.4525 11.6193 8.92269 13.4768C8.09734 14.0829 7.23202 14.7064 6.23719 14.855C5.34707 14.9891 4.45145 14.7268 3.59027 14.4588C2.86826 14.2344 2.1476 14.0042 1.42972 13.7668C1.04804 13.6415 0.653962 13.506 0.359093 13.2219C0.0642253 12.9378 -0.105232 12.46 0.0725155 12.0812C0.184124 11.8437 0.400457 11.6937 0.627809 11.5713L0.630534 11.5727Z" fill="white"/>
</svg>
