<svg width="24" height="24" viewBox="0 0 24 24" fill="none" xmlns="http://www.w3.org/2000/svg">
<path d="M23.7609 6.34531C23.7609 6.34531 23.5266 4.69063 22.8047 3.96406C21.8906 3.00781 20.8688 3.00312 20.4 2.94687C17.0438 2.70312 12.0047 2.70312 12.0047 2.70312H11.9953C11.9953 2.70312 6.95625 2.70312 3.6 2.94687C3.13125 3.00312 2.10938 3.00781 1.19531 3.96406C0.473438 4.69063 0.24375 6.34531 0.24375 6.34531C0.24375 6.34531 0 8.29063 0 10.2313V12.05C0 13.9906 0.239062 15.9359 0.239062 15.9359C0.239062 15.9359 0.473437 17.5906 1.19062 18.3172C2.10469 19.2734 3.30469 19.2406 3.83906 19.3438C5.76094 19.5266 12 19.5828 12 19.5828C12 19.5828 17.0438 19.5734 20.4 19.3344C20.8688 19.2781 21.8906 19.2734 22.8047 18.3172C23.5266 17.5906 23.7609 15.9359 23.7609 15.9359C23.7609 15.9359 24 13.9953 24 12.05V10.2313C24 8.29063 23.7609 6.34531 23.7609 6.34531ZM9.52031 14.2578V7.5125L16.0031 10.8969L9.52031 14.2578Z" fill="white"/>
</svg>
