<svg width="1858" height="66" fill="none" xmlns="http://www.w3.org/2000/svg"><g clip-path="url(#a)" fill="#686868"><path d="M12.66 16.808 7.736 36.494 2.344 58.828H0V11.309h1.97v40.662l4.782-19.414 5.298-21.248h2.579v47.519h-1.97v-42.02Zm24.457-.204L30.273 58.76h-2.157l-6.94-42.02v42.088h-1.922V11.309h3.095l6.892 42.02 6.846-42.02h3.095v47.519h-2.063V16.604Zm8.903 16.699h8.956v2.852h-8.955v19.822h10.784v2.85H43.864V11.31h12.94v2.851H46.022v19.143Zm30.27-22.401c2.408 0 4.205 1.086 5.393 3.258 1.219 2.172 1.828 5.091 1.828 8.757V47.22c0 3.666-.609 6.585-1.828 8.758-1.188 2.172-2.985 3.258-5.392 3.258-2.438 0-4.251-1.086-5.44-3.258-1.187-2.173-1.78-5.092-1.78-8.758V36.494h-5.674v22.334H61.24V11.309h2.157v22.334h5.673V22.917c0-3.666.594-6.585 1.782-8.757 1.188-2.172 3-3.258 5.439-3.258Zm0 2.851c-3.375 0-5.063 2.987-5.063 8.96v24.71c0 5.974 1.688 8.96 5.064 8.96 1.719 0 2.985-.791 3.798-2.375.844-1.63 1.266-3.824 1.266-6.585v-24.71c0-2.76-.422-4.932-1.266-6.516-.813-1.63-2.079-2.444-3.798-2.444Zm20.057 45.075h-2.156V14.16h-6.705v-2.85h15.566v2.85h-6.705v44.668Zm12.411-44.6c1.157-2.217 2.939-3.326 5.346-3.326 2.406 0 4.188 1.109 5.345 3.326 1.156 2.172 1.735 5.069 1.735 8.69v3.937h-2.063v-4.141c0-2.716-.407-4.888-1.22-6.517-.781-1.63-2.031-2.444-3.751-2.444-1.719 0-2.985.815-3.797 2.444-.782 1.629-1.173 3.801-1.173 6.517v24.71c0 5.928 1.657 8.892 4.97 8.892 3.314 0 4.971-2.964 4.971-8.893V41.79h2.063v5.43c0 3.62-.579 6.54-1.735 8.758-1.157 2.172-2.939 3.258-5.345 3.258-2.407 0-4.189-1.086-5.346-3.258-1.156-2.218-1.734-5.137-1.734-8.758V22.917c0-3.62.578-6.517 1.734-8.689ZM137.83 37.58h-3.423c-2.032 0-3.563.611-4.595 1.833-1.031 1.177-1.547 3.258-1.547 6.245v7.467c0 2.625-.235 4.526-.704 5.703h-2.25c.531-1.177.797-3.078.797-5.703v-7.399c0-5.476 1.579-8.712 4.736-9.707-3.157-1.041-4.736-4.322-4.736-9.843v-4.141c0-7.15 2.344-10.726 7.033-10.726h6.846v47.519h-2.157V37.58Zm0-23.42h-4.642c-3.282 0-4.923 2.716-4.923 8.146v4.48c0 3.033.5 5.114 1.5 6.246 1 1.131 2.532 1.697 4.595 1.697h3.47V14.16Zm27.43 0h-10.222v44.668h-2.156V11.309h14.582v47.519h-2.204V14.16Zm6.875-2.85h6.799c4.688 0 7.033 3.846 7.033 11.54v5.159c0 7.512-2.532 11.268-7.596 11.268h-4.079v19.55h-2.157V11.31Zm2.157 25.116h4.079c1.907 0 3.282-.634 4.126-1.9.875-1.313 1.313-3.418 1.313-6.314v-5.566c0-5.657-1.626-8.486-4.876-8.486h-4.642v22.266Zm15.719 10.794V22.916c0-3.62.594-6.517 1.782-8.689 1.219-2.217 3.016-3.326 5.392-3.326 2.438 0 4.251 1.086 5.439 3.258 1.219 2.172 1.829 5.091 1.829 8.757V47.22c0 3.666-.61 6.585-1.829 8.758-1.188 2.172-3.001 3.258-5.439 3.258-2.376 0-4.173-1.086-5.392-3.258-1.188-2.218-1.782-5.137-1.782-8.758Zm2.157-24.506v24.71c0 2.76.406 4.955 1.219 6.584.813 1.584 2.079 2.376 3.798 2.376 1.751 0 3.032-.792 3.845-2.376.844-1.63 1.266-3.824 1.266-6.585v-24.71c0-2.76-.422-4.932-1.266-6.516-.813-1.63-2.094-2.444-3.845-2.444-1.719 0-2.985.815-3.798 2.444-.813 1.584-1.219 3.756-1.219 6.517Zm25.078 36.114h-2.156V14.16h-6.705v-2.85h15.566v2.85h-6.705v44.668Zm23.477-42.02L235.8 36.494l-5.392 22.334h-2.345V11.309h1.97v40.662l4.782-19.414 5.298-21.248h2.579v47.519h-1.969v-42.02Zm6.594-5.498h6.892c2.407 0 4.126.836 5.158 2.51 1.031 1.675 1.547 4.21 1.547 7.604v2.715c0 2.716-.328 4.843-.985 6.381-.625 1.494-1.735 2.49-3.329 2.987 3.282.95 4.923 4.345 4.923 10.183v4.14c0 7.332-2.391 10.998-7.173 10.998h-7.033V11.309Zm2.156 20.975h3.658c2 0 3.438-.52 4.313-1.561.876-1.086 1.313-3.078 1.313-5.974v-3.055c0-2.58-.344-4.48-1.031-5.702-.688-1.222-1.876-1.833-3.564-1.833h-4.689v18.125Zm0 23.692h4.877c3.344 0 5.017-2.738 5.017-8.214v-4.277c0-3.032-.469-5.182-1.407-6.449-.938-1.267-2.407-1.9-4.407-1.9h-4.08v20.84Zm16.361-8.757V22.916c0-3.62.594-6.517 1.782-8.689 1.219-2.217 3.016-3.326 5.392-3.326 2.438 0 4.251 1.086 5.439 3.258 1.219 2.172 1.828 5.091 1.828 8.757V47.22c0 3.666-.609 6.585-1.828 8.758-1.188 2.172-3.001 3.258-5.439 3.258-2.376 0-4.173-1.086-5.392-3.258-1.188-2.218-1.782-5.137-1.782-8.758Zm2.157-24.506v24.71c0 2.76.406 4.955 1.219 6.584.813 1.584 2.079 2.376 3.798 2.376 1.75 0 3.032-.792 3.845-2.376.844-1.63 1.265-3.824 1.265-6.585v-24.71c0-2.76-.421-4.932-1.265-6.516-.813-1.63-2.095-2.444-3.845-2.444-1.719 0-2.985.815-3.798 2.444-.813 1.584-1.219 3.756-1.219 6.517Zm29.157-8.554h-10.221v44.668h-2.157V11.309h14.582v47.519h-2.204V14.16Zm6.735 33.06V22.916c0-3.62.593-6.517 1.781-8.689 1.219-2.217 3.017-3.326 5.392-3.326 2.439 0 4.252 1.086 5.439 3.258 1.219 2.172 1.829 5.091 1.829 8.757V47.22c0 3.666-.61 6.585-1.829 8.758-1.187 2.172-3 3.258-5.439 3.258-2.375 0-4.173-1.086-5.392-3.258-1.188-2.218-1.781-5.137-1.781-8.758Zm2.156-24.506v24.71c0 2.76.407 4.955 1.22 6.584.812 1.584 2.078 2.376 3.797 2.376 1.751 0 3.033-.792 3.845-2.376.844-1.63 1.266-3.824 1.266-6.585v-24.71c0-2.76-.422-4.932-1.266-6.516-.812-1.63-2.094-2.444-3.845-2.444-1.719 0-2.985.815-3.797 2.444-.813 1.584-1.22 3.756-1.22 6.517Zm30.236 36.114-9.049-22.334-2.251 5.16v17.174h-2.156V11.309h2.156v25.117l10.691-25.117h2.251l-9.378 22.13 9.987 25.389h-2.251Zm19.801-10.522h-10.222l-1.641 10.522h-1.969l7.174-47.587h3.141l7.315 47.587h-2.157l-1.641-10.522Zm-5.158-33.467-4.735 30.751h9.565l-4.83-30.75Zm14.796-.679c1.156-2.172 2.938-3.258 5.345-3.258 2.407 0 4.188 1.086 5.345 3.258 1.157 2.172 1.735 5.091 1.735 8.757v1.222c0 2.353-.391 4.413-1.172 6.178-.782 1.72-1.876 2.919-3.282 3.597 1.469.589 2.578 1.743 3.329 3.462.75 1.72 1.125 3.78 1.125 6.178v3.665c0 3.666-.578 6.585-1.735 8.758-1.157 2.172-2.938 3.258-5.345 3.258-2.407 0-4.189-1.086-5.345-3.258-1.157-2.173-1.735-5.092-1.735-8.758v-3.937h2.063v4.141c0 2.715.391 4.888 1.172 6.517.813 1.63 2.079 2.444 3.798 2.444 3.313 0 4.97-3.078 4.97-9.232v-3.666c0-2.444-.453-4.39-1.36-5.838-.906-1.448-2.141-2.172-3.704-2.172h-1.828v-2.851h1.969c1.438 0 2.61-.747 3.516-2.24.938-1.54 1.407-3.417 1.407-5.635v-1.765c0-6.155-1.657-9.232-4.97-9.232-1.719 0-2.985.815-3.798 2.444-.813 1.584-1.219 3.756-1.219 6.517v2.58h-1.969v-2.445c0-3.665.562-6.562 1.688-8.689Zm30.38 34.146h-10.222l-1.641 10.522h-1.969l7.174-47.587h3.141l7.314 47.587h-2.156l-1.641-10.522Zm-5.158-33.467L386.2 45.59h9.565l-4.829-30.75Zm25.533 21.655h-10.222v22.334h-2.157V11.309h2.157v22.334h10.222V11.309h2.203v47.519h-2.203V36.494Zm19.534-19.686-4.923 19.686-5.392 22.334h-2.344V11.309h1.969v40.662l4.782-19.414 5.299-21.248h2.579v47.519h-1.97v-42.02Zm18.785 20.772h-3.423c-2.032 0-3.564.611-4.595 1.833-1.032 1.177-1.547 3.258-1.547 6.245v7.467c0 2.625-.235 4.526-.704 5.703h-2.25c.531-1.177.797-3.078.797-5.703v-7.399c0-5.476 1.578-8.712 4.735-9.707-3.157-1.041-4.735-4.322-4.735-9.843v-4.141c0-7.15 2.344-10.726 7.033-10.726h6.845v47.519h-2.156V37.58Zm0-23.42h-4.642c-3.282 0-4.923 2.716-4.923 8.146v4.48c0 3.033.5 5.114 1.5 6.246 1 1.131 2.532 1.697 4.595 1.697h3.47V14.16Zm27.43 22.334h-10.222v22.334h-2.157V11.309h2.157v22.334h10.222V11.309h2.203v47.519h-2.203V36.494Zm9.031-3.191h8.956v2.852h-8.956v19.822h10.785v2.85h-12.941V11.31h12.941v2.851h-10.785v19.143Zm15.079 13.917V22.916c0-3.62.594-6.517 1.782-8.689 1.219-2.217 3.016-3.326 5.392-3.326 2.438 0 4.251 1.086 5.439 3.258 1.219 2.172 1.828 5.091 1.828 8.757V47.22c0 3.666-.609 6.585-1.828 8.758-1.188 2.172-3.001 3.258-5.439 3.258-2.376 0-4.173-1.086-5.392-3.258-1.188-2.218-1.782-5.137-1.782-8.758Zm2.157-24.506v24.71c0 2.76.406 4.955 1.219 6.584.813 1.584 2.079 2.376 3.798 2.376 1.75 0 3.032-.792 3.844-2.376.844-1.63 1.266-3.824 1.266-6.585v-24.71c0-2.76-.422-4.932-1.266-6.516-.812-1.63-2.094-2.444-3.844-2.444-1.719 0-2.985.815-3.798 2.444-.813 1.584-1.219 3.756-1.219 6.517Zm18.936 8.824h4.689c2.594 0 4.516.838 5.767 2.512 1.25 1.675 1.875 4.367 1.875 8.078v5.363c0 7.558-2.422 11.337-7.267 11.337h-7.221V11.309h13.269v2.851h-11.112v17.378Zm0 24.439h5.064c3.407 0 5.11-2.761 5.11-8.282v-5.77c0-2.806-.437-4.752-1.312-5.838-.876-1.087-2.267-1.63-4.173-1.63h-4.689v21.52Zm31.917 2.851-6.658-22.13-6.658 22.13h-2.11l7.408-24.642-6.892-22.877h2.25l6.19 20.433 6.236-20.433h2.063l-6.893 22.877 7.362 24.642h-2.298Zm6.444-11.608V22.916c0-3.62.594-6.517 1.782-8.689 1.219-2.217 3.016-3.326 5.392-3.326 2.438 0 4.251 1.086 5.439 3.258 1.219 2.172 1.828 5.091 1.828 8.757V47.22c0 3.666-.609 6.585-1.828 8.758-1.188 2.172-3.001 3.258-5.439 3.258-2.376 0-4.173-1.086-5.392-3.258-1.188-2.218-1.782-5.137-1.782-8.758Zm2.157-24.506v24.71c0 2.76.406 4.955 1.219 6.584.813 1.584 2.079 2.376 3.798 2.376 1.75 0 3.032-.792 3.845-2.376.844-1.63 1.266-3.824 1.266-6.585v-24.71c0-2.76-.422-4.932-1.266-6.516-.813-1.63-2.095-2.444-3.845-2.444-1.719 0-2.985.815-3.798 2.444-.813 1.584-1.219 3.756-1.219 6.517Zm36.284 42.698h-2.157v-6.584h-15.66v6.584h-2.11v-9.436h2.251c.969-1.493 1.516-4.027 1.641-7.602l1.313-37.065h12.003v44.667h2.719v9.436ZM591.517 14.16l-1.219 34.213c-.157 3.712-.672 6.246-1.548 7.604h10.55V14.16h-7.783Zm29.739 2.648-4.923 19.686-5.393 22.334h-2.344V11.309h1.969v40.662l4.783-19.414 5.298-21.248h2.579v47.519h-1.969v-42.02Zm24.458-.204-6.846 42.156h-2.157l-6.939-42.02v42.088h-1.923V11.309h3.095l6.892 42.02 6.846-42.02h3.095v47.519h-2.063V16.604Zm6.605 30.616V22.916c0-3.62.594-6.517 1.782-8.689 1.219-2.217 3.016-3.326 5.392-3.326 2.438 0 4.251 1.086 5.439 3.258 1.219 2.172 1.829 5.091 1.829 8.757V47.22c0 3.666-.61 6.585-1.829 8.758-1.188 2.172-3.001 3.258-5.439 3.258-2.376 0-4.173-1.086-5.392-3.258-1.188-2.218-1.782-5.137-1.782-8.758Zm2.157-24.506v24.71c0 2.76.406 4.955 1.219 6.584.813 1.584 2.079 2.376 3.798 2.376 1.75 0 3.032-.792 3.845-2.376.844-1.63 1.266-3.824 1.266-6.585v-24.71c0-2.76-.422-4.932-1.266-6.516-.813-1.63-2.095-2.444-3.845-2.444-1.719 0-2.985.815-3.798 2.444-.813 1.584-1.219 3.756-1.219 6.517Zm24.857 24.506V22.916c0-3.62.594-6.517 1.782-8.689 1.219-2.217 3.016-3.326 5.392-3.326 2.438 0 4.251 1.086 5.439 3.258 1.219 2.172 1.828 5.091 1.828 8.757V47.22c0 3.666-.609 6.585-1.828 8.758-1.188 2.172-3.001 3.258-5.439 3.258-2.376 0-4.173-1.086-5.392-3.258-1.188-2.218-1.782-5.137-1.782-8.758Zm2.157-24.506v24.71c0 2.76.406 4.955 1.219 6.584.812 1.584 2.078 2.376 3.798 2.376 1.75 0 3.032-.792 3.844-2.376.844-1.63 1.266-3.824 1.266-6.585v-24.71c0-2.76-.422-4.932-1.266-6.516-.812-1.63-2.094-2.444-3.844-2.444-1.72 0-2.986.815-3.798 2.444-.813 1.584-1.219 3.756-1.219 6.517Zm18.42-8.554c1.156-2.172 2.938-3.258 5.345-3.258 2.407 0 4.189 1.086 5.345 3.258 1.157 2.172 1.735 5.091 1.735 8.757v1.222c0 2.353-.391 4.413-1.172 6.178-.781 1.72-1.876 2.919-3.282 3.597 1.469.589 2.579 1.743 3.329 3.462.75 1.72 1.125 3.78 1.125 6.178v3.665c0 3.666-.578 6.585-1.735 8.758-1.156 2.172-2.938 3.258-5.345 3.258-2.407 0-4.189-1.086-5.345-3.258-1.157-2.173-1.735-5.092-1.735-8.758v-3.937h2.063v4.141c0 2.715.391 4.888 1.172 6.517.813 1.63 2.079 2.444 3.798 2.444 3.314 0 4.97-3.078 4.97-9.232v-3.666c0-2.444-.453-4.39-1.359-5.838-.907-1.448-2.142-2.172-3.705-2.172h-1.828v-2.851h1.969c1.438 0 2.61-.747 3.517-2.24.937-1.54 1.406-3.417 1.406-5.635v-1.765c0-6.155-1.656-9.232-4.97-9.232-1.719 0-2.985.815-3.798 2.444-.812 1.584-1.219 3.756-1.219 6.517v2.58h-1.969v-2.445c0-3.665.563-6.562 1.688-8.689Zm29.395 22.334h-10.221v22.334h-2.157V11.309h2.157v22.334h10.221V11.309h2.204v47.519h-2.204V36.494Zm20.238 11.812h-10.221l-1.642 10.522h-1.969l7.174-47.587h3.142l7.314 47.587h-2.157l-1.641-10.522Zm-5.157-33.467L739.65 45.59h9.565l-4.829-30.75Zm26.611 43.989-9.05-22.334-2.25 5.16v17.174h-2.157V11.309h2.157v25.117l10.69-25.117h2.251l-9.378 22.13 9.987 25.389h-2.25Zm6.296-11.608V22.916c0-3.62.594-6.517 1.782-8.689 1.219-2.217 3.017-3.326 5.392-3.326 2.438 0 4.251 1.086 5.439 3.258 1.219 2.172 1.829 5.091 1.829 8.757V47.22c0 3.666-.61 6.585-1.829 8.758-1.188 2.172-3.001 3.258-5.439 3.258-2.375 0-4.173-1.086-5.392-3.258-1.188-2.218-1.782-5.137-1.782-8.758Zm2.157-24.506v24.71c0 2.76.407 4.955 1.219 6.584.813 1.584 2.079 2.376 3.798 2.376 1.751 0 3.032-.792 3.845-2.376.844-1.63 1.266-3.824 1.266-6.585v-24.71c0-2.76-.422-4.932-1.266-6.516-.813-1.63-2.094-2.444-3.845-2.444-1.719 0-2.985.815-3.798 2.444-.812 1.584-1.219 3.756-1.219 6.517Zm34.644-6.11-6.846 42.156h-2.157l-6.939-42.02v42.088h-1.923V11.309h3.095l6.893 42.02 6.845-42.02h3.095v47.519h-2.063V16.604Zm19.406.204-4.923 19.686-5.393 22.334h-2.344V11.309h1.969v40.662l4.783-19.414 5.298-21.248h2.579v47.519H833.5v-42.02Zm14.892 42.02h-2.156V14.16h-6.705v-2.85h15.566v2.85h-6.705v44.668Zm12.974-27.968h4.032c2.595 0 4.517.927 5.768 2.783 1.25 1.855 1.875 4.684 1.875 8.485v5.16c0 7.693-2.36 11.54-7.08 11.54h-6.752V11.309h2.157v19.55Zm0 25.117h4.595c3.282 0 4.923-2.829 4.923-8.486v-5.566c0-2.897-.437-4.978-1.312-6.246-.876-1.312-2.267-1.968-4.174-1.968h-4.032v22.266Zm17.729-41.749c1.157-2.217 2.938-3.326 5.345-3.326 2.407 0 4.189 1.109 5.346 3.326 1.156 2.172 1.734 5.069 1.734 8.69v3.937h-2.063v-4.141c0-2.716-.406-4.888-1.219-6.517-.781-1.63-2.032-2.444-3.751-2.444-1.719 0-2.985.815-3.798 2.444-.781 1.629-1.172 3.801-1.172 6.517v24.71c0 5.928 1.657 8.892 4.97 8.892 3.314 0 4.97-2.964 4.97-8.893V41.79h2.063v5.43c0 3.62-.578 6.54-1.734 8.758-1.157 2.172-2.939 3.258-5.346 3.258s-4.188-1.086-5.345-3.258c-1.156-2.218-1.735-5.137-1.735-8.758V22.917c0-3.62.579-6.517 1.735-8.689Zm29.072 23.352h-3.423c-2.032 0-3.564.611-4.595 1.833-1.032 1.177-1.547 3.258-1.547 6.245v7.467c0 2.625-.235 4.526-.704 5.703h-2.25c.531-1.177.797-3.078.797-5.703v-7.399c0-5.476 1.578-8.712 4.735-9.707-3.157-1.041-4.735-4.322-4.735-9.843v-4.141c0-7.15 2.344-10.726 7.033-10.726h6.846v47.519h-2.157V37.58Zm0-23.42h-4.642c-3.282 0-4.923 2.716-4.923 8.146v4.48c0 3.033.5 5.114 1.5 6.246 1 1.131 2.532 1.697 4.595 1.697h3.47V14.16Zm19.82-1.798c1.111-2.308 2.822-3.461 5.134-3.461 2.312 0 4.024 1.153 5.135 3.461 1.111 2.26 1.666 5.274 1.666 9.042V25.5h-1.981v-4.31c0-2.825-.391-5.085-1.172-6.78-.75-1.696-1.951-2.543-3.603-2.543-1.651 0-2.867.847-3.648 2.543-.751 1.695-1.126 3.955-1.126 6.78v25.714c0 6.169 1.592 9.254 4.774 9.254 3.183 0 4.775-3.085 4.775-9.254v-5.863h1.981v5.65c0 3.768-.555 6.806-1.666 9.113-1.111 2.26-2.823 3.391-5.135 3.391s-4.023-1.13-5.134-3.39c-1.111-2.308-1.667-5.346-1.667-9.113v-25.29c0-3.767.556-6.78 1.667-9.041Zm36.27 2.684-4.729 20.486-5.18 23.24h-2.252V9.324h1.892v42.314l4.594-20.203 5.089-22.11h2.478v49.447h-1.892V15.046Zm18.224 20.486h-9.819v23.24h-2.071V9.324h2.071v23.241h9.819V9.325h2.117v49.447h-2.117v-23.24Zm8.135-23.17c1.111-2.308 2.823-3.461 5.135-3.461s4.023 1.153 5.139 3.461c1.11 2.26 1.66 5.274 1.66 9.042V25.5h-1.98v-4.31c0-2.825-.39-5.085-1.171-6.78-.751-1.696-1.952-2.543-3.603-2.543-1.652 0-2.868.847-3.648 2.543-.751 1.695-1.126 3.955-1.126 6.78v25.714c0 6.169 1.591 9.254 4.774 9.254s4.774-3.085 4.774-9.254v-5.863h1.98v5.65c0 3.768-.55 6.806-1.66 9.113-1.116 2.26-2.827 3.391-5.139 3.391-2.312 0-4.024-1.13-5.135-3.39-1.111-2.308-1.666-5.346-1.666-9.113v-25.29c0-3.767.555-6.78 1.666-9.041Zm24.184 46.41h-2.07v-46.48h-6.44V9.323h14.95v2.967h-6.44v46.481Zm10.39-49.448h6.53c4.51 0 6.76 4.003 6.76 12.01v5.368c0 7.817-2.43 11.726-7.3 11.726h-3.91v20.344h-2.08V9.324Zm2.08 26.137h3.91c1.84 0 3.16-.66 3.97-1.978.84-1.365 1.26-3.555 1.26-6.57v-5.792c0-5.886-1.56-8.83-4.69-8.83h-4.45v23.17Zm31.35-26.137-8.15 40.265c-.57 3.297-1.33 5.698-2.29 7.205-.97 1.46-2.51 2.12-4.64 1.978v-2.896c1.38.047 2.4-.377 3.06-1.271.66-.942 1.2-2.45 1.62-4.521l1.31-6.005-7.57-34.755h2.12l3.69 17.449 2.75 13.21 2.52-13.281 3.42-17.378h2.16Zm16.88 49.448-8.69-23.24-2.16 5.369v17.871h-2.07V9.324h2.07v26.137l10.27-26.137h2.16l-9.01 23.029 9.6 26.42h-2.17Zm23.35 6.64h-2.03v-6.64h-14.55V9.324h2.03v46.481h9.82V9.325h2.12v46.48h2.61v9.607Zm16.4-50.366-4.73 20.486-5.18 23.24h-2.25V9.324h1.89v42.314l4.59-20.203 5.09-22.11h2.48v49.447h-1.89V15.046Zm8.4 17.166h8.6v2.967h-8.6v20.626h10.36v2.967h-12.43V9.324h12.43v2.967h-10.36v19.92ZM1148.68 0h1.39c-.03 1.837-.46 3.297-1.3 4.38-.85 1.083-1.93 1.624-3.25 1.624s-2.4-.518-3.24-1.554c-.81-1.083-1.23-2.566-1.26-4.45h1.44c.03 1.319.33 2.308.9 2.967.57.612 1.29.918 2.16.918 2.01 0 3.07-1.295 3.16-3.885Zm1.75 15.046-4.5 19.638-5.41 24.088h-2.25V9.324h1.89v42.314l4.1-18.014 5.59-24.3h2.47v49.448h-1.89V15.046Zm26.43 0-4.72 20.486-5.18 23.24h-2.26V9.324h1.9v42.314l4.59-20.203 5.09-22.11h2.48v49.447h-1.9V15.046Zm26.12-2.755h-9.82v46.481h-2.07V9.324h14.01v49.448h-2.12v-46.48Zm6.61-2.967h6.53c4.5 0 6.75 4.003 6.75 12.01v5.368c0 7.817-2.43 11.726-7.29 11.726h-3.92v20.344h-2.07V9.324Zm2.07 26.137h3.92c1.83 0 3.15-.66 3.96-1.978.84-1.365 1.26-3.555 1.26-6.57v-5.792c0-5.886-1.56-8.83-4.68-8.83h-4.46v23.17Zm15.1 11.232v-25.29c0-3.767.57-6.78 1.71-9.041 1.17-2.308 2.9-3.461 5.18-3.461 2.34 0 4.08 1.13 5.22 3.39 1.18 2.26 1.76 5.298 1.76 9.113v25.289c0 3.815-.58 6.852-1.76 9.112-1.14 2.26-2.88 3.391-5.22 3.391-2.28 0-4.01-1.13-5.18-3.39-1.14-2.308-1.71-5.346-1.71-9.113Zm2.07-25.501v25.713c0 2.873.39 5.157 1.17 6.852.78 1.648 2 2.472 3.65 2.472 1.68 0 2.91-.824 3.69-2.472.81-1.695 1.22-3.98 1.22-6.852V21.192c0-2.873-.41-5.133-1.22-6.781-.78-1.696-2.01-2.543-3.69-2.543-1.65 0-2.87.847-3.65 2.543-.78 1.648-1.17 3.908-1.17 6.78Zm29.04 37.58-8.69-23.24-2.16 5.369v17.871h-2.07V9.324h2.07v26.137l10.27-26.137h2.16l-9.01 23.029 9.6 26.42h-2.17Zm6.05-12.079v-25.29c0-3.767.57-6.78 1.71-9.041 1.18-2.308 2.9-3.461 5.18-3.461 2.35 0 4.09 1.13 5.23 3.39 1.17 2.26 1.76 5.298 1.76 9.113v25.289c0 3.815-.59 6.852-1.76 9.112-1.14 2.26-2.88 3.391-5.23 3.391-2.28 0-4-1.13-5.18-3.39-1.14-2.308-1.71-5.346-1.71-9.113Zm2.07-25.501v25.713c0 2.873.4 5.157 1.18 6.852.78 1.648 1.99 2.472 3.64 2.472 1.69 0 2.92-.824 3.7-2.472.81-1.695 1.21-3.98 1.21-6.852V21.192c0-2.873-.4-5.133-1.21-6.781-.78-1.696-2.01-2.543-3.7-2.543-1.65 0-2.86.847-3.64 2.543-.78 1.648-1.18 3.908-1.18 6.78Zm28.01 14.34h-9.82v23.24h-2.07V9.324h2.07v23.241h9.82V9.325h2.12v49.447H1294v-23.24Zm8.14-23.17c1.11-2.308 2.82-3.461 5.13-3.461s4.03 1.153 5.14 3.461c1.11 2.26 1.66 5.274 1.66 9.042V25.5h-1.98v-4.31c0-2.825-.39-5.085-1.17-6.78-.75-1.696-1.95-2.543-3.6-2.543-1.65 0-2.87.847-3.65 2.543-.75 1.695-1.13 3.955-1.13 6.78v25.714c0 6.169 1.6 9.254 4.78 9.254s4.77-3.085 4.77-9.254v-5.863h1.98v5.65c0 3.768-.55 6.806-1.66 9.113-1.11 2.26-2.83 3.391-5.14 3.391-2.31 0-4.02-1.13-5.13-3.39-1.11-2.308-1.67-5.346-1.67-9.113v-25.29c0-3.767.56-6.78 1.67-9.041Zm32.34-3.038-8.15 40.265c-.57 3.297-1.34 5.698-2.3 7.205-.96 1.46-2.51 2.12-4.64 1.978v-2.896c1.38.047 2.4-.377 3.06-1.271.66-.942 1.2-2.45 1.62-4.521l1.31-6.005-7.57-34.755h2.12l3.69 17.449 2.75 13.21 2.52-13.281 3.43-17.378h2.16Zm17.91 2.967h-7.7l-.81 34.402c-.06 1.884-.16 3.485-.31 4.803-.15 1.272-.42 2.52-.81 3.744-.37 1.178-.92 2.072-1.67 2.685-.72.565-1.64.87-2.75.918h-.4v-2.967c.84 0 1.53-.212 2.07-.636.54-.47.93-1.177 1.17-2.119.24-.989.39-1.907.45-2.755.09-.895.15-2.096.18-3.602l.95-37.44h11.75v49.448h-2.12v-46.48Zm8.76 17.378h3.88c2.49 0 4.33.965 5.54 2.896 1.2 1.93 1.8 4.874 1.8 8.83v5.369c0 8.005-2.27 12.008-6.8 12.008h-6.49V9.324h2.07V29.67Zm0 26.136h4.42c3.15 0 4.73-2.943 4.73-8.83v-5.792c0-3.014-.42-5.18-1.27-6.499-.84-1.366-2.17-2.048-4-2.048h-3.88v23.17Zm23.47 2.967h-2.07v-46.48h-6.44V9.323h14.95v2.967h-6.44v46.481Zm22.55-43.726-4.72 20.486-5.18 23.24h-2.26V9.324h1.9v42.314l4.59-20.203 5.09-22.11h2.48v49.447h-1.9V15.046Zm6.34-5.722h6.53c4.5 0 6.76 4.003 6.76 12.01v5.368c0 7.817-2.44 11.726-7.3 11.726h-3.92v20.344h-2.07V9.324Zm2.07 26.137h3.92c1.83 0 3.15-.66 3.96-1.978.84-1.365 1.26-3.555 1.26-6.57v-5.792c0-5.886-1.56-8.83-4.68-8.83h-4.46v23.17Zm15.1 11.232v-25.29c0-3.767.57-6.78 1.71-9.041 1.17-2.308 2.9-3.461 5.18-3.461 2.34 0 4.08 1.13 5.23 3.39 1.17 2.26 1.75 5.298 1.75 9.113v25.289c0 3.815-.58 6.852-1.75 9.112-1.15 2.26-2.89 3.391-5.23 3.391-2.28 0-4.01-1.13-5.18-3.39-1.14-2.308-1.71-5.346-1.71-9.113Zm2.07-25.501v25.713c0 2.873.39 5.157 1.17 6.852.78 1.648 2 2.472 3.65 2.472 1.68 0 2.91-.824 3.69-2.472.82-1.695 1.22-3.98 1.22-6.852V21.192c0-2.873-.4-5.133-1.22-6.781-.78-1.696-2.01-2.543-3.69-2.543-1.65 0-2.87.847-3.65 2.543-.78 1.648-1.17 3.908-1.17 6.78Zm16.12-11.868h6.62c2.31 0 3.96.872 4.95 2.614 1 1.743 1.49 4.38 1.49 7.912v2.825c0 2.826-.31 5.04-.94 6.64-.61 1.555-1.67 2.59-3.2 3.109 3.15.989 4.73 4.52 4.73 10.596v4.309c0 7.629-2.3 11.443-6.89 11.443h-6.76V9.324Zm2.07 21.828h3.51c1.93 0 3.31-.541 4.15-1.625.84-1.13 1.26-3.202 1.26-6.216v-3.179c0-2.684-.33-4.662-.99-5.933-.66-1.272-1.8-1.908-3.42-1.908h-4.51v18.861Zm0 24.653h4.69c3.21 0 4.81-2.849 4.81-8.547v-4.45c0-3.155-.45-5.392-1.35-6.711-.9-1.319-2.31-1.978-4.23-1.978h-3.92v21.686Zm28.69-7.982h-9.82l-1.58 10.95h-1.89l6.89-49.52h3.02l7.03 49.52h-2.08l-1.57-10.95Zm-4.96-34.825-4.54 32h9.18l-4.64-32Zm20.61 45.774h-2.07v-46.48h-6.44V9.323h14.95v2.967h-6.44v46.481Zm12.46-29.103h3.88c2.49 0 4.34.965 5.54 2.896 1.2 1.93 1.8 4.874 1.8 8.83v5.369c0 8.005-2.27 12.008-6.8 12.008h-6.49V9.324h2.07V29.67Zm0 26.136h4.42c3.15 0 4.73-2.943 4.73-8.83v-5.792c0-3.014-.42-5.18-1.26-6.499-.84-1.366-2.18-2.048-4.01-2.048h-3.88v23.17Zm17.03-43.443c1.12-2.308 2.83-3.461 5.14-3.461 2.31 0 4.02 1.153 5.13 3.461 1.11 2.26 1.67 5.274 1.67 9.042V25.5h-1.98v-4.31c0-2.825-.39-5.085-1.17-6.78-.75-1.696-1.95-2.543-3.61-2.543-1.65 0-2.86.847-3.64 2.543-.76 1.695-1.13 3.955-1.13 6.78v25.714c0 6.169 1.59 9.254 4.77 9.254 3.19 0 4.78-3.085 4.78-9.254v-5.863h1.98v5.65c0 3.768-.56 6.806-1.67 9.113-1.11 2.26-2.82 3.391-5.13 3.391s-4.02-1.13-5.14-3.39c-1.11-2.308-1.66-5.346-1.66-9.113v-25.29c0-3.767.55-6.78 1.66-9.041Zm27.93 24.3h-3.29c-1.95 0-3.42.636-4.41 1.907-.99 1.225-1.49 3.391-1.49 6.5v7.77c0 2.731-.22 4.709-.67 5.933h-2.17c.51-1.224.77-3.202.77-5.933v-7.7c0-5.698 1.52-9.066 4.55-10.102-3.03-1.083-4.55-4.497-4.55-10.242v-4.31c0-7.44 2.25-11.16 6.76-11.16h6.57v49.447h-2.07v-22.11Zm0-24.37h-4.46c-3.15 0-4.73 2.825-4.73 8.476v4.662c0 3.156.48 5.322 1.44 6.5.96 1.176 2.44 1.765 4.42 1.765h3.33V12.291Zm15.99.07c1.11-2.308 2.82-3.461 5.13-3.461 2.32 0 4.03 1.153 5.14 3.461 1.11 2.26 1.66 5.274 1.66 9.042V25.5h-1.98v-4.31c0-2.825-.39-5.085-1.17-6.78-.75-1.696-1.95-2.543-3.6-2.543-1.65 0-2.87.847-3.65 2.543-.75 1.695-1.13 3.955-1.13 6.78v25.714c0 6.169 1.6 9.254 4.78 9.254s4.77-3.085 4.77-9.254v-5.863h1.98v5.65c0 3.768-.55 6.806-1.66 9.113-1.11 2.26-2.82 3.391-5.14 3.391-2.31 0-4.02-1.13-5.13-3.39-1.11-2.308-1.67-5.346-1.67-9.113v-25.29c0-3.767.56-6.78 1.67-9.041Zm16.08 34.331v-25.29c0-3.767.57-6.78 1.71-9.041 1.17-2.308 2.9-3.461 5.18-3.461 2.34 0 4.08 1.13 5.23 3.39 1.17 2.26 1.75 5.298 1.75 9.113v25.289c0 3.815-.58 6.852-1.75 9.112-1.15 2.26-2.89 3.391-5.23 3.391-2.28 0-4.01-1.13-5.18-3.39-1.14-2.308-1.71-5.346-1.71-9.113Zm2.07-25.501v25.713c0 2.873.39 5.157 1.17 6.852.78 1.648 2 2.472 3.65 2.472 1.68 0 2.91-.824 3.69-2.472.81-1.695 1.22-3.98 1.22-6.852V21.192c0-2.873-.41-5.133-1.22-6.781-.78-1.696-2.01-2.543-3.69-2.543-1.65 0-2.87.847-3.65 2.543-.78 1.648-1.17 3.908-1.17 6.78Zm25.54-8.83c1.12-2.308 2.83-3.461 5.14-3.461 2.31 0 4.02 1.153 5.13 3.461 1.11 2.26 1.67 5.274 1.67 9.042V25.5h-1.98v-4.31c0-2.825-.39-5.085-1.17-6.78-.75-1.696-1.95-2.543-3.61-2.543-1.65 0-2.86.847-3.64 2.543-.75 1.695-1.13 3.955-1.13 6.78v25.714c0 6.169 1.59 9.254 4.77 9.254 3.19 0 4.78-3.085 4.78-9.254v-5.863h1.98v5.65c0 3.768-.56 6.806-1.67 9.113-1.11 2.26-2.82 3.391-5.13 3.391s-4.02-1.13-5.14-3.39c-1.11-2.308-1.66-5.346-1.66-9.113v-25.29c0-3.767.55-6.78 1.66-9.041Zm28.11-.071h-9.82v46.481h-2.07V9.324h14.01v49.448h-2.12v-46.48Zm8.68 19.921h8.6v2.967h-8.6v20.626h10.36v2.967h-12.44V9.324h12.44v2.967h-10.36v19.92Zm31.78 33.2h-2.03v-6.64h-14.55V9.324h2.03v46.481h9.82V9.325h2.11v46.48h2.62v9.607Zm16.39-50.366-4.73 20.486-5.18 23.24h-2.25V9.324h1.89v42.314l4.6-20.203 5.09-22.11h2.48v49.447h-1.9V15.046Zm19.17 32.777h-9.82l-1.57 10.95h-1.89l6.89-49.52h3.02l7.02 49.52h-2.07l-1.58-10.95Zm-4.95-34.825-4.55 32h9.19l-4.64-32Zm26.6-.707h-7.7l-.82 34.402c-.06 1.884-.16 3.485-.31 4.803-.15 1.272-.42 2.52-.81 3.744-.36 1.178-.92 2.072-1.67 2.685-.72.565-1.63.87-2.75.918h-.4v-2.967c.84 0 1.53-.212 2.07-.636.54-.47.93-1.177 1.17-2.119.24-.989.39-1.907.45-2.755.09-.895.15-2.096.18-3.602l.95-37.44h11.75v49.448h-2.11v-46.48Zm18.84 2.755-4.72 20.486-5.18 23.24h-2.26V9.324h1.9v42.314l4.59-20.203 5.09-22.11h2.48v49.447h-1.9V15.046Zm7.87-2.684c1.11-2.308 2.82-3.461 5.13-3.461 2.32 0 4.03 1.153 5.14 3.461 1.11 2.26 1.67 5.274 1.67 9.042V25.5h-1.99v-4.31c0-2.825-.39-5.085-1.17-6.78-.75-1.696-1.95-2.543-3.6-2.543-1.65 0-2.87.847-3.65 2.543-.75 1.695-1.12 3.955-1.12 6.78v25.714c0 6.169 1.59 9.254 4.77 9.254 3.18 0 4.77-3.085 4.77-9.254v-5.863h1.99v5.65c0 3.768-.56 6.806-1.67 9.113-1.11 2.26-2.82 3.391-5.14 3.391-2.31 0-4.02-1.13-5.13-3.39-1.11-2.308-1.67-5.346-1.67-9.113v-25.29c0-3.767.56-6.78 1.67-9.041Zm24.19 46.41h-2.07v-46.48h-6.45V9.323h14.96v2.967h-6.44v46.481Zm10.25-12.079v-25.29c0-3.767.57-6.78 1.71-9.041 1.18-2.308 2.9-3.461 5.18-3.461 2.35 0 4.09 1.13 5.23 3.39 1.17 2.26 1.75 5.298 1.75 9.113v25.289c0 3.815-.58 6.852-1.75 9.112-1.14 2.26-2.88 3.391-5.23 3.391-2.28 0-4-1.13-5.18-3.39-1.14-2.308-1.71-5.346-1.71-9.113Zm2.07-25.501v25.713c0 2.873.39 5.157 1.18 6.852.78 1.648 1.99 2.472 3.64 2.472 1.69 0 2.92-.824 3.7-2.472.81-1.695 1.21-3.98 1.21-6.852V21.192c0-2.873-.4-5.133-1.21-6.781-.78-1.696-2.01-2.543-3.7-2.543-1.65 0-2.86.847-3.64 2.543-.79 1.648-1.18 3.908-1.18 6.78Zm33.28-6.358-6.57 43.868h-2.08l-6.66-43.726v43.796h-1.85V9.324h2.97l6.63 43.727 6.57-43.727h2.97v49.448h-1.98V14.834Z" opacity=".7"/></g><defs><clipPath id="a"><path fill="#fff" d="M0 0h1858v65.412H0z"/></clipPath></defs></svg>