<svg width="351" height="46" fill="none" xmlns="http://www.w3.org/2000/svg"><path opacity=".7" d="M60.914 42.328H64.7V24.563h.817v17.765h1.007V46h-.782v-2.538h-5.61V24.563h.783v17.765Zm224.442 0h3.787V24.563h.816v17.765h1.007V46h-.781v-2.538h-5.61V24.563h.781v17.765ZM2.622 24.401c.891 0 1.551.442 1.98 1.324.428.863.642 2.016.642 3.456v1.565H4.48V29.1c0-1.08-.15-1.944-.45-2.592-.29-.648-.754-.973-1.39-.973-.637 0-1.106.325-1.407.973C.944 27.156.8 28.02.8 29.1v9.827c0 2.357.613 3.536 1.84 3.536 1.228 0 1.841-1.179 1.841-3.536v-2.242h.764v2.16c0 1.44-.214 2.601-.642 3.483-.429.864-1.088 1.296-1.98 1.296-.891 0-1.551-.432-1.98-1.296C.215 41.446 0 40.285 0 38.846V29.18c0-1.44.214-2.593.643-3.456.428-.882 1.088-1.324 1.98-1.324Zm24.148 0c.892 0 1.553.442 1.981 1.324.428.863.643 2.016.643 3.456v1.565h-.765V29.1c0-1.08-.15-1.944-.451-2.592-.29-.648-.753-.973-1.39-.973-.637 0-1.105.325-1.406.973-.29.648-.435 1.512-.435 2.592v9.827c0 2.357.614 3.536 1.841 3.536 1.227 0 1.84-1.179 1.84-3.536v-2.242h.766v2.16c0 1.44-.215 2.601-.643 3.483-.428.864-1.089 1.296-1.98 1.296-.892 0-1.552-.432-1.98-1.296-.428-.882-.643-2.043-.643-3.482V29.18c0-1.44.215-2.593.643-3.456.428-.882 1.088-1.324 1.98-1.324Zm91.729 0c.903 0 1.575.433 2.015 1.296.451.864.676 2.026.676 3.484v9.665c0 1.457-.225 2.618-.676 3.482-.44.864-1.112 1.296-2.015 1.296-.88 0-1.546-.432-1.997-1.296-.44-.882-.66-2.043-.66-3.482V29.18c0-1.44.22-2.593.66-3.456.451-.882 1.117-1.324 1.997-1.324Zm14.33 0c.903 0 1.575.433 2.015 1.296.451.864.677 2.026.677 3.484v9.665c-.001 1.457-.226 2.618-.677 3.482-.44.864-1.112 1.296-2.015 1.296-.88 0-1.545-.432-1.997-1.296-.44-.882-.66-2.043-.66-3.482V29.18c0-1.44.22-2.593.66-3.456.452-.882 1.117-1.324 1.997-1.324Zm14.058 0c.891 0 1.551.442 1.979 1.324.429.863.643 2.016.643 3.456v1.565h-.764V29.1c0-1.08-.151-1.944-.452-2.592-.289-.648-.752-.973-1.389-.973-.636 0-1.106.325-1.407.973-.289.648-.434 1.512-.434 2.592v9.827c.001 2.357.614 3.536 1.841 3.536 1.227 0 1.841-1.179 1.841-3.536v-2.242h.764v2.16c0 1.44-.214 2.601-.643 3.483-.428.864-1.088 1.296-1.979 1.296-.892 0-1.551-.432-1.98-1.296-.428-.882-.642-2.043-.642-3.482V29.18c0-1.44.214-2.593.642-3.456.429-.882 1.088-1.324 1.98-1.324Zm50.24 0c.903 0 1.574.433 2.014 1.296.451.864.677 2.026.677 3.484v9.665c0 1.458-.226 2.618-.677 3.482-.44.864-1.111 1.296-2.014 1.296-.88 0-1.546-.432-1.997-1.296-.44-.882-.66-2.043-.66-3.482V29.18c0-1.44.22-2.593.66-3.456.451-.882 1.117-1.324 1.997-1.324Zm35.602 0c.892 0 1.553.442 1.981 1.324.428.863.643 2.016.643 3.456v1.565h-.765V29.1c0-1.08-.15-1.944-.451-2.592-.29-.648-.753-.973-1.39-.973-.637 0-1.105.325-1.406.973-.29.648-.435 1.512-.435 2.592v9.827c0 2.357.614 3.536 1.841 3.536 1.227 0 1.841-1.179 1.841-3.536v-2.242h.765v2.16c0 1.44-.215 2.601-.643 3.483-.428.864-1.089 1.296-1.981 1.296-.891 0-1.551-.432-1.979-1.296-.428-.882-.643-2.043-.643-3.482V29.18c0-1.44.215-2.593.643-3.456.428-.882 1.088-1.324 1.979-1.324Zm16.934 0c.891 0 1.551.442 1.98 1.324.428.863.642 2.016.642 3.456v1.565h-.764V29.1c0-1.08-.151-1.944-.452-2.592-.289-.648-.753-.973-1.389-.973-.637 0-1.106.325-1.407.973-.289.648-.434 1.512-.434 2.592v9.827c0 2.357.614 3.536 1.841 3.536 1.227 0 1.84-1.179 1.841-3.536v-2.242h.764v2.16c0 1.44-.214 2.601-.642 3.483-.429.864-1.089 1.296-1.98 1.296s-1.552-.432-1.98-1.296c-.429-.882-.643-2.043-.643-3.482V29.18c0-1.44.214-2.593.643-3.456.428-.882 1.089-1.324 1.98-1.324Zm6.877 0c.903 0 1.575.433 2.015 1.296.451.864.676 2.026.676 3.484v9.665c0 1.457-.225 2.618-.676 3.482-.44.864-1.112 1.296-2.015 1.296-.88 0-1.546-.432-1.997-1.296-.44-.882-.66-2.043-.66-3.482V29.18c0-1.44.22-2.593.66-3.456.451-.882 1.117-1.324 1.997-1.324Zm9.971 0c.891 0 1.551.442 1.979 1.324.429.863.643 2.016.643 3.456v1.565h-.764V29.1c0-1.08-.151-1.944-.452-2.592-.289-.648-.752-.973-1.389-.973-.636 0-1.106.325-1.407.973-.289.648-.433 1.512-.433 2.592v9.827c0 2.357.613 3.536 1.84 3.536s1.841-1.179 1.841-3.536v-2.242h.764v2.16c0 1.44-.214 2.601-.643 3.483-.428.864-1.088 1.296-1.979 1.296-.892 0-1.551-.432-1.98-1.296-.428-.882-.642-2.043-.642-3.482V29.18c0-1.44.214-2.593.642-3.456.429-.882 1.088-1.324 1.98-1.324Zm58.795 0c.891 0 1.551.442 1.979 1.324.429.863.643 2.016.643 3.456v1.565h-.765V29.1c0-1.08-.15-1.944-.451-2.592-.29-.648-.753-.973-1.39-.973-.636 0-1.105.325-1.406.973-.289.648-.435 1.512-.435 2.592v9.827c0 2.357.614 3.536 1.841 3.536 1.227 0 1.841-1.179 1.841-3.536v-2.242h.765v2.16c0 1.44-.215 2.601-.643 3.483-.428.864-1.088 1.296-1.979 1.296-.892 0-1.552-.432-1.981-1.296-.428-.882-.642-2.043-.642-3.482V29.18c0-1.44.214-2.593.642-3.456.429-.882 1.089-1.324 1.981-1.324Zm13.957 0c.903 0 1.574.433 2.014 1.296.452.864.678 2.026.678 3.484v9.665c0 1.458-.226 2.618-.678 3.482-.44.864-1.111 1.296-2.014 1.296-.88 0-1.546-.432-1.997-1.296-.44-.882-.661-2.043-.661-3.482V29.18c0-1.44.221-2.593.661-3.456.451-.882 1.117-1.324 1.997-1.324Zm-174.162 19.06h-.817V25.698h-2.97l-.312 13.149c-.023.72-.064 1.332-.122 1.836a7.568 7.568 0 0 1-.313 1.43c-.139.45-.353.793-.642 1.027-.278.215-.631.332-1.059.35h-.156v-1.133c.324 0 .59-.082.799-.244.208-.18.358-.45.451-.81.093-.377.151-.729.174-1.053.034-.342.058-.8.069-1.376l.364-14.31h4.534v18.899Zm148.741 0h-.817V25.698h-2.969l-.313 13.149c-.023.72-.063 1.332-.121 1.836a7.644 7.644 0 0 1-.312 1.43c-.139.45-.354.793-.643 1.027-.278.216-.631.332-1.06.35h-.156v-1.133c.324 0 .591-.082.799-.244.208-.18.359-.45.451-.81.093-.377.151-.729.174-1.053.035-.342.058-.8.069-1.376l.366-14.31h4.532v18.899ZM46.828 31.233l1.06 5.05.972-5.077 1.32-6.641h.834L47.87 39.952c-.22 1.26-.515 2.178-.886 2.754-.37.558-.966.81-1.788.756v-1.107c.533.018.926-.144 1.181-.486.255-.36.463-.936.625-1.727l.504-2.295-2.918-13.284h.816l1.424 6.67Zm106.363 0 1.059 5.05.973-5.077 1.32-6.641h.833l-3.144 15.388c-.22 1.26-.514 2.178-.884 2.754-.371.558-.967.81-1.789.756v-1.107c.532.018.926-.144 1.18-.486.255-.36.463-.936.625-1.727l.504-2.295-2.917-13.284h.816l1.424 6.67ZM10.668 40.735l1.772-7.721 1.961-8.45h.955v18.898h-.728V26.75l-1.824 7.83-1.997 8.88h-.869V24.565h.73v16.171Zm7.2-7.289h3.786v-8.882h.817v18.898h-.817V34.58h-3.786v8.882h-.799V24.563h.8v8.883Zm18.733-7.749h-2.484v17.765h-.799V25.697h-2.483v-1.133h5.766v1.133Zm4.04-1.133c1.737 0 2.605 1.53 2.605 4.59v2.051c0 2.988-.937 4.481-2.812 4.482h-1.512v7.775h-.799V24.563h2.519Zm12.696 9.989 3.96-9.99h.833l-3.474 8.802 3.7 10.097h-.834l-3.351-8.882-.834 2.052v6.83h-.799V24.563h.799v9.99Zm15.549 6.182 1.771-7.721 1.963-8.45h.955v18.898h-.73V26.75l-1.823 7.83-1.997 8.88h-.868V24.565h.729v16.171ZM80.08 25.697h-3.994v7.613h3.316v1.135h-3.316v7.883h3.994v1.134h-4.793V24.563h4.793v1.134Zm2.372 15.038 1.58-6.884 2.153-9.287h.956v18.898h-.73V26.75l-1.736 7.505-2.084 9.206h-.868V24.563h.73v16.172Zm10.191 0 1.772-7.721 1.962-8.45h.956v18.898h-.73V26.75l-1.824 7.83-1.997 8.88h-.868V24.565h.73v16.171Zm14.847 2.727h-.816V25.697h-3.786v17.765h-.799V24.563h5.401v18.899Zm4.248-18.899c1.737 0 2.605 1.53 2.605 4.59v2.052c0 2.988-.938 4.481-2.813 4.482h-1.511v7.775h-.799V24.563h2.518Zm11.915 9.99 3.96-9.99h.833l-3.472 8.802 3.698 10.097h-.833l-3.352-8.882-.834 2.052v6.83h-.799V24.563h.799v9.99Zm14.33-1.107h3.787v-8.882h.815v18.898h-.815V34.58h-3.787v8.882h-.798V24.563h.798v8.883Zm29.677-1.107h1.494c.961 0 1.673.37 2.136 1.107.463.738.694 1.863.694 3.374v2.053c0 3.06-.874 4.589-2.622 4.589h-2.501V24.563h.799v7.776Zm11.533-6.642h-2.483v17.765h-.799V25.697h-2.483v-1.133h5.765v1.133Zm2.253 15.038 1.772-7.721 1.962-8.45h.955v18.898h-.73V26.75l-1.823 7.83-1.997 8.88h-.868V24.565h.729v16.171Zm8.919-16.171c1.737 0 2.606 1.53 2.606 4.59v2.051c0 2.988-.938 4.482-2.814 4.482h-1.511v7.775h-.798V24.563h2.517Zm13.67 0c.891 0 1.528.333 1.91.998.382.666.573 1.674.574 3.024v1.08c0 1.08-.123 1.926-.366 2.538-.231.594-.642.99-1.232 1.188 1.215.378 1.823 1.728 1.823 4.05v1.647c0 2.915-.886 4.373-2.657 4.373h-2.605V24.563h2.553Zm10.714 18.898h-.799l-.608-4.185h-3.785l-.609 4.185h-.729l2.657-18.925h1.163l2.71 18.925Zm7.112-17.765h-2.483v17.765h-.799V25.697h-2.483v-1.133h5.765v1.133Zm2.322 6.642h1.493c.961 0 1.673.37 2.136 1.107.463.738.695 1.863.695 3.374v2.053c0 3.06-.874 4.589-2.622 4.589h-2.501V24.563h.799v7.776Zm18.132 11.123h-.798v-8.45h-1.268c-.753 0-1.32.243-1.702.73-.382.467-.573 1.295-.573 2.483v2.97c0 1.043-.087 1.799-.26 2.267h-.834c.197-.468.295-1.224.295-2.268v-2.942c0-2.178.585-3.465 1.754-3.861-1.169-.414-1.754-1.72-1.754-3.914v-1.648c0-2.844.869-4.265 2.605-4.265h2.535v18.898Zm33.868 0h-.816V25.697h-3.786v17.765h-.799V24.563h5.401v18.899Zm6.523-17.765h-3.994v7.613h3.317v1.135h-3.317v7.883h3.994v1.134h-4.793V24.563h4.793v1.134Zm10.622 15.038 1.772-7.721 1.962-8.45h.956v18.898h-.73V26.75l-1.823 7.83-1.997 8.88h-.869V24.565h.729v16.171Zm12.758 2.727h-.799l-.607-4.185h-3.786l-.608 4.185h-.729l2.657-18.925h1.163l2.709 18.925Zm10.247-2.727 1.77-7.721 1.963-8.45h.955v18.898h-.729V26.75l-1.823 7.83-1.997 8.88h-.869V24.565h.73v16.171Zm18.801-15.038h-2.484v17.765h-.798V25.697h-2.484v-1.133h5.766v1.133Zm12.183 15.578 2.536-16.711H351v18.898h-.764V26.67L347.7 43.435h-.799l-2.57-16.711v16.738h-.712V24.563h1.147l2.552 16.712Zm-228.819-15.74c-.637 0-1.105.325-1.406.973-.301.63-.452 1.494-.452 2.592v9.827c0 1.097.151 1.97.452 2.618.301.63.769.945 1.406.945.648 0 1.123-.315 1.424-.945.312-.648.469-1.52.469-2.618V29.1c0-1.098-.157-1.962-.469-2.592-.301-.648-.776-.973-1.424-.973Zm14.33 0c-.637 0-1.106.325-1.407.973-.301.63-.451 1.494-.451 2.592v9.827c0 1.097.15 1.97.451 2.618.301.63.77.945 1.407.945.648 0 1.123-.315 1.424-.945.312-.648.469-1.52.469-2.618V29.1c0-1.098-.157-1.962-.469-2.592-.301-.648-.776-.973-1.424-.973Zm64.298 0c-.637 0-1.106.325-1.407.973-.301.63-.451 1.494-.451 2.592v9.827c0 1.097.15 1.97.451 2.618.301.63.77.945 1.407.945.648 0 1.123-.315 1.424-.945.312-.648.469-1.52.469-2.618V29.1c0-1.098-.157-1.962-.469-2.592-.301-.648-.776-.973-1.424-.973Zm59.413 0c-.637 0-1.105.325-1.406.973-.301.63-.452 1.494-.452 2.592v9.827c0 1.098.151 1.97.452 2.618.301.63.769.945 1.406.945.648 0 1.123-.315 1.424-.945.312-.648.469-1.52.469-2.618V29.1c0-1.098-.157-1.962-.469-2.592-.301-.648-.776-.973-1.424-.973Zm82.723 0c-.637 0-1.106.325-1.407.973-.301.63-.452 1.494-.452 2.592v9.827c0 1.097.152 1.97.452 2.618.301.63.77.945 1.407.945.648 0 1.123-.315 1.424-.945.312-.648.469-1.52.469-2.618V29.1c0-1.098-.157-1.962-.469-2.592-.301-.648-.776-.973-1.424-.973ZM167.661 42.328h1.702c1.216 0 1.824-1.125 1.824-3.375V36.74c-.001-1.151-.163-1.98-.487-2.483-.324-.522-.839-.783-1.545-.783h-1.494v8.855Zm34.621 0h1.806c1.239 0 1.858-1.089 1.858-3.267v-1.7c0-1.206-.174-2.061-.521-2.565-.347-.504-.891-.756-1.632-.756h-1.511v8.288Zm21.902 0h1.702c1.215 0 1.823-1.125 1.823-3.375V36.74c0-1.151-.162-1.98-.486-2.483-.325-.522-.84-.783-1.546-.783h-1.493v8.855Zm-14.505-4.13h3.543l-1.789-12.23-1.754 12.23Zm91.337 0h3.543l-1.788-12.23-1.755 12.23ZM38.922 34.552h1.512c.706 0 1.214-.252 1.527-.756.324-.522.486-1.359.486-2.51v-2.215c0-2.25-.601-3.375-1.805-3.375h-1.72v8.856Zm71.098 0h1.511c.706 0 1.215-.252 1.528-.756.324-.522.486-1.359.486-2.51v-2.215c0-2.25-.602-3.375-1.806-3.375h-1.719v8.856Zm78.627 0h1.511c.706 0 1.216-.252 1.529-.756.324-.522.486-1.359.486-2.51v-2.215c0-2.25-.603-3.375-1.807-3.375h-1.719v8.856Zm51.152-8.856c-1.216 0-1.824 1.08-1.824 3.24v1.782c0 1.205.185 2.034.555 2.484.371.45.938.675 1.702.675h1.286v-8.18h-1.719Zm-37.517 7.21h1.355c.741 0 1.273-.208 1.597-.622.325-.432.487-1.224.487-2.376v-1.215c0-1.025-.128-1.781-.382-2.267-.255-.486-.695-.73-1.32-.73h-1.737v7.21ZM83.339 21c.011.504.127.882.347 1.134.22.234.498.351.833.351.776 0 1.182-.495 1.216-1.485h.538c-.011.702-.18 1.26-.504 1.674-.324.414-.74.62-1.25.62-.509 0-.926-.197-1.25-.593-.313-.414-.474-.981-.486-1.701h.556Zm148.587-3.635h1.049V21h-.831v-2.537h-6.04V21h-.813v-3.635h.868c.374-.575.585-1.552.633-2.93l.506-14.278h4.628v17.208ZM29.416 0c.928 0 1.621.418 2.08 1.255.47.837.704 1.962.704 3.374v9.362c0 1.412-.235 2.537-.705 3.374-.458.837-1.151 1.255-2.079 1.255-.94 0-1.64-.418-2.098-1.255-.458-.837-.686-1.962-.686-3.374V9.86h-2.188v8.604h-.832V.157h.832v8.604h2.188V4.629c0-1.412.228-2.537.686-3.374C27.776.418 28.476 0 29.416 0Zm14.58 0c.928 0 1.615.427 2.06 1.281.447.837.67 1.953.67 3.348v1.517h-.795V4.55c0-1.046-.158-1.883-.471-2.511-.301-.628-.783-.941-1.446-.941-.663 0-1.15.313-1.464.941-.301.628-.452 1.465-.452 2.51v9.52c0 2.283.638 3.426 1.916 3.426 1.277 0 1.917-1.143 1.917-3.427V11.9h.795v2.092c0 1.395-.223 2.52-.67 3.374-.445.837-1.132 1.255-2.06 1.255-.928 0-1.616-.418-2.061-1.255-.446-.854-.67-1.979-.67-3.374V4.63c0-1.395.224-2.51.67-3.348C42.38.427 43.068 0 43.996 0ZM76.03 0c.94 0 1.639.418 2.097 1.255.47.837.705 1.962.705 3.374v9.362c0 1.412-.235 2.537-.705 3.374-.458.837-1.157 1.255-2.097 1.255-.916 0-1.609-.418-2.079-1.255-.458-.854-.687-1.979-.687-3.374V4.63c0-1.395.23-2.51.687-3.348C74.421.427 75.114 0 76.031 0Zm29.236 0c.94 0 1.638.418 2.096 1.255.47.837.705 1.962.705 3.374v9.362c0 1.412-.235 2.537-.705 3.374-.458.837-1.156 1.255-2.096 1.255-.916 0-1.609-.418-2.079-1.255-.458-.854-.688-1.979-.688-3.374V4.63c0-1.395.23-2.51.688-3.348C103.657.427 104.35 0 105.266 0Zm14.671 0c.939 0 1.638.418 2.096 1.255.47.837.705 1.962.705 3.374v9.362c0 1.412-.235 2.537-.705 3.374-.458.837-1.157 1.255-2.096 1.255-.916 0-1.61-.418-2.08-1.255-.458-.854-.687-1.979-.687-3.374V4.63c0-1.395.229-2.51.687-3.348.47-.854 1.164-1.281 2.08-1.281Zm23.135 0c.928 0 1.615.418 2.061 1.255.446.837.669 1.962.669 3.374v.47c0 .907-.151 1.7-.452 2.38-.302.663-.724 1.125-1.266 1.386.566.227.995.672 1.284 1.334.289.663.434 1.456.434 2.38v1.412c0 1.412-.223 2.537-.669 3.374-.446.837-1.133 1.255-2.061 1.255-.928 0-1.615-.418-2.061-1.255-.446-.837-.669-1.962-.669-3.374v-1.516h.796v1.594c0 1.046.151 1.883.452 2.511.313.628.801.942 1.464.942 1.277 0 1.916-1.186 1.916-3.557v-1.412c0-.942-.174-1.691-.524-2.25-.349-.557-.826-.836-1.428-.836h-.706V8.368h.76c.554 0 1.006-.287 1.356-.862.361-.593.542-1.317.542-2.171v-.68c0-2.37-.639-3.556-1.916-3.556-.663 0-1.151.313-1.464.941-.314.61-.471 1.447-.471 2.51v.994h-.759v-.941c0-1.413.217-2.529.651-3.348C141.457.418 142.144 0 143.072 0Zm54.922 0c.94 0 1.64.418 2.098 1.255.47.837.705 1.962.705 3.374v9.362c0 1.412-.235 2.537-.705 3.374-.458.837-1.158 1.255-2.098 1.255-.916 0-1.609-.418-2.079-1.255-.458-.854-.686-1.979-.686-3.374V4.63c0-1.395.228-2.51.686-3.348.47-.854 1.163-1.28 2.079-1.281Zm22.925 0c.94 0 1.639.418 2.097 1.255.47.837.705 1.962.705 3.374v9.362c0 1.412-.235 2.537-.705 3.374-.458.837-1.157 1.255-2.097 1.255-.916 0-1.609-.418-2.079-1.255-.458-.854-.688-1.979-.688-3.374V4.63c0-1.395.23-2.51.688-3.348C219.31.427 220.003 0 220.919 0Zm33.366 0c.94 0 1.64.418 2.098 1.255.47.837.705 1.962.705 3.374v9.362c0 1.412-.235 2.537-.705 3.374-.458.837-1.158 1.255-2.098 1.255-.916 0-1.609-.418-2.079-1.255-.458-.854-.686-1.979-.686-3.374V4.63c0-1.395.228-2.51.686-3.348.47-.854 1.163-1.28 2.079-1.281Zm10.416 0c.94 0 1.64.418 2.098 1.255.47.837.705 1.962.705 3.374v9.362c0 1.412-.235 2.537-.705 3.374-.458.837-1.158 1.255-2.098 1.255-.916 0-1.609-.418-2.079-1.255-.458-.854-.686-1.979-.686-3.374V4.63c0-1.395.228-2.51.686-3.348.47-.854 1.163-1.281 2.079-1.281Zm7.23 0c.927 0 1.614.418 2.06 1.255.446.837.669 1.962.669 3.374v.47c0 .907-.151 1.7-.452 2.38-.301.663-.723 1.125-1.266 1.386.567.227.995.672 1.285 1.334.289.663.433 1.456.433 2.38v1.412c0 1.412-.223 2.537-.669 3.374-.446.837-1.133 1.255-2.06 1.255-.928 0-1.616-.418-2.062-1.255-.446-.837-.669-1.962-.669-3.374v-1.516h.796v1.594c0 1.046.151 1.883.452 2.511.314.628.801.942 1.464.942 1.278 0 1.916-1.186 1.916-3.557v-1.412c0-.942-.174-1.691-.523-2.25-.35-.557-.826-.836-1.429-.836h-.705V8.368h.76c.554 0 1.006-.287 1.355-.862.362-.593.542-1.317.542-2.171v-.68c0-2.37-.638-3.556-1.916-3.556-.663 0-1.15.313-1.464.941-.313.61-.47 1.447-.47 2.51v.994h-.759v-.941c0-1.413.216-2.529.65-3.348C270.315.418 271.003 0 271.931 0Zm30.542 0c.94 0 1.638.418 2.096 1.255.47.837.705 1.962.705 3.374v9.362c0 1.412-.235 2.537-.705 3.374-.458.837-1.156 1.255-2.096 1.255-.916 0-1.609-.418-2.079-1.255-.458-.854-.687-1.979-.687-3.374V4.63c0-1.395.229-2.51.687-3.348.47-.854 1.163-1.281 2.079-1.281Zm38.548 0c.927 0 1.614.427 2.06 1.281.446.837.669 1.953.669 3.348v1.517h-.796V4.55c0-1.046-.156-1.883-.47-2.511-.301-.628-.783-.941-1.446-.941-.663 0-1.151.313-1.465.941-.301.628-.451 1.465-.451 2.51v9.52c0 2.283.639 3.426 1.916 3.426 1.278 0 1.916-1.143 1.916-3.427V11.9h.796v2.092c0 1.395-.223 2.52-.669 3.374-.446.837-1.133 1.255-2.06 1.255-.928 0-1.616-.418-2.062-1.255-.446-.854-.669-1.979-.669-3.374V4.63c0-1.395.223-2.51.669-3.348C339.405.427 340.093 0 341.021 0ZM.76 15.822l1.844-7.48L4.646.158h.995v18.306h-.76V2.275L2.983 9.86.904 18.463H0V.157h.76v15.665Zm10.514.523L13.914.157h1.193v18.306h-.795V2.196l-2.64 16.241h-.831L8.165 2.25v16.214h-.741V.157h1.193l2.657 16.188Zm10.628-15.09h-4.158V8.63h3.453v1.099h-3.453v7.636h4.158v1.098h-4.989V.157h4.99v1.098Zm17.832 0H37.15v17.208h-.832V1.255h-2.585V.157h6.002v1.098Zm14.242 17.208h-.831v-8.186h-1.32c-.784 0-1.375.236-1.772.706-.398.454-.597 1.256-.597 2.407v2.877c0 1.01-.09 1.743-.271 2.196h-.868c.205-.453.307-1.186.307-2.196v-2.851c0-2.11.609-3.357 1.826-3.74-1.217-.401-1.826-1.665-1.826-3.792V4.289c0-2.754.904-4.132 2.712-4.132h2.64v18.306Zm10.594 0h-.85V1.255h-3.94v17.208h-.833V.157h5.623v18.306ZM68.993.157c1.808 0 2.711 1.482 2.711 4.446V6.59c0 2.894-.976 4.342-2.929 4.342h-1.572v7.53h-.832V.158h2.622Zm17.358 1.098h-2.585v17.208h-.832V1.255h-2.585V.157h6.002v1.098Zm2.344 14.567 1.844-7.48L92.582.158h.994v18.306h-.759V2.275L90.92 9.86l-2.08 8.604h-.903V.157h.76v15.665ZM98.018.157c.927 0 1.59.323 1.988.968.397.645.597 1.621.597 2.929V5.1c0 1.046-.127 1.865-.38 2.458-.241.575-.669.96-1.284 1.151 1.266.366 1.899 1.674 1.899 3.923v1.595c0 2.824-.923 4.236-2.767 4.236H95.36V.157h2.659Zm17.405 18.306h-.85V1.255h-3.94v17.208h-.832V.157h5.622v18.306Zm9.88-8.63 4.122-9.676h.868l-3.616 8.526 3.851 9.78h-.868l-3.489-8.604-.868 1.988v6.616h-.831V.157h.831v9.676Zm13.456 8.63h-.831l-.633-4.053h-3.941l-.633 4.053h-.759L134.728.13h1.21l2.821 18.332Zm15.43 0h-.832l-.632-4.053h-3.942l-.633 4.053h-.758L150.157.13h1.212l2.82 18.332Zm2.451-9.702h3.941V.157h.85v18.306h-.85V9.859h-3.941v8.604h-.832V.157h.832v8.604Zm7.351 7.061 1.844-7.48 2.043-8.185h.994v18.306h-.759V2.275l-1.898 7.584-2.079 8.604h-.905V.157h.76v15.665Zm12.197 2.64h-.833v-8.185h-1.319c-.783 0-1.374.236-1.771.706-.398.454-.597 1.256-.597 2.407v2.877c0 1.01-.091 1.743-.272 2.196h-.868c.205-.453.308-1.185.308-2.196v-2.851c0-2.11.609-3.357 1.826-3.74-1.217-.401-1.826-1.665-1.826-3.792V4.289c0-2.755.904-4.132 2.712-4.132h2.64v18.306Zm5.803-9.701h3.942V.157h.849v18.306h-.849V9.859h-3.942v8.604h-.832V.157h.832v8.604Zm11.581-7.506h-4.157V8.63h3.452v1.099h-3.452v7.636h4.157v1.098h-4.989V.157h4.989v1.098Zm14.074 0h-4.285V7.95h1.808c1 0 1.741.323 2.224.968.482.645.723 1.683.723 3.112v2.066c0 2.911-.934 4.367-2.803 4.367h-2.784V.157h5.117v1.098Zm5.527 6.773 2.405-7.87h.795l-2.657 8.812 2.838 9.493h-.886l-2.567-8.526-2.568 8.526h-.813l2.856-9.493-2.657-8.813h.868l2.386 7.871Zm22.247 7.794 1.844-7.48 2.043-8.185h.995v18.306h-.76V2.275l-1.898 7.584-2.08 8.604h-.903V.157h.759v15.665Zm10.516.523L248.574.157h1.194v18.306h-.795V2.196l-2.64 16.241h-.832L242.825 2.25v16.214h-.741V.157h1.193l2.659 16.188Zm31.327-7.584h3.94V.157h.85v18.306h-.85V9.859h-3.94v8.604h-.832V.157h.832v8.604Zm13.208 9.702h-.831l-.633-4.053h-3.942l-.632 4.053h-.759L286.439.13h1.211l2.821 18.332Zm2.451-8.63 4.122-9.676h.867l-3.615 8.526 3.85 9.78h-.868l-3.489-8.604-.867 1.988v6.616h-.832V.157h.832v9.676Zm17.936 6.512 2.64-16.188h1.193v18.306h-.795V2.196l-2.639 16.241h-.832L307.749 2.25v16.214h-.741V.157h1.193l2.657 16.188Zm6.399-.523 1.844-7.48 2.043-8.185h.994v18.306h-.759V2.275L319.48 9.86l-2.079 8.604h-.904V.157h.76v15.665Zm12.449-14.567h-2.585v17.208h-.832V1.255h-2.585V.157h6.002v1.098Zm2.417 6.433h1.555c1 0 1.741.358 2.223 1.073.482.715.724 1.805.724 3.27v1.987c0 2.963-.911 4.445-2.73 4.445h-2.603V.157h.831v7.531ZM351 18.463h-.832v-8.186h-1.319c-.784 0-1.374.236-1.772.706-.398.454-.597 1.256-.597 2.407v2.877c0 1.01-.09 1.743-.271 2.196h-.867c.205-.453.306-1.186.306-2.196v-2.851c0-2.11.609-3.357 1.827-3.74-1.218-.401-1.827-1.665-1.827-3.792V4.289c0-2.755.905-4.132 2.712-4.132H351v18.306ZM29.416 1.099c-1.302 0-1.952 1.15-1.952 3.452v9.518c0 2.302.65 3.452 1.952 3.452.663 0 1.151-.304 1.465-.915.325-.627.487-1.473.487-2.537V4.551c0-1.064-.162-1.9-.487-2.511-.314-.628-.802-.941-1.465-.941Zm46.614 0c-.663 0-1.151.313-1.465.941-.313.61-.47 1.447-.47 2.51v9.52c0 1.063.157 1.909.47 2.536.314.61.802.915 1.465.915.675 0 1.17-.304 1.483-.915.325-.627.488-1.473.488-2.537V4.551c0-1.064-.163-1.9-.488-2.511-.314-.628-.808-.941-1.483-.941Zm29.236 0c-.663 0-1.152.313-1.465.941-.313.61-.47 1.447-.47 2.51v9.52c0 1.063.156 1.909.47 2.536.313.61.802.915 1.465.915.675 0 1.169-.304 1.482-.915.325-.627.488-1.473.488-2.537V4.551c0-1.064-.163-1.9-.488-2.511-.313-.628-.807-.941-1.482-.941Zm14.671 0c-.663 0-1.152.313-1.465.941-.314.61-.47 1.447-.47 2.51v9.52c0 1.063.156 1.909.47 2.536.313.61.802.915 1.465.915.674 0 1.169-.304 1.482-.915.325-.627.488-1.473.488-2.537V4.551c0-1.064-.163-1.9-.488-2.511-.313-.628-.808-.941-1.482-.941Zm78.057 0c-.663 0-1.15.314-1.464.941-.313.61-.469 1.447-.469 2.51v9.52c0 1.063.156 1.909.469 2.536.314.61.801.915 1.464.915.675 0 1.169-.304 1.483-.915.325-.627.488-1.473.488-2.537V4.551c0-1.064-.163-1.9-.488-2.511-.314-.628-.808-.941-1.483-.941Zm22.925 0c-.663 0-1.152.313-1.465.941-.313.61-.47 1.447-.47 2.51v9.52c0 1.063.157 1.909.47 2.536.313.61.802.915 1.465.915.675 0 1.169-.304 1.482-.915.326-.627.489-1.473.489-2.537V4.551c0-1.064-.163-1.9-.489-2.511-.313-.628-.807-.941-1.482-.941Zm33.366 0c-.663 0-1.15.313-1.464.941-.313.61-.47 1.447-.47 2.51v9.52c0 1.063.157 1.909.47 2.536.314.61.801.915 1.464.915.675 0 1.169-.304 1.483-.915.325-.627.488-1.473.488-2.537V4.551c0-1.064-.163-1.9-.488-2.511-.314-.628-.808-.941-1.483-.941Zm10.416 0c-.663 0-1.15.313-1.464.941-.313.61-.47 1.447-.47 2.51v9.52c0 1.063.157 1.909.47 2.536.314.61.801.915 1.464.915.675 0 1.169-.304 1.483-.915.325-.627.488-1.473.488-2.537V4.551c0-1.064-.163-1.9-.488-2.511-.314-.628-.808-.941-1.483-.941Zm37.772 0c-.663 0-1.152.313-1.465.941-.313.61-.47 1.447-.47 2.51v9.52c0 1.063.157 1.909.47 2.536.313.61.802.915 1.465.915.675 0 1.169-.304 1.482-.915.325-.627.488-1.473.488-2.537V4.551c0-1.064-.163-1.9-.488-2.511-.313-.628-.807-.941-1.482-.941ZM96.191 17.365h1.88c1.29 0 1.935-1.055 1.935-3.165v-1.647c0-1.168-.18-1.997-.542-2.485-.362-.488-.929-.732-1.7-.732H96.19v8.03Zm107.17 0h1.952c1.314 0 1.971-1.063 1.971-3.19V11.95c0-1.08-.168-1.83-.506-2.249-.337-.418-.874-.627-1.609-.627h-1.808v8.29Zm24.244-2.93c-.06 1.43-.259 2.407-.596 2.93h4.067V1.255h-3.001l-.47 13.18Zm104.518 2.93h1.772c1.265 0 1.898-1.09 1.898-3.27v-2.144c0-1.115-.169-1.917-.506-2.405-.337-.506-.874-.759-1.609-.759h-1.555v8.578ZM133.48 13.363h3.688l-1.862-11.846-1.826 11.846Zm15.43 0h3.688l-1.862-11.846-1.826 11.846Zm136.282 0h3.688l-1.861-11.846-1.827 11.846ZM67.203 9.833h1.572c.736 0 1.267-.244 1.592-.732.337-.506.506-1.317.506-2.432V4.524c0-2.179-.627-3.269-1.88-3.27h-1.79v8.579ZM51.354 1.255c-1.265 0-1.898 1.046-1.898 3.139v1.725c0 1.168.193 1.97.578 2.406.386.436.977.655 1.773.655h1.337V1.255h-1.79Zm122.211 0c-1.265 0-1.897 1.047-1.897 3.139v1.725c0 1.168.192 1.97.578 2.406.386.436.976.655 1.772.655h1.337V1.255h-1.79Zm174.814 0c-1.266 0-1.899 1.046-1.899 3.139v1.725c0 1.168.193 1.97.579 2.406.385.436.976.655 1.771.655h1.338V1.255h-1.789ZM96.191 8.238h1.41c.772 0 1.326-.2 1.664-.601.337-.419.505-1.186.505-2.302V4.158c0-.994-.132-1.726-.397-2.197-.265-.47-.723-.706-1.374-.706h-1.808v6.983Z" fill="#686868"/></svg>