<svg width="320" height="49" fill="none" xmlns="http://www.w3.org/2000/svg"><g clip-path="url(#a)"><mask id="b" style="mask-type:luminance" maskUnits="userSpaceOnUse" x="0" y="0" width="320" height="49"><path d="M320 0H0v49h320V0Z" fill="#fff"/></mask><g mask="url(#b)"><path d="M85.276 39.244v5.42h1.938c2.37 0 3.661-1.084 3.661-2.819 0-1.517-1.076-2.601-3.445-2.601h-2.154ZM84.2 33.39h6.675v.867h-5.814v4.12h2.153c2.8 0 4.307 1.3 4.307 3.468 0 2.602-1.722 3.903-4.737 3.903h-2.8V33.39h.216Zm13.571 11.491c1.938 0 3.23-1.3 3.23-3.252 0-1.952-1.292-3.252-3.23-3.252-1.722 0-3.23 1.3-3.23 3.252.215 1.951 1.508 3.252 3.23 3.252Zm0-7.372c2.369 0 4.092 1.735 4.092 4.12s-1.723 4.12-4.092 4.12c-2.369 0-4.091-1.735-4.091-4.12s1.722-4.12 4.091-4.12Zm7.317 4.336v2.819h1.723c1.507 0 2.368-.434 2.368-1.518 0-.867-.646-1.3-2.368-1.3h-1.723Zm0-3.252v2.602h2.153c1.077 0 1.723-.434 1.723-1.301 0-1.084-1.077-1.301-2.153-1.301-.862-.217-1.292-.217-1.723 0Zm-.861-.867h2.584c2.153 0 3.23.65 3.23 1.951 0 .867-.646 1.734-1.508 1.734 1.292.217 1.938.868 1.938 1.952 0 1.517-1.076 2.168-3.445 2.168h-2.584v-7.805h-.215Zm8.187 0h4.738v.867h-3.877v6.938h-.861v-7.805Zm6.242 7.805v-7.805h.862v6.504l5.168-6.504h.861v7.805h-.861v-6.505l-5.168 6.505h-.862Zm14.211-1.951v-1.3c-.646-.434-1.292-.651-1.938-.651-1.077 0-2.154.433-2.154 1.734 0 1.084.862 1.518 1.723 1.518 1.292 0 1.938-.867 2.369-1.3Zm-4.522-5.42c.646-.434 1.507-.65 2.584-.65 2.153 0 2.799 1.083 2.799 3.035v4.986h-.861v-1.3c-.431.65-1.292 1.3-2.584 1.3-1.508 0-2.369-.867-2.369-2.384 0-1.518 1.292-2.386 3.015-2.386.646 0 1.507.217 2.153.651 0-1.951-.215-3.035-2.153-3.035-.861 0-1.508.216-2.154.65l-.43-.867Zm13.572.433h-3.23v1.734c-.646 4.553-1.938 5.204-3.015 5.204v-.867c.431 0 1.723-.434 1.938-4.553l.215-2.385h4.953v7.805h-.861v-6.938Zm7.102 6.938C147.942 48.35 147.081 49 146.004 49c-.431 0-.861-.217-1.292-.434l.215-.65c.216.217.646.217.862.217.861 0 1.292-.65 1.938-2.168l.215-.434-3.661-7.805h1.077l2.584 5.637.646 1.3c.216-.433.216-.867.431-1.3l2.153-5.42h1.077l-3.23 7.588Zm5.811-5.853v4.553c.862.433 1.508.65 2.368.65 1.939 0 3.231-1.3 3.231-3.252 0-1.951-1.076-3.252-3.015-3.252-1.076 0-2.152.65-2.584 1.3Zm-1.077-1.952h.862v1.084c.647-.65 1.723-1.3 2.799-1.3 2.155 0 3.661 1.734 3.661 3.902 0 2.385-1.506 4.12-4.091 4.12-.862 0-1.938-.217-2.584-.651v4.12h-.861V37.726h.214Zm13.143 7.155c1.938 0 3.23-1.3 3.23-3.252 0-1.951-1.292-3.252-3.23-3.252-1.723 0-3.231 1.3-3.231 3.252.216 1.951 1.508 3.252 3.231 3.252Zm0-7.372c2.368 0 4.091 1.735 4.091 4.12s-1.723 4.12-4.091 4.12c-2.369 0-4.091-1.735-4.091-4.12s1.722-4.12 4.091-4.12Zm12.269 4.553h-4.951v3.469h-.862v-7.805h.862v3.469h4.951v-3.47h1.078v7.806h-1.078v-3.47Zm3.663 3.469v-7.805h1.078v6.504l5.167-6.504h.863v7.805h-.863v-6.505l-5.167 6.505h-1.078Zm10.556-.867h4.523v-6.071h-3.231v1.734c-.216 2.169-.862 3.903-1.292 4.337Zm-1.939 0h1.077c.431-.65 1.078-2.385 1.292-4.77l.216-2.168h4.953v6.938h1.292v2.818h-.862v-1.951h-6.891v1.951h-.861v-2.818h-.216Zm14.86-1.084v-1.3c-.646-.434-1.293-.651-1.939-.651-1.076 0-2.154.433-2.154 1.734 0 1.084.862 1.518 1.724 1.518 1.292 0 1.937-.867 2.369-1.3Zm-4.523-5.42c.646-.434 1.508-.65 2.584-.65 2.153 0 2.799 1.083 2.799 3.035v4.986h-.86v-1.3c-.432.65-1.293 1.3-2.585 1.3-1.508 0-2.368-.867-2.368-2.384 0-1.518 1.292-2.386 3.014-2.386.646 0 1.507.217 2.153.651 0-1.951 0-3.035-2.153-3.035-.862 0-1.508.216-2.154.65l-.43-.867Zm7.32 6.504.431-.65c.646.65 1.723.867 2.369.867 1.507 0 2.369-.65 2.369-1.518 0-.867-.647-1.3-1.723-1.3h-1.292v-.868h1.292c.861 0 1.507-.65 1.507-1.517 0-.868-.861-1.301-1.939-1.301-1.076 0-1.937.433-2.368.867l-.431-.65c.647-.651 1.723-1.085 3.015-1.085 1.723 0 2.799.868 2.799 1.952 0 .867-.43 1.517-1.507 1.951 1.077 0 1.723.867 1.723 1.951 0 1.518-1.292 2.385-3.231 2.385-1.076 0-2.583-.433-3.014-1.084Zm26.484-1.084v-1.3c-.646-.434-1.292-.651-1.938-.651-1.077 0-2.155.433-2.155 1.734 0 1.084.862 1.518 1.724 1.518 1.291 0 1.937-.867 2.369-1.3Zm-4.523-5.42c.646-.434 1.508-.65 2.585-.65 2.152 0 2.798 1.083 2.798 3.035v4.986h-.86v-1.3c-.432.65-1.292 1.3-2.585 1.3-1.508 0-2.368-.867-2.368-2.384 0-1.518 1.292-2.386 3.015-2.386.646 0 1.506.217 2.152.651 0-1.951 0-3.035-2.152-3.035-.862 0-1.509.216-2.155.65l-.43-.867Zm-8.83 5.42v-1.3c-.645-.434-1.291-.651-1.937-.651-1.078 0-2.154.433-2.154 1.734 0 1.084.862 1.518 1.722 1.518 1.292 0 1.939-.867 2.369-1.3Zm-4.522-5.42c.647-.434 1.507-.65 2.585-.65 2.153 0 2.799 1.083 2.799 3.035v4.986h-.862v-1.3c-.43.65-1.291 1.3-2.583 1.3-1.508 0-2.369-.867-2.369-2.384 0-1.518 1.291-2.386 3.015-2.386.646 0 1.507.217 2.153.651 0-1.951-.216-3.035-2.153-3.035-.862 0-1.508.216-2.154.65l-.431-.867Zm20.68 6.504.43-.65c.646.65 1.722.867 2.368.867 1.509 0 2.369-.65 2.369-1.518 0-.867-.646-1.3-1.722-1.3h-1.293v-.868h1.293c.862 0 1.508-.65 1.508-1.517 0-.868-.862-1.301-1.939-1.301-1.076 0-1.938.433-2.368.867l-.432-.65c.646-.651 1.724-1.085 3.016-1.085 1.723 0 2.799.868 2.799 1.952 0 .867-.43 1.517-1.508 1.951 1.078 0 1.724.867 1.724 1.951 0 1.518-1.292 2.385-3.231 2.385-.862 0-2.368-.433-3.014-1.084Zm12.27.217c1.939 0 3.231-1.3 3.231-3.252 0-1.951-1.292-3.252-3.231-3.252-1.722 0-3.23 1.3-3.23 3.252 0 1.951 1.292 3.252 3.23 3.252Zm0-7.372c2.369 0 4.092 1.735 4.092 4.12s-1.723 4.12-4.092 4.12c-2.368 0-4.091-1.735-4.091-4.12s1.507-4.12 4.091-4.12Zm8.828 3.903 4.093 4.12h-1.292l-4.093-4.12 3.877-3.903h1.076l-3.661 3.903Zm-2.583-3.686h.861v7.806h-.861v-7.806Zm14.426 6.721c-.646.868-1.722 1.301-3.014 1.301-2.369 0-4.091-1.517-4.091-4.12 0-2.384 1.722-4.119 3.875-4.119 1.292 0 2.368.217 3.015 1.084l-.431.65c-.646-.65-1.506-.866-2.368-.866-1.723 0-3.015 1.3-3.015 3.252 0 1.951 1.508 3.252 3.231 3.252 1.076 0 1.938-.434 2.368-1.084l.43.65Zm2.16 1.084v-7.805h.861v6.504l5.169-6.504h.86v7.805h-.86v-6.505l-5.169 6.505h-.861Zm9.688-7.805h.862l3.23 4.336 3.015-4.336h.861v7.805h-.861v-6.505l-3.015 4.337-3.23-4.337v6.505h-.862v-7.805Zm11.198 3.252h5.599c0-1.734-1.078-2.601-2.801-2.601-1.722 0-2.584 1.084-2.798 2.601Zm6.029 3.686c-.646.65-1.938 1.084-2.8 1.084-2.369 0-4.091-1.517-4.091-4.12 0-2.384 1.292-4.119 3.876-4.119 1.939 0 3.445 1.301 3.445 3.47v.65h-6.459c0 1.951 1.292 3.035 3.229 3.035 1.078 0 1.938-.434 2.584-.867l.216.867Zm3.444-4.986v4.553c.861.433 1.507.65 2.369.65 1.937 0 3.229-1.3 3.229-3.252 0-1.951-1.076-3.252-3.015-3.252-.86 0-1.938.65-2.583 1.3Zm-.862-1.952h.862v1.084c.645-.65 1.723-1.3 2.799-1.3 2.153 0 3.661 1.734 3.661 3.902 0 2.385-1.508 4.12-4.091 4.12-.862 0-1.938-.217-2.585-.651v4.12h-.862V37.726h.216Zm-200.481-9.973h3.015V1.952h-15.29l-.43 5.203c-1.077 16.695-4.307 17.562-6.03 17.562v3.036c4.092.433 7.537-1.518 9.045-17.996l.43-4.77h9.26v22.766Zm7.537-13.01c0 7.806 5.599 13.226 13.136 13.226 7.322 0 13.136-5.637 13.136-13.225 0-7.806-5.599-13.226-13.136-13.226-7.752 0-13.136 5.854-13.136 13.226Zm3.23 0c0-6.07 4.307-10.406 9.691-10.406 5.383 0 9.69 4.336 9.69 10.407 0 5.854-3.876 10.407-9.69 10.407-5.384 0-9.691-4.553-9.691-10.407Zm44.576 13.01h3.015V1.952h-3.015v11.057h-13.997V1.952h-3.015v25.8h3.015V16.046h13.997v11.708Zm9.476 0h3.015V4.987h11.196V1.952h-14.211v25.8Zm20.673 0 15.504-20.598v20.598h3.23V1.952h-2.799L188.43 22.549V1.952h-3.231v25.8H188Zm22.395 4.77h3.015v-4.77h19.812v4.77h3.015v-7.806h-3.446V1.952h-15.074l-.216 5.203c-.646 10.84-3.229 16.261-4.307 17.562h-2.799v7.805Zm9.906-22.983.431-4.553h9.044v19.947h-12.921c.646-1.3 2.8-6.504 3.446-15.394Zm18.305 18.213h3.229l3.23-7.806h11.629l3.231 7.806h3.229L252.171 1.735h-2.583l-10.982 26.018ZM250.879 6.07l4.523 11.058h-9.26l4.737-11.058Zm22.827 22.115c4.737 0 8.828-2.818 8.828-7.588 0-3.036-1.506-5.42-4.737-6.071v-.217c2.585-1.3 3.661-3.686 3.661-5.854 0-4.336-3.015-6.938-7.322-6.938-3.229 0-6.243 1.518-7.967 3.686l1.724 2.168c1.506-1.734 3.229-2.819 5.813-2.819 2.585 0 4.737 1.301 4.737 4.12 0 2.602-2.152 4.336-4.307 4.336h-2.798v3.036h3.014c3.231 0 4.953 1.734 4.953 4.119 0 3.252-2.584 4.987-5.815 4.987-2.152 0-4.737-1.301-6.459-3.252l-1.723 2.168c1.507 1.951 4.521 4.12 8.398 4.12Zm10.763-.432h3.23l3.231-7.806h11.629l3.229 7.806h3.23L298.036 1.735h-2.585l-10.982 26.018ZM296.744 6.07l4.522 11.058h-9.26l4.738-11.058Zm12.061 1.085c0 3.036 2.368 5.637 5.599 5.637 3.015 0 5.599-2.601 5.599-5.637 0-3.035-2.584-5.637-5.599-5.637-3.015.217-5.599 2.602-5.599 5.637Zm1.508.217a4.102 4.102 0 0 1 4.091-4.12c2.369 0 4.091 1.952 4.091 4.12a4.102 4.102 0 0 1-4.091 4.12c-2.369 0-4.091-1.952-4.091-4.12Zm3.23 2.819V8.023h.861l1.292 2.168h1.292l-1.508-2.385c.646-.217 1.293-.868 1.293-1.735 0-1.084-.647-1.951-2.369-1.951h-2.153v6.07h1.292Zm.645-5.204c.862 0 1.292.434 1.292 1.084 0 .65-.43 1.084-1.292 1.084h-.86V4.987h.86Z" fill="#fff"/><path d="M48.672 6.938s-1.723-4.77-6.676-6.504c-4.307-1.301-12.92-.65-16.15 6.721-3.015 6.721-2.154 9.54-2.154 9.54s.215-8.89 9.044-12.792c4.307-1.735 8.184-1.518 10.337 0 2.153 1.3 3.445 3.035 5.599 3.035ZM5.817 35.558h4.306C1.94 26.886.003 15.611.003 15.611s-.647 10.407 5.814 19.947Z" fill="#F00044"/><path d="M55.775 15.394c-7.967.434-6.46-6.505-6.46-6.505s-2.369-.216-3.66-1.084c-1.293-.867-5.384-6.72-14.213-1.951-8.83 4.77-5.6 18.43-2.8 21.681 2.8 3.253 12.275 10.841 24.765 5.204S67.618 8.673 65.25 2.169C65.035 1.517 64.603.65 64.389 0h-6.245c5.168 10.84 1.077 15.394-2.369 15.394Zm-54.266-4.12c.861 9.974 5.383 18.646 11.628 24.283h7.322c-3.445-3.685-6.46-8.455-7.537-14.96C11.63 12.142 13.568 5.204 16.798 0H3.662C1.94 3.903 1.293 7.805 1.51 11.274Z" fill="#AF1837"/><path d="M14.213 16.478c0-6.721 3.23-12.359 7.321-16.478h-2.8c-4.952 7.805-4.521 16.478-4.521 16.478ZM51.252 8.89s-.646 3.035 1.292 4.336c3.445 2.385 6.245-.867 6.245-3.686 0-3.686-1.077-6.72-2.584-9.323H53.62l.215.217c3.446 6.07-2.584 8.456-2.584 8.456Zm11.631 17.128s6.245-7.155 6.89-15.177c.216-3.252 0-6.938-.86-10.624h-2.8c5.384 14.744-3.23 25.801-3.23 25.801Z" fill="#F00044"/></g></g><defs><clipPath id="a"><path fill="#fff" d="M0 0h320v49H0z"/></clipPath></defs></svg>