<svg width="237" height="36" fill="none" xmlns="http://www.w3.org/2000/svg"><g clip-path="url(#a)"><mask id="b" style="mask-type:luminance" maskUnits="userSpaceOnUse" x="0" y="0" width="237" height="36"><path d="M237 0H0v36h237V0Z" fill="#fff"/></mask><g mask="url(#b)"><path d="M63.157 28.832v3.983h1.435c1.755 0 2.712-.797 2.712-2.071 0-1.115-.798-1.912-2.552-1.912h-1.595Zm-.797-4.3h4.944v.637h-4.306v3.026h1.594c2.074 0 3.19.956 3.19 2.549 0 1.911-1.276 2.867-3.509 2.867H62.2v-9.08h.16Zm10.048 8.442c1.436 0 2.392-.956 2.392-2.39 0-1.433-.956-2.389-2.392-2.389-1.276 0-2.392.956-2.392 2.39.16 1.433 1.116 2.389 2.392 2.389Zm0-5.416c1.754 0 3.03 1.274 3.03 3.026 0 1.753-1.276 3.027-3.03 3.027-1.754 0-3.03-1.274-3.03-3.026 0-1.753 1.276-3.027 3.03-3.027Zm5.422 3.186v2.07h1.276c1.116 0 1.754-.318 1.754-1.115 0-.637-.478-.955-1.754-.955H77.83Zm0-2.39v1.912h1.595c.797 0 1.276-.319 1.276-.956 0-.796-.798-.956-1.595-.956-.638-.16-.957-.16-1.276 0Zm-.638-.637h1.914c1.595 0 2.392.478 2.392 1.434 0 .637-.478 1.274-1.116 1.274.957.16 1.435.637 1.435 1.434 0 1.115-.797 1.593-2.552 1.593h-1.914v-5.735h-.16Zm6.062 0h3.509v.637h-2.871v5.098h-.638v-5.735Zm4.626 5.735v-5.735h.637v4.779l3.828-4.779h.638v5.735h-.638v-4.78l-3.828 4.78h-.638Zm10.524-1.434v-.956c-.478-.318-.957-.478-1.435-.478-.798 0-1.595.32-1.595 1.275 0 .796.638 1.115 1.276 1.115.957 0 1.435-.637 1.754-.956Zm-3.35-3.982c.48-.319 1.117-.478 1.915-.478 1.595 0 2.073.796 2.073 2.23v3.664h-.638v-.956c-.319.478-.957.956-1.914.956-1.116 0-1.754-.637-1.754-1.752 0-1.116.957-1.753 2.233-1.753.478 0 1.116.16 1.595.478 0-1.433-.16-2.23-1.595-2.23a2.7 2.7 0 0 0-1.595.478l-.32-.637Zm10.05.318h-2.393v1.275c-.478 3.345-1.435 3.823-2.232 3.823v-.638c.319 0 1.275-.318 1.435-3.345l.159-1.752h3.669v5.735h-.638v-5.098Zm5.263 5.098c-.798 2.07-1.436 2.548-2.233 2.548-.319 0-.638-.159-.957-.318l.159-.478c.16.16.479.16.638.16.638 0 .957-.479 1.436-1.594l.159-.318-2.711-5.735h.797l1.914 4.142.479.955c.159-.318.159-.637.319-.955l1.595-3.983h.797l-2.392 5.576Zm4.305-4.302v3.346c.638.319 1.117.478 1.754.478 1.436 0 2.393-.956 2.393-2.39 0-1.433-.797-2.389-2.233-2.389-.797 0-1.594.478-1.914.956Zm-.797-1.433h.638v.797c.479-.478 1.276-.956 2.073-.956 1.595 0 2.711 1.274 2.711 2.867 0 1.752-1.116 3.027-3.03 3.027-.638 0-1.435-.16-1.914-.478V36h-.637v-8.284h.159Zm9.729 5.257c1.436 0 2.393-.956 2.393-2.39 0-1.433-.957-2.389-2.393-2.389-1.276 0-2.392.956-2.392 2.39.159 1.433 1.116 2.389 2.392 2.389Zm0-5.416c1.754 0 3.03 1.274 3.03 3.026 0 1.753-1.276 3.027-3.03 3.027-1.754 0-3.03-1.274-3.03-3.026 0-1.753 1.276-3.027 3.03-3.027Zm9.09 3.345h-3.667v2.549h-.638v-5.735h.638v2.549h3.667v-2.549h.799v5.735h-.799v-2.549Zm2.71 2.549v-5.735h.799v4.779l3.827-4.779h.638v5.735h-.638v-4.78l-3.827 4.78h-.799Zm7.817-.638h3.35v-4.46h-2.393v1.275c-.16 1.592-.638 2.867-.957 3.185Zm-1.435 0h.797c.32-.477.798-1.752.957-3.504l.16-1.593h3.668v5.097h.957v2.071h-.638v-1.433h-5.104v1.433h-.637v-2.07h-.16Zm11.005-.796v-.956c-.479-.318-.957-.478-1.436-.478-.797 0-1.595.32-1.595 1.275 0 .796.638 1.115 1.277 1.115.957 0 1.434-.637 1.754-.956Zm-3.35-3.982c.479-.319 1.117-.478 1.914-.478 1.595 0 2.073.796 2.073 2.23v3.664h-.637v-.956c-.32.478-.957.956-1.914.956-1.117 0-1.754-.637-1.754-1.752 0-1.116.957-1.753 2.232-1.753.479 0 1.116.16 1.595.478 0-1.433 0-2.23-1.595-2.23a2.7 2.7 0 0 0-1.595.478l-.319-.637Zm5.423 4.779.32-.478c.478.478 1.275.637 1.754.637 1.116 0 1.754-.478 1.754-1.115s-.478-.956-1.276-.956h-.957v-.637h.957a1.09 1.09 0 0 0 1.116-1.115c0-.637-.637-.956-1.435-.956s-1.435.319-1.755.637l-.318-.478c.478-.477 1.275-.796 2.232-.796 1.276 0 2.073.637 2.073 1.434 0 .637-.318 1.115-1.115 1.433.797 0 1.275.637 1.275 1.434 0 1.115-.957 1.752-2.392 1.752-.798 0-1.913-.319-2.233-.796Zm19.617-.797v-.956c-.478-.318-.957-.478-1.435-.478-.797 0-1.596.32-1.596 1.275 0 .796.639 1.115 1.277 1.115.956 0 1.435-.637 1.754-.956Zm-3.349-3.982c.478-.319 1.117-.478 1.914-.478 1.594 0 2.073.796 2.073 2.23v3.664h-.638v-.956c-.319.478-.957.956-1.914.956-1.117 0-1.754-.637-1.754-1.752 0-1.116.957-1.753 2.233-1.753.478 0 1.116.16 1.594.478 0-1.433 0-2.23-1.594-2.23-.639 0-1.117.16-1.596.478l-.318-.637Zm-6.541 3.982v-.956c-.477-.318-.956-.478-1.434-.478-.799 0-1.596.32-1.596 1.275 0 .796.639 1.115 1.276 1.115.957 0 1.435-.637 1.754-.956Zm-3.349-3.982c.479-.319 1.116-.478 1.915-.478 1.594 0 2.073.796 2.073 2.23v3.664h-.639v-.956c-.319.478-.956.956-1.913.956-1.117 0-1.754-.637-1.754-1.752 0-1.116.956-1.753 2.233-1.753.478 0 1.115.16 1.594.478 0-1.433-.16-2.23-1.594-2.23-.639 0-1.117.16-1.596.478l-.319-.637Zm15.312 4.779.318-.478c.479.478 1.276.637 1.755.637 1.117 0 1.754-.478 1.754-1.115s-.479-.956-1.276-.956h-.957v-.637h.957a1.09 1.09 0 0 0 1.117-1.115c0-.637-.638-.956-1.436-.956-.797 0-1.435.319-1.754.637l-.32-.478c.479-.477 1.277-.796 2.234-.796 1.276 0 2.073.637 2.073 1.434 0 .637-.318 1.115-1.117 1.433.799 0 1.277.637 1.277 1.434 0 1.115-.957 1.752-2.393 1.752-.638 0-1.754-.319-2.232-.796Zm9.09.159c1.436 0 2.393-.956 2.393-2.39 0-1.433-.957-2.389-2.393-2.389-1.275 0-2.392.956-2.392 2.39 0 1.433.957 2.389 2.392 2.389Zm0-5.416c1.754 0 3.03 1.274 3.03 3.026 0 1.753-1.276 3.027-3.03 3.027-1.754 0-3.03-1.274-3.03-3.026 0-1.753 1.116-3.027 3.03-3.027Zm6.54 2.867 3.031 3.027h-.957l-3.032-3.027 2.872-2.867h.797l-2.711 2.867Zm-1.913-2.708h.637v5.735h-.637v-5.735Zm10.686 4.938c-.479.637-1.276.956-2.233.956-1.754 0-3.03-1.115-3.03-3.026 0-1.753 1.276-3.027 2.87-3.027.957 0 1.754.16 2.233.796l-.319.478c-.478-.478-1.116-.637-1.754-.637-1.276 0-2.233.956-2.233 2.39 0 1.433 1.117 2.389 2.393 2.389.797 0 1.435-.319 1.754-.797l.319.478Zm1.595.797v-5.735h.638v4.779l3.828-4.779h.637v5.735h-.637v-4.78l-3.828 4.78h-.638Zm7.176-5.735h.638l2.393 3.186 2.232-3.186h.638v5.735h-.638v-4.78l-2.232 3.187-2.393-3.186v4.779h-.638v-5.735Zm8.293 2.39h4.147c0-1.275-.799-1.912-2.074-1.912-1.276 0-1.914.797-2.073 1.912Zm4.465 2.708c-.478.477-1.435.796-2.074.796-1.754 0-3.03-1.115-3.03-3.026 0-1.753.957-3.027 2.872-3.027 1.435 0 2.551.956 2.551 2.549v.477h-4.784c0 1.434.957 2.23 2.391 2.23.799 0 1.436-.318 1.914-.637l.16.638Zm2.553-3.665v3.346c.637.319 1.115.478 1.754.478 1.434 0 2.391-.956 2.391-2.39 0-1.433-.797-2.389-2.232-2.389-.638 0-1.436.478-1.913.956Zm-.639-1.433h.639v.797c.477-.478 1.275-.956 2.072-.956 1.595 0 2.712 1.274 2.712 2.867 0 1.752-1.117 3.027-3.03 3.027-.639 0-1.436-.16-1.914-.478V36h-.639v-8.284h.16ZM75.916 20.39h2.233V1.434H66.825l-.319 3.823c-.797 12.266-3.19 12.903-4.465 12.903v2.23c3.03.319 5.582-1.115 6.698-13.221l.319-3.505h6.858V20.39Zm5.582-9.558c0 5.735 4.147 9.717 9.729 9.717 5.423 0 9.729-4.141 9.729-9.717 0-5.734-4.147-9.716-9.73-9.716-5.74 0-9.728 4.3-9.728 9.716Zm2.392 0c0-4.46 3.19-7.646 7.177-7.646 3.988 0 7.177 3.186 7.177 7.646 0 4.301-2.87 7.646-7.177 7.646-3.987 0-7.177-3.345-7.177-7.646Zm33.014 9.558h2.233V1.434h-2.233v8.124h-10.366V1.434h-2.233V20.39h2.233v-8.602h10.366v8.602Zm7.018 0h2.233V3.664h8.293v-2.23h-10.526V20.39Zm15.311 0 11.483-15.133V20.39h2.392V1.434h-2.073l-11.483 15.133V1.434h-2.393V20.39h2.074Zm16.587 3.504h2.233V20.39h14.673v3.504h2.233V18.16h-2.553V1.434h-11.164l-.16 3.823c-.478 7.965-2.391 11.947-3.189 12.903h-2.073v5.734Zm7.337-16.885.318-3.345h6.699V18.32h-9.57c.478-.956 2.074-4.779 2.553-11.31Zm13.556 13.38h2.392l2.392-5.734h8.613l2.393 5.735h2.391L186.76 1.275h-1.913l-8.134 19.115Zm9.09-15.928 3.35 8.124h-6.858l3.508-8.124Zm16.906 16.248c3.509 0 6.539-2.071 6.539-5.576 0-2.23-1.116-3.982-3.509-4.46v-.16c1.915-.955 2.712-2.707 2.712-4.3 0-3.186-2.233-5.097-5.423-5.097-2.391 0-4.624 1.115-5.901 2.708l1.277 1.592c1.116-1.274 2.391-2.07 4.305-2.07 1.915 0 3.509.955 3.509 3.026 0 1.912-1.594 3.186-3.19 3.186h-2.073v2.23h2.233c2.393 0 3.668 1.274 3.668 3.027 0 2.389-1.914 3.663-4.306 3.663-1.595 0-3.509-.955-4.785-2.389l-1.275 1.593c1.115 1.434 3.348 3.027 6.219 3.027Zm7.975-.319h2.392l2.393-5.735h8.612l2.392 5.735h2.393l-8.134-19.115h-1.914l-8.134 19.115Zm9.091-15.93 3.349 8.124h-6.858l3.509-8.123Zm8.931.797c0 2.23 1.754 4.142 4.147 4.142 2.233 0 4.147-1.912 4.147-4.142 0-2.23-1.914-4.141-4.147-4.141-2.233.159-4.147 1.911-4.147 4.141Zm1.117.16c0-1.753 1.436-3.027 3.03-3.027 1.754 0 3.03 1.434 3.03 3.026 0 1.753-1.435 3.027-3.03 3.027-1.754 0-3.03-1.434-3.03-3.027Zm2.393 2.07V5.894h.637l.957 1.593h.957l-1.117-1.752c.479-.16.957-.637.957-1.274 0-.797-.478-1.434-1.754-1.434h-1.594v4.46h.957Zm.477-3.823c.639 0 .957.319.957.797 0 .478-.318.796-.957.796h-.637V3.664h.637Z" fill="#000"/><path d="M36.045 5.098S34.769 1.593 31.1.318c-3.19-.955-9.569-.477-11.961 4.939-2.233 4.938-1.595 7.009-1.595 7.009s.16-6.531 6.698-9.398c3.19-1.275 6.06-1.115 7.656 0 1.595.955 2.552 2.23 4.147 2.23ZM4.306 26.125h3.19C1.436 19.753 0 11.47 0 11.47s-.478 7.646 4.306 14.655Z" fill="#E4003A"/><path d="M41.308 11.31c-5.901.319-4.785-4.779-4.785-4.779s-1.754-.16-2.71-.796C32.854 5.098 29.824.797 23.285 4.3c-6.539 3.505-4.147 13.54-2.074 15.93 2.074 2.389 9.091 7.964 18.342 3.822 9.25-4.141 10.526-17.681 8.772-22.46-.16-.478-.479-1.115-.638-1.593h-4.625c3.827 7.965.797 11.31-1.755 11.31ZM1.116 8.283c.638 7.328 3.987 13.7 8.612 17.841h5.423c-2.552-2.708-4.785-6.212-5.582-10.991-.957-6.212.478-11.31 2.87-15.133H2.712C1.435 2.868.957 5.735 1.116 8.283Z" fill="#DC034C"/><path d="M10.527 12.107c0-4.939 2.392-9.08 5.423-12.107h-2.074c-3.668 5.735-3.349 12.107-3.349 12.107Zm27.431-5.576s-.478 2.23.957 3.186c2.552 1.752 4.626-.637 4.626-2.708 0-2.708-.798-4.938-1.914-6.85h-1.914l.16.16c2.551 4.46-1.915 6.212-1.915 6.212Zm8.612 12.585s4.626-5.257 5.104-11.15c.16-2.39 0-5.098-.638-7.806h-2.073c3.987 10.832-2.393 18.956-2.393 18.956Z" fill="#E4003A"/></g></g><defs><clipPath id="a"><path fill="#fff" d="M0 0h237v36H0z"/></clipPath></defs></svg>