<svg width="258" height="72" fill="none" xmlns="http://www.w3.org/2000/svg"><g clip-path="url(#a)"><path d="M128.239 8.552c-7.584 0-13.282 4.697-13.282 12.716 0 8.019 5.698 12.716 13.282 12.716s13.283-4.697 13.283-12.716c0-8.019-5.697-12.716-13.283-12.716Zm0 18.91c-4.15 0-5.963-2.58-5.963-6.198 0-3.616 1.815-6.197 5.963-6.197 4.149 0 5.965 2.58 5.965 6.197s-1.815 6.198-5.965 6.198Zm53.196 5.612h-24.249V27.81l13.167-12.233h-12.865V9.45h23.355v5.264l-13.164 12.233h13.756v6.126ZM144.941 0h7.317v33.069h-7.317V0Zm81.934 9.451h4.429v3.114h-4.429c-3.154 0-4.975 2.014-4.975 6.216v14.291h-3.663V18.774c0-6.216 3.624-9.323 8.638-9.323Zm26.531 0h3.661v14.401c0 6.108-4.793 10.128-10.745 10.128-5.952 0-10.753-4.016-10.753-10.128v-14.4h3.664v14.4c0 4.028 3.161 6.809 7.09 6.809 3.93 0 7.09-2.774 7.09-6.809v-14.4h-.007Zm-55.728-.899c-7.584 0-13.281 4.697-13.281 12.716 0 8.019 5.087 12.716 11.976 12.716 3.245 0 5.761-1.732 6.79-3.204a.288.288 0 0 1 .241-.136c.154 0 .279.123.279.277v2.155h7.279v-11.8c0-8.017-5.697-12.716-13.283-12.716v-.008h-.001Zm0 18.91c-4.032 0-5.963-2.58-5.963-6.198 0-3.616 1.814-6.197 5.963-6.197 4.148 0 5.965 2.58 5.965 6.197s-1.815 6.198-5.965 6.198ZM99.087 8.552c-7.584 0-13.282 4.697-13.282 12.709v21.253h7.279V30.906c0-.154.124-.277.28-.277.1 0 .183.059.243.136 1.034 1.475 3.545 3.204 6.791 3.204 6.887 0 11.975-4.697 11.975-12.716 0-8.018-5.693-12.702-13.282-12.702l-.004.001Zm0 18.91c-4.15 0-5.965-2.58-5.965-6.198 0-3.616 1.815-6.197 5.965-6.197s5.963 2.58 5.963 6.197-1.933 6.198-5.963 6.198Zm3.148 27.678c-.659-.855-1.441-1.558-2.36-2.068-1.332-.745-2.814-1.103-4.446-1.103-1.894 0-3.568.413-5.064 1.254a9.295 9.295 0 0 0-3.513 3.488c-.864 1.49-1.29 3.24-1.29 5.225 0 1.985.426 3.75 1.29 5.253.865 1.502 2.031 2.674 3.513 3.515 1.482.84 3.17 1.255 5.064 1.255 1.687 0 3.197-.373 4.528-1.13.947-.538 1.756-1.283 2.429-2.193v3.102h3.389v-19.59h-3.527v2.992h-.013Zm-.824 10.45a6.16 6.16 0 0 1-2.36 2.426c-.988.565-2.1.854-3.334.854-1.235 0-2.36-.289-3.348-.854-.975-.565-1.77-1.379-2.36-2.427-.59-1.047-.879-2.26-.879-3.64 0-1.378.288-2.618.879-3.639.59-1.02 1.372-1.82 2.36-2.385.988-.565 2.1-.854 3.348-.854 1.249 0 2.333.29 3.334.855 1.002.565 1.784 1.364 2.36 2.384.577 1.02.865 2.234.865 3.64 0 1.406-.288 2.592-.865 3.64Zm8.23 6.147h3.526V55.263h11.005v16.474h3.527v-19.59h-18.058v19.59Zm21.461-16.474h7.135v16.474h3.527V55.263h7.135v-3.115h-17.797v3.115Zm33.401-2.04c-1.44-.84-3.115-1.254-5.007-1.254-1.894 0-3.541.427-5.023 1.268a9.26 9.26 0 0 0-3.499 3.53c-.851 1.502-1.263 3.225-1.263 5.17 0 1.943.44 3.666 1.303 5.169.865 1.503 2.1 2.688 3.678 3.543 1.578.868 3.417 1.296 5.503 1.296 1.62 0 3.087-.276 4.39-.814 1.319-.537 2.416-1.323 3.295-2.37l-1.949-2.29a6.993 6.993 0 0 1-2.483 1.78c-.947.399-1.991.592-3.143.592-1.4 0-2.635-.29-3.719-.855a6.213 6.213 0 0 1-2.525-2.385 6.46 6.46 0 0 1-.836-2.495h15.821c.027-.165.04-.358.055-.551 0-.194.014-.373.014-.524 0-2.027-.412-3.792-1.235-5.308a8.945 8.945 0 0 0-3.403-3.53l.026.028Zm-8.273 2.565c.96-.552 2.044-.828 3.279-.828 1.235 0 2.346.276 3.293.828a5.813 5.813 0 0 1 2.223 2.316 6.25 6.25 0 0 1 .742 2.481h-12.529c.11-.896.356-1.723.755-2.454a5.827 5.827 0 0 1 2.25-2.33l-.013-.013Zm33.948-3.64h-3.787l-6.326 8.285h-4.116v-8.285h-3.527v19.59h3.527v-8.272h4.047l6.546 8.271h4.158l-7.891-10.146 7.369-9.444Zm17.173 0v2.992c-.657-.855-1.44-1.558-2.359-2.068-1.332-.745-2.814-1.103-4.446-1.103-1.894 0-3.568.413-5.064 1.254a9.29 9.29 0 0 0-3.512 3.488c-.865 1.49-1.29 3.24-1.29 5.225 0 1.985.425 3.75 1.29 5.253.863 1.502 2.031 2.674 3.512 3.515 1.482.84 3.17 1.255 5.064 1.255 1.687 0 3.196-.373 4.528-1.13.947-.538 1.757-1.283 2.429-2.193v3.102h3.389v-19.59h-3.541Zm-.823 13.441a6.17 6.17 0 0 1-2.359 2.427c-.989.565-2.1.854-3.335.854-1.235 0-2.361-.289-3.348-.854-.975-.565-1.77-1.379-2.361-2.427-.59-1.047-.878-2.26-.878-3.64 0-1.378.288-2.618.878-3.639.591-1.02 1.372-1.82 2.361-2.385.987-.565 2.098-.854 3.348-.854 1.248 0 2.333.29 3.335.855 1 .565 1.783 1.364 2.359 2.384.577 1.02.865 2.234.865 3.64 0 1.406-.288 2.592-.865 3.64ZM71.583 36c0 3.318-1.338 6.322-3.501 8.498a11.864 11.864 0 0 1-8.446 3.522H47.738v11.964C47.738 66.62 42.392 72 35.79 72c-6.601 0-11.947-5.38-11.947-12.016V48.019h11.928c3.3 0 6.286-1.345 8.45-3.52A12.025 12.025 0 0 0 47.718 36c0-6.636-5.346-12.016-11.947-12.016H23.844V12.016C23.844 5.38 29.193 0 35.79 0c3.299 0 6.285 1.345 8.449 3.521a12.013 12.013 0 0 1 3.498 8.495v11.968h11.898c6.597 0 11.947 5.38 11.947 12.016Z" fill="#5D8DD4"/><path d="M47.72 36c0 3.318-1.338 6.322-3.499 8.498a11.876 11.876 0 0 1-8.449 3.521H23.844V23.983h11.928c6.601 0 11.947 5.38 11.947 12.017Z" fill="#fff"/><path d="M23.845 23.983V48.02H11.95C5.35 48.02 0 42.636 0 36c0-6.635 5.35-12.016 11.95-12.016h11.895Z" fill="#5D8DD4"/></g><defs><clipPath id="a"><path fill="#fff" d="M0 0h258v72H0z"/></clipPath></defs></svg>