<svg width="234" height="45" fill="none" xmlns="http://www.w3.org/2000/svg"><g clip-path="url(#a)" fill="#fff"><path d="m80.93 11.793-6.076 25.833h-3.57l5.393-22.808h-11.47l-5.394 22.808h-3.57l6.076-25.833h18.612Zm6.456 26.297c-1.215 0-2.278-.155-3.19-.543-.912-.388-1.671-.853-2.279-1.474-.608-.62-1.064-1.396-1.367-2.25a7.821 7.821 0 0 1-.456-2.715c0-1.707.228-3.413.76-5.043.531-1.629 1.215-3.025 2.202-4.266a9.958 9.958 0 0 1 3.495-2.948c1.367-.698 2.886-1.086 4.634-1.086.987 0 1.823.155 2.583.388.683.232 1.291.62 1.747 1.086.456.465.76.93.987 1.551a4.9 4.9 0 0 1 .304 1.785c0 1.163-.228 2.172-.608 2.948-.38.775-.987 1.474-1.67 2.016-.684.543-1.444.931-2.356 1.242a16.59 16.59 0 0 1-2.81.698c-.988.155-1.975.31-2.963.388-.988.077-1.975.155-2.887.155v.775c0 .544.076 1.087.228 1.63.152.543.38.93.76 1.319.38.387.835.698 1.52.93.607.233 1.518.31 2.506.31.456 0 .912-.077 1.443-.154.532-.078.988-.233 1.444-.31.456-.156.835-.31 1.215-.389.38-.155.608-.232.76-.387l.304 2.947c-.456.31-1.292.544-2.355.854-1.216.388-2.507.543-3.95.543Zm-3.494-10.706c1.443-.077 2.735-.155 3.874-.31 1.14-.155 2.203-.388 3.039-.698.836-.31 1.52-.776 1.975-1.397.456-.543.684-1.318.684-2.25 0-.232-.076-.465-.152-.698-.076-.232-.228-.465-.456-.698-.228-.232-.456-.388-.836-.543-.38-.155-.835-.233-1.367-.233-.836 0-1.671.156-2.355.544-.76.387-1.367.853-1.975 1.474-.608.62-1.064 1.318-1.52 2.094-.38 1.009-.683 1.862-.91 2.715Zm34.943-9.619c1.063 0 1.975.155 2.734.466.76.31 1.368.775 1.824 1.396.455.543.759 1.241.987 2.017.228.776.304 1.551.304 2.405 0 .543-.076 1.163-.152 1.784-.076.62-.228 1.241-.38 1.862l-2.355 9.93h-3.418l2.127-9.154c.152-.543.228-1.241.456-1.94a9.884 9.884 0 0 0 .227-2.094c0-.466-.076-.931-.151-1.397-.076-.465-.304-.853-.532-1.163a2.269 2.269 0 0 0-1.064-.776c-.455-.233-1.063-.31-1.747-.31-.76 0-1.519.155-2.279.465-.76.31-1.367.62-1.823.931.076.31.076.698.152 1.008 0 .31.076.699.076 1.009 0 .543-.076 1.164-.152 1.707-.076.62-.152 1.163-.304 1.706l-2.355 9.93h-3.418l2.127-9.154c.152-.543.228-1.241.38-1.94.151-.697.227-1.473.227-2.171 0-.466-.075-.931-.151-1.397-.076-.465-.228-.776-.456-1.164-.228-.31-.532-.543-.912-.775a4.055 4.055 0 0 0-1.519-.31c-.608 0-1.216 0-1.747.077-.608.078-1.064.155-1.444.31l-3.874 16.37h-3.418l4.406-18.62c1.063-.31 2.279-.62 3.57-.853a19.358 19.358 0 0 1 3.494-.31c.988 0 1.9.155 2.583.543.684.388 1.292.853 1.671 1.396.228-.155.608-.388.988-.62.456-.233.912-.466 1.443-.62.532-.234 1.14-.389 1.824-.544.683.078 1.367 0 2.051 0Zm17.929 0c1.216 0 2.203.155 3.115.543a6.04 6.04 0 0 1 2.127 1.396c.532.62.988 1.319 1.291 2.172.304.854.456 1.707.456 2.715 0 1.707-.228 3.336-.759 4.965-.532 1.63-1.292 3.026-2.355 4.267-1.064 1.242-2.431 2.25-4.027 2.948-1.595.698-3.494 1.086-5.773 1.086h-.911c-.38 0-.608-.077-.836-.077l-1.596 6.671h-3.418l6.001-25.445c.988-.388 2.127-.776 3.343-.931 1.215-.155 2.355-.31 3.342-.31Zm-6.988 17.067c.227.077.531.077.759.077h.836c1.367 0 2.659-.31 3.722-.853a8.86 8.86 0 0 0 2.811-2.25 9.963 9.963 0 0 0 1.747-3.18c.38-1.242.608-2.483.608-3.802 0-.543-.076-1.086-.152-1.629a3.969 3.969 0 0 0-.684-1.396c-.304-.388-.76-.698-1.367-.931-.532-.233-1.292-.388-2.127-.388-.608 0-1.14.077-1.672.155-.531.078-.911.233-1.291.31l-3.19 13.887Zm21.722 3.258c-1.975 0-3.57-.62-4.71-1.784-1.139-1.241-1.671-2.87-1.671-4.965 0-1.474.228-2.948.608-4.577.38-1.552 1.063-3.026 1.899-4.422.912-1.32 1.975-2.483 3.418-3.336 1.443-.854 3.039-1.319 5.014-1.319s3.571.62 4.71 1.784c1.14 1.242 1.672 2.87 1.672 4.965 0 1.474-.228 2.948-.608 4.577-.38 1.552-1.064 3.026-1.899 4.422-.912 1.32-1.976 2.483-3.419 3.336-1.444.853-3.039 1.319-5.014 1.319Zm.607-2.948c1.064 0 2.052-.31 2.963-.931.836-.62 1.596-1.474 2.204-2.482a11.817 11.817 0 0 0 1.367-3.336c.304-1.241.456-2.405.456-3.569 0-1.241-.304-2.25-.836-3.025-.531-.776-1.443-1.086-2.735-1.086-1.063 0-2.051.31-2.963.93-.835.621-1.595 1.474-2.202 2.483a11.789 11.789 0 0 0-1.368 3.336c-.303 1.241-.455 2.405-.455 3.568 0 1.242.303 2.25.835 3.026.456.698 1.368 1.086 2.734 1.086Zm28.341-12.722c0 1.396-.38 2.482-.988 3.258-.608.775-1.444 1.396-2.507 1.784.835.31 1.519.776 1.975 1.396.532.62.76 1.397.76 2.328 0 1.396-.304 2.56-.836 3.413-.532.853-1.291 1.552-2.127 2.095-.91.543-1.898.853-3.038 1.086-1.139.232-2.355.31-3.494.31a31.23 31.23 0 0 1-3.799-.233c-1.292-.155-2.355-.388-3.267-.776l2.735-12.024a11.947 11.947 0 0 1 1.368-3.569c.607-.93 1.291-1.706 2.051-2.25.76-.542 1.671-.93 2.583-1.163.912-.233 1.975-.31 3.039-.31a8.5 8.5 0 0 1 2.506.388 5.51 5.51 0 0 1 1.747 1.008 4.05 4.05 0 0 1 1.064 1.474c.152.543.228 1.164.228 1.784Zm-12.155 6.283-1.443 6.284c.304.078.835.078 1.367.155.608.078 1.292.078 2.203.078.76 0 1.52-.078 2.28-.155.683-.156 1.367-.31 1.899-.621.532-.31.988-.698 1.292-1.164.302-.465.454-1.086.454-1.862 0-.93-.302-1.629-.91-2.017-.608-.388-1.596-.62-2.963-.62h-4.179v-.078Zm.608-2.56h2.811c.76 0 1.52-.078 2.203-.155.684-.078 1.216-.31 1.748-.543.454-.233.834-.62 1.138-1.086.304-.466.456-1.009.456-1.707 0-.62-.228-1.164-.684-1.552-.456-.387-1.138-.62-2.126-.62-.608 0-1.139.077-1.747.233a5.044 5.044 0 0 0-1.596.775 5.723 5.723 0 0 0-1.291 1.63c-.38.698-.684 1.629-.836 2.715l-.076.31Zm25.448 11.637c-.151-.31-.227-.543-.379-.931a5.801 5.801 0 0 1-.304-1.086c-.532.465-1.216 1.008-2.128 1.474-.911.465-1.975.775-3.342.775-1.064 0-1.976-.155-2.735-.543-.76-.31-1.368-.853-1.9-1.474a6.361 6.361 0 0 1-1.062-2.172 10.763 10.763 0 0 1-.38-2.793c0-1.629.304-3.258.834-4.887.532-1.63 1.368-3.026 2.432-4.267 1.063-1.241 2.431-2.25 4.102-3.025 1.672-.776 3.571-1.164 5.774-1.164.684 0 1.442.078 2.278.233.912.155 1.595.388 2.279.776l-2.811 11.714c-.152.543-.228 1.086-.304 1.629-.076.543-.152 1.086-.152 1.63 0 .542.076 1.163.152 1.706.076.62.304 1.241.532 1.862l-2.886.543Zm-5.47-2.638c.988 0 1.9-.233 2.659-.698.76-.466 1.368-.931 1.9-1.552 0-.388.076-.853.152-1.319l.228-1.396 2.203-9.232c-.152-.077-.304-.077-.608-.077h-.76c-1.367 0-2.659.31-3.722.853a8.912 8.912 0 0 0-2.887 2.172c-.76.931-1.368 1.94-1.824 3.181-.456 1.241-.608 2.482-.608 3.801 0 .543.076 1.086.152 1.552.076.543.304 1.008.532 1.396.228.388.608.776.988 1.009.38.155.988.31 1.595.31Zm14.581 2.406h-3.419l4.559-19.394h3.418l-1.823 7.913c.912-.62 1.823-1.32 2.735-2.017.912-.698 1.747-1.474 2.582-2.172.835-.699 1.595-1.397 2.279-2.017.684-.621 1.215-1.242 1.671-1.707h4.103c-.532.62-1.216 1.319-2.051 2.095-.836.775-1.672 1.629-2.66 2.404-.911.854-1.899 1.63-2.811 2.405a36.147 36.147 0 0 1-2.505 1.94c.684.62 1.367 1.319 2.126 2.172.683.853 1.367 1.707 2.051 2.715.684.93 1.291 1.862 1.823 2.87.532 1.009.988 1.862 1.368 2.716h-3.723a30.174 30.174 0 0 0-3.265-5.43c-1.216-1.708-2.583-3.104-4.027-4.112l-2.431 9.62Zm14.815-6.906c0-1.706.228-3.335.76-4.887.532-1.551 1.216-2.948 2.203-4.112.988-1.163 2.128-2.172 3.571-2.87 1.444-.698 3.039-1.086 4.863-1.086.834 0 1.593.078 2.277.155.684.078 1.444.31 2.052.62l-1.292 2.871c-.38-.232-.836-.388-1.368-.543-.531-.155-1.215-.155-2.049-.155-1.216 0-2.28.233-3.191.776a8.997 8.997 0 0 0-2.431 2.094 8.065 8.065 0 0 0-1.52 3.026c-.38 1.164-.532 2.327-.532 3.568 0 .621.076 1.242.228 1.862.152.543.38 1.086.684 1.474a3.2 3.2 0 0 0 1.368 1.009c.607.232 1.291.388 2.203.388.456 0 .911-.078 1.367-.156.456-.077.912-.155 1.368-.31.38-.155.76-.233 1.139-.388.303-.155.531-.232.683-.388l.304 2.948c-.456.31-1.214.621-2.126.854-.988.31-2.051.465-3.343.465-1.14 0-2.203-.155-3.115-.543-.912-.388-1.671-.853-2.279-1.551-.608-.621-1.064-1.474-1.368-2.328-.304-.853-.456-1.706-.456-2.793Zm-197.891-4.42c.608-3.414 1.216-6.827 1.748-10.318-1.444.853-2.887 1.862-4.406 2.87-.304 2.483-.608 4.965-.988 7.448a360.761 360.761 0 0 1-2.963 17.765h3.191a811.12 811.12 0 0 0 3.418-17.765Z"/><path d="M50.01 11.792c-.91-4.888-6.38-4.965-10.103-4.422C41.2 4.887 42.49 2.482 43.781 0 40.287 1.862 35.35 1.164 31.02.853 29.804.776 28.664.698 27.601.776 21.6.93 19.32 2.56 18.865 8.223c-.152 2.095-.38 4.267-.608 6.361-4.558 2.25-8.584 4.733-11.85 7.603C1.62 26.3-.506 29.945.1 33.048c1.064 5.586 7.977 4.887 11.547 4.19-29.93-6.595 41.553-37.47 11.091-24.67.228-1.397.456-2.793.608-4.267.607-4.267 4.102-5.12 7.748-5.198 2.051-.077 4.102.155 5.774.155-2.507 5.275-4.938 10.628-7.141 15.981-1.595 3.802-3.115 7.603-4.634 11.404 1.52-.93 3.266-2.017 5.014-3.18a396.926 396.926 0 0 1 3.798-8.224c1.823-3.801 3.798-7.68 5.773-11.481 25.449 6.749-35.703 34.134-15.8 25.91-1.292 3.414-2.507 6.827-3.723 10.24h2.431c.988 0 .912-.697 1.292-1.55 1.367-3.492 2.734-6.983 4.254-10.474h.076c6.229-2.637 11.394-5.74 15.497-9.31 4.785-4.033 6.912-7.68 6.305-10.782Z"/></g><defs><clipPath id="a"><path fill="#fff" d="M0 0h234v45H0z"/></clipPath></defs></svg>