<svg width="24" height="24" fill="none" xmlns="http://www.w3.org/2000/svg"><mask id="a" style="mask-type:luminance" maskUnits="userSpaceOnUse" x="0" y="0" width="24" height="24"><path d="M18.182 0H5.818A5.818 5.818 0 0 0 0 5.818v12.364A5.818 5.818 0 0 0 5.818 24h12.364A5.818 5.818 0 0 0 24 18.182V5.818A5.818 5.818 0 0 0 18.182 0Z" fill="#fff"/></mask><g mask="url(#a)"><path d="M24 0H0v24h24V0Z" fill="#fff"/><path d="M24 12c6.628 0 12-5.373 12-12s-5.372-12-12-12c-6.627 0-12 5.373-12 12s5.373 12 12 12Z" fill="#fff"/><path d="M15.098 11.452H8.006V8.646h7.09c.415 0 .703.073.847.199.145.126.234.36.234.701v1.008c0 .36-.09.593-.234.72-.144.125-.432.18-.847.18v-.002Zm.486-5.45H5V18h3.007v-3.904h5.542L16.179 18h3.367l-2.9-3.922c1.07-.159 1.55-.486 1.945-1.026.396-.54.594-1.403.594-2.555v-.9c0-.682-.072-1.222-.198-1.636a2.727 2.727 0 0 0-.648-1.097 2.93 2.93 0 0 0-1.117-.666C16.79 6.072 16.25 6 15.584 6v.001Z" fill="#DC034C"/></g></svg>