<svg width="32" height="32" fill="none" xmlns="http://www.w3.org/2000/svg"><path d="M13.872 2.285c-6.388 0-11.586 5.198-11.586 11.586 0 6.39 5.197 11.587 11.586 11.587S25.46 20.26 25.46 13.872c0-6.39-5.198-11.587-11.587-11.587Zm0 21.146c-5.271 0-9.56-4.288-9.56-9.56 0-5.27 4.289-9.559 9.56-9.559 5.271 0 9.56 4.288 9.56 9.56 0 5.27-4.288 9.56-9.56 9.56Z" fill="#000"/><path d="m29.419 27.984-7.364-7.364a1.013 1.013 0 1 0-1.433 1.433l7.364 7.364a1.011 1.011 0 0 0 1.433 0 1.013 1.013 0 0 0 0-1.433Z" fill="#000"/></svg>