<svg width="24" height="24" fill="none" xmlns="http://www.w3.org/2000/svg"><path d="M.63 11.573c.056-.03.11-.057.165-.083.934-.458 1.88-.886 2.826-1.314.05 0 .136-.063.184-.084l.22-.099.42-.19.841-.38L6.97 8.66l3.366-1.522 3.366-1.522 3.366-1.523 3.367-1.522c.249-.114.519-.283.786-.332.225-.043.444-.124.67-.17.428-.085.901-.12 1.312.068.142.065.273.157.381.272.521.545.448 1.44.338 2.206-.767 5.34-1.535 10.683-2.304 16.024-.105.733-.248 1.537-.795 2-.463.392-1.121.436-1.693.27-.572-.168-1.076-.519-1.571-.864l-6.156-4.31c-.488-.34-1.031-.786-1.026-1.406.003-.373.214-.705.429-1 1.783-2.46 4.355-4.15 6.27-6.495.27-.33.482-.928.11-1.12-.22-.113-.473.042-.674.189-2.53 1.857-5.058 3.716-7.588 5.574-.826.606-1.691 1.23-2.686 1.378-.89.134-1.786-.128-2.647-.396a135.58 135.58 0 0 1-2.16-.692c-.382-.125-.776-.261-1.07-.545-.296-.284-.465-.762-.287-1.14.111-.238.327-.388.555-.51H.63Z" fill="#fff"/></svg>