<svg width="24" height="24" fill="none" xmlns="http://www.w3.org/2000/svg"><path d="M23.76 6.345s-.233-1.654-.955-2.38c-.914-.957-1.936-.962-2.405-1.018-3.356-.244-8.395-.244-8.395-.244h-.01s-5.039 0-8.395.244c-.469.056-1.49.06-2.405 1.017-.722.727-.951 2.381-.951 2.381S0 8.291 0 10.231v1.819c0 1.94.24 3.886.24 3.886s.233 1.655.95 2.381c.915.956 2.115.924 2.65 1.027 1.92.183 8.16.239 8.16.239s5.044-.01 8.4-.249c.469-.056 1.49-.06 2.405-1.017.722-.726.956-2.381.956-2.381S24 13.996 24 12.05v-1.819c0-1.94-.24-3.886-.24-3.886ZM9.52 14.258V7.513l6.483 3.384-6.483 3.36Z" fill="#fff"/></svg>